<?xml version="1.0" encoding="UTF-8"?>
<svg version="1.1" xmlns="http://www.w3.org/2000/svg" width="492" height="307">
<path d="M0 0 C162.36 0 324.72 0 492 0 C492 101.31 492 202.62 492 307 C329.64 307 167.28 307 0 307 C0 205.69 0 104.38 0 0 Z " fill="#3E84D3" transform="translate(0,0)"/>
<path d="M0 0 C162.36 0 324.72 0 492 0 C492 101.31 492 202.62 492 307 C445.14 307 398.28 307 350 307 C350 306.67 350 306.34 350 306 C351.00546875 305.89816406 352.0109375 305.79632813 353.046875 305.69140625 C357.07956817 305.10879354 360.59393633 303.69327476 364.25 301.9375 C364.8989624 301.62804443 365.5479248 301.31858887 366.21655273 300.99975586 C375.62523993 296.36666387 383.29640178 290.88291488 389 282 C389.57363281 281.20078125 390.14726562 280.4015625 390.73828125 279.578125 C395.87572244 272.14148636 398.5182311 264.62465968 401 256 C401.18146167 255.43539535 401.36292334 254.87079069 401.54988384 254.28907681 C402.21588698 250.90210146 402.14801628 247.52766499 402.14717102 244.08961487 C402.15268605 242.8854318 402.15268605 242.8854318 402.1583125 241.6569218 C402.16933662 238.9634134 402.17319109 236.26994359 402.17700195 233.57641602 C402.18326776 231.64620339 402.18991467 229.71599197 402.19691467 227.78578186 C402.21795045 221.44183186 402.22831932 215.09788164 402.23828125 208.75390625 C402.24232954 206.56748886 402.24644648 204.3810716 402.25063133 202.19465446 C402.26968505 191.91797797 402.28391348 181.64130865 402.2922433 171.36461788 C402.30200485 159.51804733 402.32829542 147.67166417 402.36874419 135.82515961 C402.39895963 126.65976957 402.41371748 117.49443307 402.41702431 108.32899421 C402.41936937 102.8595857 402.42825835 97.39037731 402.45348549 91.92102242 C402.476865 86.76882197 402.48095983 81.61695201 402.47072411 76.46471214 C402.47023097 74.58185346 402.47648532 72.69897796 402.49028015 70.81616974 C402.62059155 51.96318213 398.69822638 36.32866734 385.33984375 22.28125 C373.76761056 10.99880562 359.82623621 4.65448295 343.61569214 4.73930359 C342.82229309 4.73547804 342.02889405 4.73165249 341.2114526 4.72771102 C338.57953834 4.71747531 335.94784611 4.72135512 333.31591797 4.7253418 C331.41776835 4.72098996 329.51962049 4.71580523 327.62147522 4.70985413 C322.48271524 4.69650007 317.34402898 4.69588172 312.20525503 4.69841743 C307.90410816 4.69949011 303.60297602 4.69459589 299.30183232 4.689812 C289.14522067 4.67872808 278.98864601 4.67827239 268.83203125 4.68432617 C258.38418047 4.69035829 247.93646462 4.67807172 237.48863685 4.6567561 C228.49465611 4.63908709 219.5007181 4.63314729 210.50672066 4.63639385 C205.14579926 4.63819926 199.78497401 4.63564552 194.42406845 4.62167931 C189.37606057 4.60902 184.32826129 4.61112103 179.28025627 4.62409019 C177.43855783 4.62643842 175.59684434 4.62378506 173.75516319 4.61546707 C153.57288181 4.53096353 136.4889907 7.05308995 121.21484375 21.68359375 C106.58730792 36.98188079 103.54306943 52.72734225 103.58007812 73.15478516 C103.57272775 75.07954396 103.56413872 77.00429837 103.55441284 78.92904663 C103.5322854 84.13188949 103.52926191 89.33457354 103.53116035 94.53745699 C103.53128051 98.8956864 103.5226977 103.25388272 103.51438284 107.61210287 C103.4951787 117.90499882 103.49225337 128.1978137 103.49902344 138.49072266 C103.5056556 149.0715835 103.48282603 159.65209497 103.44570971 170.232885 C103.41490614 179.34839165 103.40366438 188.46378657 103.40754652 197.57934415 C103.40960375 203.00967467 103.40429513 208.43973345 103.37965393 213.87001419 C103.35721381 218.98383285 103.35940669 224.09708841 103.37958145 229.2109108 C103.38296165 231.07435046 103.37803359 232.93782932 103.36359787 234.80121613 C103.21852655 254.93695304 107.49075276 271.64430294 121.59375 286.6875 C128.97134125 293.77765263 137.98304213 298.35018944 147 303 C147 303.66 147 304.32 147 305 C148.98 305.33 150.96 305.66 153 306 C153 306.33 153 306.66 153 307 C102.51 307 52.02 307 0 307 C0 205.69 0 104.38 0 0 Z " fill="#FEFEFE" transform="translate(0,0)"/>
<path d="M0 0 C1.41761503 0.44124221 2.8355977 0.88130463 4.25390625 1.3203125 C19.75321581 6.28348696 32.05746237 14.03136962 44 25 C44.82371094 25.74121094 45.64742187 26.48242188 46.49609375 27.24609375 C61.13395608 41.07215089 70.41265438 59.6094547 75 79 C75.18546387 79.75635742 75.37092773 80.51271484 75.56201172 81.29199219 C77.09045063 88.07929721 77.38472219 94.68182311 77.375 101.625 C77.37367065 103.33925171 77.37367065 103.33925171 77.37231445 105.08813477 C77.24335622 114.35152576 75.80276926 122.1972284 73 131 C72.60234448 132.81210109 72.20637966 134.62457444 71.8125 136.4375 C68.64581413 147.87563856 61.81510135 159.16553761 54 168 C53.32453125 168.7940625 52.6490625 169.588125 51.953125 170.40625 C36.80946074 187.80535362 19.9170198 198.15780851 -2 205 C-3.12148438 205.3609375 -4.24296875 205.721875 -5.3984375 206.09375 C-31.26800666 212.99230178 -59.3116643 206.980516 -82.25 194.1875 C-106.6957544 179.98419002 -124.63931264 155.95451507 -132.19140625 128.83984375 C-139.59329983 99.89203073 -134.42946309 71.26719779 -119.3828125 45.79296875 C-116.08513284 40.41783128 -112.25831856 35.64479961 -108 31 C-107.15695313 30.07574219 -106.31390625 29.15148437 -105.4453125 28.19921875 C-78.94534994 0.43186668 -36.90093218 -12.4681009 0 0 Z " fill="#E8EEF6" transform="translate(282,52)"/>
<path d="M0 0 C1.09538086 -0.01836914 1.09538086 -0.01836914 2.21289062 -0.03710938 C14.46422465 -0.06966385 23.55230464 4.34621974 32.41015625 12.6171875 C40.10663142 20.8517902 44.18228149 29.34296717 44.0625 40.5625 C44.07410156 41.63757813 44.07410156 41.63757813 44.0859375 42.734375 C44.04157977 55.02146484 39.53249149 63.98652064 31.25390625 72.8515625 C20.86849237 82.7883265 9.98384221 84.71509649 -3.984375 84.4609375 C-15.1538415 83.95955256 -23.53672194 77.28727892 -30.9375 69.375 C-40.06913977 58.43826865 -41.4164362 45.97368623 -40.1875 32.1875 C-37.74190682 21.27316702 -29.94379704 12.73374124 -21.1875 6.1875 C-14.0696113 2.01992459 -8.26929521 0.00711031 0 0 Z " fill="#5F98D9" transform="translate(251.1875,111.8125)"/>
<path d="M0 0 C1.09538086 -0.01836914 1.09538086 -0.01836914 2.21289062 -0.03710938 C14.46422465 -0.06966385 23.55230464 4.34621974 32.41015625 12.6171875 C40.10663142 20.8517902 44.18228149 29.34296717 44.0625 40.5625 C44.07410156 41.63757813 44.07410156 41.63757813 44.0859375 42.734375 C44.04157977 55.02146484 39.53249149 63.98652064 31.25390625 72.8515625 C20.86849237 82.7883265 9.98384221 84.71509649 -3.984375 84.4609375 C-15.1538415 83.95955256 -23.53672194 77.28727892 -30.9375 69.375 C-40.06913977 58.43826865 -41.4164362 45.97368623 -40.1875 32.1875 C-37.74190682 21.27316702 -29.94379704 12.73374124 -21.1875 6.1875 C-14.0696113 2.01992459 -8.26929521 0.00711031 0 0 Z M-22.1875 20.1875 C-28.46959768 29.2312928 -31.45258393 37.08436975 -30.1875 48.1875 C-27.91236039 57.03403799 -23.52618563 63.73908188 -16.1875 69.1875 C-8.54000843 73.68726714 -0.9995873 75.57046052 7.8125 74.1875 C17.80213063 71.56129522 25.21765056 66.29705632 30.4765625 57.359375 C34.27846523 49.24581723 35.28309802 41.78140156 32.99609375 33.08203125 C29.42828491 23.27366479 23.46900874 16.5620486 14 12.125 C1.29056381 7.50192245 -12.78031497 10.10837318 -22.1875 20.1875 Z " fill="#4185D3" transform="translate(251.1875,111.8125)"/>
<path d="M0 0 C0 3 0 3 -1.3203125 4.46484375 C-1.91585937 4.95082031 -2.51140625 5.43679688 -3.125 5.9375 C-3.70507812 6.42089844 -4.28515625 6.90429688 -4.8828125 7.40234375 C-9.81535135 11.12449945 -14.85954137 14.08293946 -20.4375 16.6875 C-21.38206055 17.14866211 -21.38206055 17.14866211 -22.34570312 17.61914062 C-23.28639648 18.0609668 -23.28639648 18.0609668 -24.24609375 18.51171875 C-24.79966553 18.77428467 -25.3532373 19.03685059 -25.92358398 19.30737305 C-31.52486746 21.17578471 -37.43492029 21.14591187 -43.2802887 21.13371277 C-44.48959979 21.1371111 -44.48959979 21.1371111 -45.72334141 21.14057809 C-48.41005815 21.14688067 -51.09672397 21.14609116 -53.78344727 21.14526367 C-55.71560735 21.1482574 -57.64776683 21.15166042 -59.57992554 21.15544128 C-64.81735336 21.1642613 -70.05476484 21.16661849 -75.29219937 21.16725707 C-78.56492294 21.16796843 -81.83764237 21.17010432 -85.11036491 21.17275429 C-96.52890156 21.18199936 -107.94742654 21.18609001 -119.3659668 21.18530273 C-130.00932822 21.18470137 -140.65263905 21.19526679 -151.29598767 21.2110464 C-160.43755061 21.22411656 -169.57909699 21.22948689 -178.72066921 21.22884732 C-184.17912415 21.22859229 -189.63753406 21.23144697 -195.09597969 21.24202538 C-200.22678922 21.25169811 -205.35751059 21.25179119 -210.48832321 21.24450874 C-212.3708897 21.24346205 -214.25346166 21.24583082 -216.13601875 21.2518692 C-218.70634811 21.25957971 -221.27637223 21.25495064 -223.84669495 21.24723816 C-224.59095987 21.25238172 -225.3352248 21.25752529 -226.10204321 21.26282471 C-230.43096657 21.23413322 -234.01638796 20.73135466 -238 19 C-238.33 18.34 -238.66 17.68 -239 17 C-241.01669827 15.86649466 -241.01669827 15.86649466 -243 15 C-241 14 -241 14 -239.06706715 14.54438877 C-238.24094771 14.83078189 -237.41482828 15.11717501 -236.56367493 15.4122467 C-228.14267329 17.80662794 -219.66273437 17.42757138 -210.98120117 17.40405273 C-209.07127993 17.40976353 -207.1613621 17.41673052 -205.25144958 17.42485046 C-200.09011889 17.44272038 -194.92895878 17.4416249 -189.7676065 17.43590808 C-185.44637603 17.43280672 -181.12517789 17.43891931 -176.80395204 17.44494683 C-166.60226528 17.45897074 -156.40066231 17.45744905 -146.19897461 17.44604492 C-135.70330324 17.43457082 -125.20788761 17.44863244 -114.71224993 17.4754414 C-105.67492324 17.49765411 -96.63767649 17.50422309 -87.60032445 17.49836498 C-82.21428857 17.49500692 -76.82841651 17.49733342 -71.44240379 17.51461601 C-66.37379336 17.53017166 -61.30555931 17.52603461 -56.23696327 17.50731087 C-54.38678175 17.50364847 -52.5365718 17.50666407 -50.68641663 17.51719666 C-32.36749798 17.61344465 -15.19481348 14.3414712 -1.328125 1.3203125 C-0.88984375 0.88460938 -0.4515625 0.44890625 0 0 Z " fill="#95ADC8" transform="translate(385,286)"/>
<path d="M0 0 C0.66 0 1.32 0 2 0 C1.03432874 2.93946003 0.05425143 5.85821147 -1.05155849 8.74829483 C-4.58742356 18.65911104 -4.57383226 28.00482834 -4.53344727 38.38183594 C-4.5405183 40.30689145 -4.54926826 42.23194141 -4.55955505 44.15698242 C-4.58192999 49.3514955 -4.57913663 54.54570215 -4.57023358 59.74024487 C-4.56509761 64.09361055 -4.57243762 68.44691997 -4.57970566 72.80027986 C-4.59666811 83.08077114 -4.59317709 93.36111387 -4.57641602 103.64160156 C-4.55951063 114.20774805 -4.57531597 124.7734809 -4.6076389 135.3395822 C-4.63443148 144.44664727 -4.64158442 153.55358434 -4.63312382 162.66068482 C-4.62822123 168.08426485 -4.63026407 173.50759641 -4.65091133 178.93114471 C-4.66942011 184.03680222 -4.66312612 189.14187069 -4.63871193 194.24749756 C-4.63375126 196.10770635 -4.63706831 197.96796121 -4.64986038 199.82813263 C-4.77714876 219.94959687 -0.49857539 236.65568625 13.59375 251.6875 C20.97134125 258.77765263 29.98304213 263.35018944 39 268 C39 268.66 39 269.32 39 270 C40.98 270.33 42.96 270.66 45 271 C45 271.33 45 271.66 45 272 C38.58008874 271.42934122 32.98410537 269.32655091 27 267 C27 266.34 27 265.68 27 265 C26.27554688 264.89558594 25.55109375 264.79117187 24.8046875 264.68359375 C15.42855196 262.39832395 9.83404684 254.76411768 5 247 C4.3915625 246.13246094 3.783125 245.26492188 3.15625 244.37109375 C-6.0962389 230.90401774 -6.57648536 218.19045712 -6.45410156 202.43041992 C-6.45297136 200.3792676 -6.45361032 198.32811367 -6.45587158 196.27696228 C-6.4570129 190.74470654 -6.43359825 185.21280213 -6.40557575 179.68062758 C-6.38046456 173.88576172 -6.37821246 168.09088661 -6.37347412 162.29597473 C-6.36107282 151.33863024 -6.32828982 140.38144657 -6.28807616 129.4241727 C-6.2432697 116.94287387 -6.22134912 104.46156711 -6.20129442 91.9802078 C-6.1595546 66.32004959 -6.08925809 40.66003383 -6 15 C-5.34 15 -4.68 15 -4 15 C-3.94392578 14.12988281 -3.94392578 14.12988281 -3.88671875 13.2421875 C-3.46096333 8.18321136 -2.62861009 4.45720842 0 0 Z " fill="#DADCDE" transform="translate(108,35)"/>
<path d="M0 0 C3.56100793 2.57604829 4.76474581 4.23888351 6.0625 8.4375 C5.98493382 12.85877235 4.80829096 14.64565246 2 18 C-2.01005889 20.67337259 -5.2884338 20.93404733 -10 20 C-13.5103106 17.0016097 -14.75672578 14.8666644 -16 10.4375 C-16 6.49482 -15.50660629 5.00792755 -13 2 C-8.93115071 -1.4875851 -4.9806215 -1.63002158 0 0 Z " fill="#BCD7F8" transform="translate(258,220)"/>
<path d="M0 0 C3.56100793 2.57604829 4.76474581 4.23888351 6.0625 8.4375 C5.98493382 12.85877235 4.80829096 14.64565246 2 18 C-2.01005889 20.67337259 -5.2884338 20.93404733 -10 20 C-13.5103106 17.0016097 -14.75672578 14.8666644 -16 10.4375 C-16 6.49482 -15.50660629 5.00792755 -13 2 C-8.93115071 -1.4875851 -4.9806215 -1.63002158 0 0 Z " fill="#BCD7F8" transform="translate(258,70)"/>
<path d="M0 0 C3.08416293 2.05610862 4.68386831 3.45571068 5.44140625 7.15625 C5.65351271 11.26153629 5.33679 13.461136 3.125 17 C-0.09922086 20.03456081 -2.44452149 20.41699414 -6.89453125 20.3359375 C-10.75021408 19.72074506 -12.52633516 17.89599786 -15 15 C-16.0562862 12.24913701 -16.34930219 9.92612165 -16 7 C-14.4165167 3.8330334 -12.97595724 1.80167916 -10.25 -0.4375 C-6.68393635 -1.32901591 -3.4737169 -1.03867575 0 0 Z " fill="#BCD7F8" transform="translate(334,146)"/>
<path d="M0 0 C3.08416293 2.05610862 4.68386831 3.45571068 5.44140625 7.15625 C5.65351271 11.26153629 5.33679 13.461136 3.125 17 C-0.09922086 20.03456081 -2.44452149 20.41699414 -6.89453125 20.3359375 C-10.75021408 19.72074506 -12.52633516 17.89599786 -15 15 C-16.0562862 12.24913701 -16.34930219 9.92612165 -16 7 C-14.4165167 3.8330334 -12.97595724 1.80167916 -10.25 -0.4375 C-6.68393635 -1.32901591 -3.4737169 -1.03867575 0 0 Z " fill="#BCD7F8" transform="translate(184,146)"/>
<path d="M0 0 C0.33 0 0.66 0 1 0 C0.93963048 2.71059145 0.8524809 5.41593977 0.75 8.125 C0.73582031 8.88554687 0.72164063 9.64609375 0.70703125 10.4296875 C0.47744354 15.75612236 -0.68205858 18.6636171 -4 23 C-4.37125 24.051875 -4.7425 25.10375 -5.125 26.1875 C-10.00628214 37.91290789 -23.84236525 47.66694551 -35 53 C-35.99 53.66 -36.98 54.32 -38 55 C-41.35546875 55.1953125 -41.35546875 55.1953125 -45.1875 55.125 C-46.45980469 55.10695313 -47.73210937 55.08890625 -49.04296875 55.0703125 C-50.01878906 55.04710937 -50.99460937 55.02390625 -52 55 C-52 54.67 -52 54.34 -52 54 C-50.99453125 53.89816406 -49.9890625 53.79632813 -48.953125 53.69140625 C-44.92043183 53.10879354 -41.40606367 51.69327476 -37.75 49.9375 C-37.1010376 49.62804443 -36.4520752 49.31858887 -35.78344727 48.99975586 C-26.37476007 44.36666387 -18.70359822 38.88291488 -13 30 C-12.42636719 29.20078125 -11.85273438 28.4015625 -11.26171875 27.578125 C-5.41909862 19.12071343 -2.34873334 9.96962343 0 0 Z " fill="#C7D3E0" transform="translate(402,252)"/>
<path d="M0 0 C0.66 0 1.32 0 2 0 C2.29132813 1.11117187 2.58265625 2.22234375 2.8828125 3.3671875 C7.67119704 21.00996253 15.96890854 34.33618712 32 44 C36.27846066 46.43855153 40.62309656 48.74294478 45 51 C45 51.66 45 52.32 45 53 C47.97 53.495 47.97 53.495 51 54 C51 54.33 51 54.66 51 55 C44.58008874 54.42934122 38.98410537 52.32655091 33 50 C33 49.34 33 48.68 33 48 C31.91332031 47.84337891 31.91332031 47.84337891 30.8046875 47.68359375 C21.42855196 45.39832395 15.83404684 37.76411768 11 30 C10.3915625 29.13246094 9.783125 28.26492188 9.15625 27.37109375 C3.46276262 19.08417461 -0.38113271 10.19911135 0 0 Z " fill="#CDD6E0" transform="translate(102,252)"/>
<path d="M0 0 C0.33 0 0.66 0 1 0 C0.93963048 2.71059145 0.8524809 5.41593977 0.75 8.125 C0.72873047 9.26582031 0.72873047 9.26582031 0.70703125 10.4296875 C0.47744354 15.75612236 -0.68205858 18.6636171 -4 23 C-4.556875 24.5778125 -4.556875 24.5778125 -5.125 26.1875 C-7.42575253 32.02483785 -12.72114066 36.56058309 -17 41 C-17.66 40.67 -18.32 40.34 -19 40 C-15.25 35.125 -15.25 35.125 -13 34 C-8.82652825 27.91852967 -6.45831929 21.16400645 -4.25 14.1875 C-3.94707031 13.26001953 -3.64414062 12.33253906 -3.33203125 11.37695312 C-2.10830791 7.60516586 -0.92403514 3.85768131 0 0 Z " fill="#E6EAED" transform="translate(402,252)"/>
<path d="M0 0 C0 3 0 3 -1.3203125 4.46484375 C-13.82770891 14.6710958 -24.83025062 19.29281236 -41 19 C-41 18.67 -41 18.34 -41 18 C-40.06800781 17.84144531 -39.13601563 17.68289063 -38.17578125 17.51953125 C-23.86049959 14.89964654 -10.34354752 10.87060727 0 0 Z " fill="#A0B3C8" transform="translate(385,286)"/>
<path d="M0 0 C0.680625 0.680625 1.36125 1.36125 2.0625 2.0625 C2.52914062 2.52140625 2.99578125 2.9803125 3.4765625 3.453125 C4.48256815 4.47460766 5.45806925 5.5271635 6.3984375 6.609375 C11.9065712 12.70467016 18.86165926 16.1360544 26 20 C28.34016265 21.32177974 30.67028637 22.65982035 33 24 C31 25 31 25 28.203125 24.25390625 C17.19227687 19.94356204 6.94584288 11.52482327 0 2 C0 1.34 0 0.68 0 0 Z " fill="#ADBDCE" transform="translate(114,279)"/>
<path d="M0 0 C1.96053351 1.12116136 3.91836125 2.24705531 5.875 3.375 C6.96554688 4.00148438 8.05609375 4.62796875 9.1796875 5.2734375 C12 7 12 7 14 9 C16.18745776 9.77039001 18.40008429 10.47061303 20.625 11.125 C21.81351563 11.47820312 23.00203125 11.83140625 24.2265625 12.1953125 C25.14179688 12.46085937 26.05703125 12.72640625 27 13 C27 13.33 27 13.66 27 14 C20.58008874 13.42934122 14.98410537 11.32655091 9 9 C9 8.34 9 7.68 9 7 C8.2575 6.9175 7.515 6.835 6.75 6.75 C3.45697405 5.85190201 2.14023212 4.61583926 0 2 C0 1.34 0 0.68 0 0 Z " fill="#C2D2E3" transform="translate(126,293)"/>
<path d="M0 0 C0.66 0 1.32 0 2 0 C2.8938855 1.37520847 3.78334078 2.75346566 4.65234375 4.14453125 C6.84573247 7.16441428 9.58128545 9.61727593 12.29296875 12.16796875 C14 14 14 14 15 17 C7.87032963 14.09531948 3.81757799 7.34951116 0 1 C0 0.67 0 0.34 0 0 Z " fill="#DAE0E5" transform="translate(112,279)"/>
<path d="M0 0 C0.33 0 0.66 0 1 0 C1.20607779 5.770178 0.86264558 10.50519553 -1 16 C-3.078125 17.73046875 -3.078125 17.73046875 -5 19 C-4.80664062 18.29875 -4.61328125 17.5975 -4.4140625 16.875 C-2.874383 11.26507866 -1.38582343 5.64989553 0 0 Z " fill="#C5D1DE" transform="translate(402,252)"/>
<path d="M0 0 C0.99 0.33 1.98 0.66 3 1 C-0.96 4.465 -0.96 4.465 -5 8 C-5.33 7.01 -5.66 6.02 -6 5 C-1.60546875 0.99609375 -1.60546875 0.99609375 0 0 Z " fill="#DEE5ED" transform="translate(126,14)"/>
<path d="M0 0 C0.66 0.33 1.32 0.66 2 1 C-2.30769231 4.93846154 -2.30769231 4.93846154 -5.8125 5.25 C-6.534375 5.1675 -7.25625 5.085 -8 5 C-6.35197949 1.70395897 -3.32254422 1.22409524 0 0 Z " fill="#CDDCED" transform="translate(367,302)"/>
<path d="M0 0 C0 0.66 0 1.32 0 2 C-5.75 5 -5.75 5 -8 5 C-8 4.01 -8 3.02 -8 2 C-2.25 0 -2.25 0 0 0 Z " fill="#9AB1CA" transform="translate(367,299)"/>
<path d="M0 0 C5.75 3.625 5.75 3.625 8 7 C4.66272214 5.82744291 2.22562513 4.81131596 0 2 C0 1.34 0 0.68 0 0 Z " fill="#CDD7E2" transform="translate(126,293)"/>
</svg>
