<?xml version="1.0" encoding="UTF-8"?>
<svg version="1.1" xmlns="http://www.w3.org/2000/svg" width="510" height="320">
<path d="M0 0 C168.3 0 336.6 0 510 0 C510 105.6 510 211.2 510 320 C341.7 320 173.4 320 0 320 C0 214.4 0 108.8 0 0 Z " fill="#FEFEFE" transform="translate(0,0)"/>
<path d="M0 0 C1.32 0 2.64 0 4 0 C4 6.93 4 13.86 4 21 C6.97 21 9.94 21 13 21 C35.32086421 23.2790594 53.93458461 31.80368233 73.04296875 43.02734375 C75.57847209 44.28750409 78.3139056 45.1046352 81 46 C81 59.86 81 73.72 81 88 C62.85 88 44.7 88 26 88 C26 83.38 26 78.76 26 74 C18.29143589 72.03185597 11.06114964 70.65959033 3.125 70.5 C2.4561377 70.46970703 1.78727539 70.43941406 1.09814453 70.40820312 C-7.38983128 70.40027229 -13.31501734 73.28594292 -22 76 C-22 101.74 -22 127.48 -22 154 C-10.42344594 158.52364714 -10.42344594 158.52364714 1.0625 159.5625 C2.19002686 159.54195557 2.19002686 159.54195557 3.34033203 159.52099609 C11.8430995 159.19737386 19.41950954 156.79024523 27 153 C27 149.04 27 145.08 27 141 C44.82 141 62.64 141 81 141 C81.433125 150.590625 81.433125 150.590625 81.875 160.375 C82.00245605 162.37224121 82.12991211 164.36948242 82.26123047 166.42724609 C82.71471306 178.62179833 82.71471306 178.62179833 79.69952393 182.80368042 C76.49752356 185.89939007 72.85759092 188.06336839 68.89225769 190.04653931 C66.30372595 191.35083485 63.83527666 192.8371593 61.34602356 194.31987 C36.07518835 208.89525982 0.97618127 212.50662723 -27 205 C-38.2357201 201.84283435 -51.5824081 197.4175919 -60 189 C-68.415 188.505 -68.415 188.505 -77 188 C-77 163.58 -77 139.16 -77 114 C-90.86 114 -104.72 114 -119 114 C-119 112.35 -119 110.7 -119 109 C-105.14 109 -91.28 109 -77 109 C-77.15082031 104.92914063 -77.30164063 100.85828125 -77.45703125 96.6640625 C-77.54078687 93.39326624 -77.61122237 90.12277767 -77.67275238 86.85151672 C-77.74109589 83.41033694 -77.8321474 79.97339803 -77.98071289 76.53466797 C-78.99068903 52.52850404 -78.99068903 52.52850404 -74.33398438 47.09936523 C-71.20309265 44.34557363 -67.78850361 42.69792571 -64 41 C-62.54351889 40.05204274 -61.10008239 39.08324978 -59.6796875 38.08203125 C-58.41973392 37.31181685 -57.15144646 36.55506156 -55.875 35.8125 C-55.1725415 35.40378662 -54.47008301 34.99507324 -53.74633789 34.57397461 C-37.19409209 25.28075089 -19.00457566 20.28732841 0 21 C0 14.07 0 7.14 0 0 Z " fill="#121E2F" transform="translate(251,51)"/>
<path d="M0 0 C1.24040039 0.01353516 1.24040039 0.01353516 2.50585938 0.02734375 C4.52486708 0.05068488 6.54372356 0.08654712 8.5625 0.125 C8.5625 0.455 8.5625 0.785 8.5625 1.125 C5.9225 1.125 3.2825 1.125 0.5625 1.125 C0.65592065 6.07325616 0.7619876 11.02101634 0.87988281 15.96875 C0.91821104 17.65259329 0.95305712 19.33651955 0.984375 21.02050781 C1.02994287 23.43845306 1.08794923 25.85582528 1.1484375 28.2734375 C1.15998871 29.0286972 1.17153992 29.78395691 1.18344116 30.56210327 C1.16580066 34.80325198 1.16580066 34.80325198 3.5625 38.125 C5.66860438 38.43873159 5.66860438 38.43873159 8.13088989 38.4034729 C9.57383423 38.42021812 9.57383423 38.42021812 11.04592896 38.43730164 C12.1047226 38.43946182 13.16351624 38.44162201 14.25439453 38.44384766 C15.36659363 38.45389328 16.47879272 38.4639389 17.62469482 38.47428894 C21.31489527 38.5052738 25.00502268 38.5221986 28.6953125 38.5390625 C31.24836869 38.55776183 33.80141861 38.5773343 36.35446167 38.5977478 C42.39633463 38.64394096 48.43820028 38.68130218 54.48015392 38.71442068 C61.35799973 38.75261122 68.23575041 38.80202934 75.11351609 38.85240483 C89.26310687 38.95578978 103.41275891 39.04502875 117.5625 39.125 C117.5625 40.775 117.5625 42.425 117.5625 44.125 C116.68535985 44.13134791 116.68535985 44.13134791 115.79049969 44.13782406 C101.56917884 44.24107954 87.34790756 44.34970965 73.1266737 44.46433926 C66.24942409 44.51964308 59.3721693 44.57312041 52.49487305 44.62231445 C45.86183697 44.66976639 39.22885368 44.72228638 32.59588051 44.77794075 C30.0612754 44.79837069 27.52665587 44.81708269 24.99202538 44.83407402 C21.45060366 44.85810377 17.90928179 44.88816049 14.36791992 44.91967773 C13.31272156 44.9254332 12.25752319 44.93118866 11.17034912 44.93711853 C10.20701157 44.94690735 9.24367401 44.95669617 8.25114441 44.96678162 C7.41323459 44.97323417 6.57532476 44.97968672 5.71202374 44.9863348 C3.37712296 45.04540376 3.37712296 45.04540376 0.5625 46.125 C0.5625 60.645 0.5625 75.165 0.5625 90.125 C-12.95874646 90.125 -12.95874646 90.125 -19.125 87.6875 C-20.30449219 87.23503906 -21.48398438 86.78257812 -22.69921875 86.31640625 C-25.4375 85.125 -25.4375 85.125 -26.4375 84.125 C-26.53248646 81.69103981 -26.56308417 79.28557048 -26.55102539 76.85131836 C-26.55117142 76.09039383 -26.55131744 75.3294693 -26.5514679 74.54548645 C-26.55076862 72.01857702 -26.54297555 69.49174038 -26.53515625 66.96484375 C-26.53329212 65.2174941 -26.5318682 63.47014393 -26.53086853 61.72279358 C-26.52704293 57.11468066 -26.51721229 52.50659905 -26.50616455 47.89849854 C-26.49595134 43.19991479 -26.4913711 38.50132601 -26.48632812 33.80273438 C-26.47559005 24.57680913 -26.45851313 15.35090716 -26.4375 6.125 C-24.84485816 5.48327894 -23.25175004 4.84271501 -21.65844727 4.20263672 C-20.7713356 3.84579803 -19.88422394 3.48895935 -18.9702301 3.12130737 C-12.4339857 0.55012599 -6.93064835 -0.14520295 0 0 Z " fill="#DD2329" transform="translate(254.4375,120.875)"/>
<path d="M0 0 C0.17353916 5.4441714 0.30029559 10.88672099 0.38452148 16.33300781 C0.41964208 18.18387913 0.46735189 20.03455735 0.52807617 21.88476562 C0.61337551 24.55126591 0.6527688 27.21519309 0.68359375 29.8828125 C0.71972275 30.70492218 0.75585175 31.52703186 0.79307556 32.37405396 C0.7954194 35.83341897 0.74898577 38.08620004 -1.49453735 40.82341003 C-3.2648671 42.36383876 -5.04546004 43.70381859 -7 45 C-8.03640625 45.71285156 -9.0728125 46.42570312 -10.140625 47.16015625 C-37.65071814 63.99108007 -71.08626429 71.07497978 -102.984375 64.03515625 C-115.5078072 60.94116797 -130.66367823 56.33632177 -140 47 C-142.89967757 46.69324768 -145.71783178 46.48826629 -148.625 46.375 C-149.42679688 46.33632812 -150.22859375 46.29765625 -151.0546875 46.2578125 C-153.03607556 46.16346069 -155.01800645 46.08063785 -157 46 C-155.48525928 41.18285158 -153.58417449 37.30695748 -151 33 C-142.72692339 31.97400822 -138.03111507 33.69722612 -131.0859375 38.125 C-110.49782898 50.63423049 -81.09824009 53.21347805 -57.875 48.8125 C-55.5730554 48.24875846 -53.28073219 47.64421593 -51 47 C-50.36481445 46.83371094 -49.72962891 46.66742188 -49.07519531 46.49609375 C-39.81754137 44.06105569 -31.62791151 40.58515851 -23.3046875 35.8671875 C-14.69037657 31 -14.69037657 31 -12 31 C-12.04713135 30.27409668 -12.0942627 29.54819336 -12.14282227 28.80029297 C-12.33057426 25.49258335 -12.44712805 22.18599182 -12.5625 18.875 C-12.63791016 17.73289063 -12.71332031 16.59078125 -12.79101562 15.4140625 C-13.00814028 7.11507579 -13.00814028 7.11507579 -10.06201172 3.85644531 C-6.63185026 1.49182337 -4.21620359 0 0 0 Z " fill="#020304" transform="translate(331,193)"/>
<path d="M0 0 C1.32 0 2.64 0 4 0 C4 6.93 4 13.86 4 21 C6.97 21 9.94 21 13 21 C35.33416926 23.28041791 54.07176515 31.77824042 73.140625 43.125 C75.3873958 44.18230391 77.55857547 44.59590215 80 45 C76.31183578 47.30510264 72.31008022 48.13755575 68 48 C65.14206328 47.00810288 62.72793385 45.500301 60.1875 43.875 C58.78444397 43.03329663 57.37948789 42.19475247 55.97265625 41.359375 C55.29477051 40.95138672 54.61688477 40.54339844 53.91845703 40.12304688 C30.96079293 26.68384417 0.48608416 24.48873958 -25 31 C-40.71405347 35.23126451 -54.92523067 42.93510587 -67.21484375 53.6015625 C-69 55 -69 55 -71 55 C-70.99539104 55.61438368 -70.99078207 56.22876736 -70.98603344 56.86176872 C-70.87537641 71.84485363 -70.79275753 86.82781226 -70.74093914 101.8112011 C-70.71521087 109.05722652 -70.68016433 116.30297836 -70.62280273 123.54882812 C-70.57280177 129.86792987 -70.54066993 136.18683338 -70.52955753 142.50612748 C-70.52306644 145.84911995 -70.50526252 149.19109861 -70.47134972 152.53399277 C-70.43491234 156.27544142 -70.43006113 160.01572593 -70.43237305 163.75732422 C-70.41439667 164.85281082 -70.39642029 165.94829742 -70.37789917 167.07698059 C-70.42735507 174.50156059 -72.13053136 179.66823095 -76 186 C-76.33 186 -76.66 186 -77 186 C-77 162.24 -77 138.48 -77 114 C-90.86 114 -104.72 114 -119 114 C-119 112.35 -119 110.7 -119 109 C-105.14 109 -91.28 109 -77 109 C-77.15082031 104.92914063 -77.30164063 100.85828125 -77.45703125 96.6640625 C-77.54078687 93.39326624 -77.61122237 90.12277767 -77.67275238 86.85151672 C-77.74109589 83.41033694 -77.8321474 79.97339803 -77.98071289 76.53466797 C-78.99068903 52.52850404 -78.99068903 52.52850404 -74.33398438 47.09936523 C-71.20309265 44.34557363 -67.78850361 42.69792571 -64 41 C-62.54351889 40.05204274 -61.10008239 39.08324978 -59.6796875 38.08203125 C-58.41973392 37.31181685 -57.15144646 36.55506156 -55.875 35.8125 C-55.1725415 35.40378662 -54.47008301 34.99507324 -53.74633789 34.57397461 C-37.19409209 25.28075089 -19.00457566 20.28732841 0 21 C0 14.07 0 7.14 0 0 Z " fill="#4D5F79" transform="translate(251,51)"/>
<path d="M0 0 C-1.45044271 4.10958767 -3.51110752 7.43258745 -6 11 C-7.93784265 10.85879286 -9.87526955 10.71187127 -11.8125 10.5625 C-12.89144531 10.48128906 -13.97039062 10.40007812 -15.08203125 10.31640625 C-18 10 -18 10 -21 9 C-33.22878082 8.0883763 -43.60857549 9.42241835 -55 14 C-56.95223989 15.95223989 -56.18443615 19.69781129 -56.20532227 22.36547852 C-56.22017166 23.52149567 -56.22017166 23.52149567 -56.23532104 24.7008667 C-56.26702701 27.26018147 -56.2917292 29.81951483 -56.31640625 32.37890625 C-56.33696794 34.14868159 -56.35796419 35.91845194 -56.37937927 37.68821716 C-56.43468109 42.3554582 -56.48405446 47.02274414 -56.53222656 51.69006348 C-56.58238253 56.44901546 -56.63809934 61.20790191 -56.69335938 65.96679688 C-56.80104008 75.31114198 -56.90246288 84.6555439 -57 94 C-60.47325181 95.1577506 -63.36067448 95.06866652 -67 95 C-67.09257931 83.18695305 -67.16370368 71.37399205 -67.20724869 59.56065655 C-67.22814554 54.07554522 -67.25650162 48.59068162 -67.30175781 43.10571289 C-67.34514049 37.81484853 -67.36912129 32.52422281 -67.37950897 27.23319435 C-67.38691396 25.21209771 -67.40137378 23.1910145 -67.42292023 21.17001915 C-67.45185343 18.34442032 -67.45596023 15.51981433 -67.45410156 12.6940918 C-67.46848267 11.85396042 -67.48286377 11.01382904 -67.49768066 10.14823914 C-67.45719893 4.48079661 -67.45719893 4.48079661 -65.12005615 2.02302551 C-60.85898129 -0.03314092 -56.49721146 -1.53956535 -52 -3 C-51.1028125 -3.30421875 -50.205625 -3.6084375 -49.28125 -3.921875 C-32.98831863 -8.77314108 -15.48727549 -6.53645467 0 0 Z " fill="#000101" transform="translate(284,113)"/>
<path d="M0 0 C0.33 0 0.66 0 1 0 C1.00146656 0.98507538 1.00293312 1.97015076 1.00444412 2.9850769 C1.04111862 27.00826323 1.10067207 51.031311 1.18390274 75.05438232 C1.22362939 86.67199927 1.25605421 98.28954911 1.27099609 109.90722656 C1.2840457 120.03895846 1.31109454 130.17054229 1.35461307 140.30219078 C1.37715357 145.66160738 1.39291514 151.02084186 1.39188385 156.38031006 C1.39113284 161.43650754 1.40925914 166.49230357 1.44116783 171.54839706 C1.44960763 173.39287354 1.45145759 175.23739536 1.44580269 177.08188248 C1.38923006 198.39156729 5.52045359 215.43796933 21 231 C21.79470703 231.84691406 21.79470703 231.84691406 22.60546875 232.7109375 C31.97051225 241.81115972 46.61089395 246.32612479 59.3914032 246.26069641 C60.60071281 246.26643473 60.60071281 246.26643473 61.83445293 246.27228898 C64.51559825 246.28254542 67.19652647 246.27864086 69.87768555 246.2746582 C71.80848894 246.27900886 73.7392906 246.28419319 75.67008972 246.29014587 C80.9017465 246.30351184 86.13333092 246.30411701 91.36500144 246.30158257 C95.74084641 246.30051082 100.11667687 246.30540167 104.49251872 246.310188 C114.8230672 246.32127577 125.15357931 246.32172527 135.48413086 246.31567383 C146.11888387 246.30963961 156.75350439 246.32193275 167.38823479 246.3432439 C176.53672745 246.36089841 185.68517808 246.36685503 194.83368713 246.36360615 C200.28957428 246.36179864 205.745367 246.36437589 211.20123863 246.37832069 C216.33704895 246.39095644 221.47265398 246.38890083 226.60846138 246.37590981 C228.48486274 246.37355661 230.36127879 246.37623319 232.23766327 246.38453293 C245.5353592 246.43907297 258.15895768 245.89504407 270 239.125 C270.61488281 238.79886719 271.22976563 238.47273437 271.86328125 238.13671875 C275.88904312 235.92125665 278.81077852 233.26895202 282 230 C282.66 230 283.32 230 284 230 C284.27199219 229.41347656 284.54398437 228.82695312 284.82421875 228.22265625 C285.97719136 226.04311667 287.25442289 224.34090291 288.8125 222.4375 C297.04334357 211.67099313 300.14044265 199.14091274 300.15821838 185.79322815 C300.16562535 184.59594295 300.16562535 184.59594295 300.17318195 183.37447017 C300.18846982 180.71522493 300.1968938 178.05600367 300.20532227 175.39672852 C300.21490765 173.48438814 300.22491811 171.57204985 300.23532104 169.65971375 C300.26230464 164.47848872 300.28334957 159.29725466 300.30332303 154.11599851 C300.32522304 148.69742776 300.35259206 143.2788847 300.37937927 137.8603363 C300.42925192 127.60412046 300.47421086 117.3478892 300.51740164 107.09164327 C300.56682044 95.41332934 300.62172133 83.73504319 300.67708123 72.05675614 C300.79081794 48.03786336 300.89767503 24.01894392 301 0 C301.66 0 302.32 0 303 0 C303.04677466 25.34796862 303.08201562 50.69593074 303.10362434 76.04393387 C303.11392548 87.81413467 303.12796359 99.58430862 303.15087891 111.35449219 C303.17084837 121.61648793 303.18372488 131.87846422 303.18817699 142.14047885 C303.19077834 147.57128989 303.19686842 153.00204528 303.21146011 158.43283844 C303.22510023 163.55125452 303.22920969 168.66959237 303.22621536 173.7880249 C303.22676266 175.66000545 303.2307016 177.5319888 303.23841095 179.40395355 C303.30521824 196.47245842 302.0269178 209.62808449 292 224 C291.32324219 225.18335938 291.32324219 225.18335938 290.6328125 226.390625 C285.87246585 233.99806894 279.22948585 238.88670952 271.28515625 242.80859375 C268.88570907 243.91422074 268.88570907 243.91422074 267 246 C265.02910621 246.52557168 263.05548466 247.04419221 261.06640625 247.49609375 C258.84480017 247.99343563 258.84480017 247.99343563 256.1875 249.0625 C245.85828574 252.1005042 234.40690429 251.14877191 223.72802734 251.14526367 C221.89866569 251.14826055 220.06930467 251.15166429 218.23994446 251.15544128 C213.30006304 251.1642278 208.36019897 251.16661702 203.4203105 251.16725707 C200.32979244 251.16797017 197.23927872 251.17010931 194.14876175 251.17275429 C183.35568209 251.18198723 172.56261473 251.1860914 161.76953125 251.18530273 C151.72485605 251.18470123 141.68023443 251.19527258 131.63557279 251.2110464 C122.9932411 251.2241323 114.35092691 251.22948625 105.70858538 251.22884732 C100.5547011 251.22859282 95.40086457 251.2314185 90.2469902 251.24202538 C85.40256745 251.25172501 80.55823797 251.25177275 75.71381187 251.24450874 C73.94054337 251.2434655 72.167269 251.24581027 70.39401054 251.2518692 C53.03887768 251.3073111 38.32936445 248.44489819 24 238 C22.81537033 237.24547446 21.62821325 236.49488805 20.4375 235.75 C19.633125 235.1725 18.82875 234.595 18 234 C18 233.34 18 232.68 18 232 C17.34 232 16.68 232 16 232 C14.44839434 230.13746354 13.06005341 228.30218136 11.6875 226.3125 C11.0840979 225.44141602 11.0840979 225.44141602 10.46850586 224.55273438 C6.59150292 218.74231174 4.23264372 212.5993003 2 206 C1.65489946 205.28548833 1.30979893 204.57097666 0.9542408 203.83481312 C-0.29339719 200.12838961 -0.2698364 196.63178301 -0.24050903 192.76799011 C-0.24221788 191.94292396 -0.24392673 191.11785782 -0.24568737 190.26778966 C-0.24897938 187.50550491 -0.2379833 184.74346352 -0.22705078 181.98120117 C-0.22648661 180.00019334 -0.22680335 178.01918508 -0.22793579 176.03817749 C-0.22851005 170.66050931 -0.21674377 165.2829302 -0.20278788 159.90528274 C-0.19029282 154.28519246 -0.18911098 148.66510019 -0.18673706 143.04499817 C-0.1805187 132.4026468 -0.16410303 121.76033648 -0.14403808 111.11800319 C-0.1216902 99.00204127 -0.11068844 86.8860774 -0.10064721 74.7701 C-0.07973713 49.84671057 -0.0445542 24.92335758 0 0 Z " fill="#E6E7E7" transform="translate(101,65)"/>
<path d="M0 0 C3.27075883 -0.0580476 6.54138524 -0.09361165 9.8125 -0.125 C10.74126953 -0.14175781 11.67003906 -0.15851563 12.62695312 -0.17578125 C13.51962891 -0.18222656 14.41230469 -0.18867188 15.33203125 -0.1953125 C16.15421143 -0.20578613 16.9763916 -0.21625977 17.82348633 -0.22705078 C20 0 20 0 23 2 C23.36076355 3.91091919 23.36076355 3.91091919 23.34057617 6.26611328 C23.34034958 7.14687531 23.34012299 8.02763733 23.33988953 8.93508911 C23.32440567 9.88721283 23.30892181 10.83933655 23.29296875 11.8203125 C23.28872391 12.79410858 23.28447906 13.76790466 23.28010559 14.77120972 C23.26327786 17.88941805 23.22561811 21.00698617 23.1875 24.125 C23.17245846 26.23566777 23.15876914 28.34634564 23.14648438 30.45703125 C23.11336109 35.63824023 23.06312151 40.81907439 23 46 C17.17704332 46.10240906 13.11384788 45.67189268 7.5625 43.5625 C6.34691406 43.11003906 5.13132813 42.65757812 3.87890625 42.19140625 C1 41 1 41 0 40 C-0.08868299 37.04294679 -0.11520296 34.10934944 -0.09765625 31.15234375 C-0.0962413 30.2659169 -0.09482635 29.37949005 -0.09336853 28.46620178 C-0.08775215 25.62326746 -0.07519691 22.78041069 -0.0625 19.9375 C-0.05748711 18.01497509 -0.05292384 16.09244896 -0.04882812 14.16992188 C-0.03777741 9.44658451 -0.02050183 4.72330542 0 0 Z " fill="#FCF9FA" transform="translate(228,165)"/>
<path d="M0 0 C0 13.53 0 27.06 0 41 C-17.49 41 -34.98 41 -53 41 C-48.21165091 31.42330181 -48.21165091 31.42330181 -44 29 C-41.37854506 28.74369711 -39.00473833 28.6493057 -36.390625 28.70703125 C-35.66381531 28.71127609 -34.93700562 28.71552094 -34.18817139 28.71989441 C-31.87506496 28.7366387 -29.56284145 28.77428115 -27.25 28.8125 C-25.67839803 28.82755242 -24.10678236 28.84123985 -22.53515625 28.85351562 C-18.68949337 28.8839723 -14.84573066 28.94269607 -11 29 C-11 20.42 -11 11.84 -11 3 C-10.01 3 -9.02 3 -8 3 C-8 2.34 -8 1.68 -8 1 C-5.10765685 0.17361624 -3.11257569 0 0 0 Z " fill="#000102" transform="translate(331,97)"/>
<path d="M0 0 C0.33 0 0.66 0 1 0 C1.00146656 0.98507538 1.00293312 1.97015076 1.00444412 2.9850769 C1.04111862 27.00826323 1.10067207 51.031311 1.18390274 75.05438232 C1.22362939 86.67199927 1.25605421 98.28954911 1.27099609 109.90722656 C1.2840457 120.03895846 1.31109454 130.17054229 1.35461307 140.30219078 C1.37715357 145.66160738 1.39291514 151.02084186 1.39188385 156.38031006 C1.39113284 161.43650754 1.40925914 166.49230357 1.44116783 171.54839706 C1.44960763 173.39287354 1.45145759 175.23739536 1.44580269 177.08188248 C1.38923006 198.39156729 5.52045359 215.43796933 21 231 C21.79470703 231.84691406 21.79470703 231.84691406 22.60546875 232.7109375 C31.97051225 241.81115972 46.61089395 246.32612479 59.3914032 246.26069641 C60.60071281 246.26643473 60.60071281 246.26643473 61.83445293 246.27228898 C64.51559825 246.28254542 67.19652647 246.27864086 69.87768555 246.2746582 C71.80848894 246.27900886 73.7392906 246.28419319 75.67008972 246.29014587 C80.9017465 246.30351184 86.13333092 246.30411701 91.36500144 246.30158257 C95.74084641 246.30051082 100.11667687 246.30540167 104.49251872 246.310188 C114.8230672 246.32127577 125.15357931 246.32172527 135.48413086 246.31567383 C146.11888387 246.30963961 156.75350439 246.32193275 167.38823479 246.3432439 C176.53672745 246.36089841 185.68517808 246.36685503 194.83368713 246.36360615 C200.28957428 246.36179864 205.745367 246.36437589 211.20123863 246.37832069 C216.33704895 246.39095644 221.47265398 246.38890083 226.60846138 246.37590981 C228.48486274 246.37355661 230.36127879 246.37623319 232.23766327 246.38453293 C244.91486254 246.43652803 255.90663575 245.1119925 268 241 C262.68058138 247.33962073 253.61527929 248.43298277 245.70335841 249.23190928 C239.82752544 249.62399082 233.94876293 249.62794838 228.06225586 249.64111328 C226.11379966 249.65971802 224.16535837 249.67994274 222.2169342 249.7016449 C216.97325995 249.75471224 211.72973842 249.78311663 206.485852 249.80509424 C202.08985642 249.82554647 197.693974 249.85762717 193.29804808 249.88940895 C182.9213231 249.96396797 172.54463258 250.01769885 162.16772461 250.05859375 C151.49845287 250.10103777 140.8298954 250.18027436 130.16099256 250.27732861 C120.96313624 250.35960711 111.76533008 250.41816996 102.56719309 250.45817935 C97.08993881 250.48228146 91.61311847 250.51524444 86.13609123 250.57144547 C80.98531998 250.62333071 75.83523409 250.64538834 70.68420982 250.64541817 C68.80536031 250.65026177 66.92650213 250.66524536 65.04783249 250.69169044 C49.02981091 250.90672228 37.12420591 247.67910186 24 238 C22.81567659 237.24499383 21.62852449 236.4943903 20.4375 235.75 C19.633125 235.1725 18.82875 234.595 18 234 C18 233.34 18 232.68 18 232 C17.34 232 16.68 232 16 232 C14.44839434 230.13746354 13.06005341 228.30218136 11.6875 226.3125 C11.0840979 225.44141602 11.0840979 225.44141602 10.46850586 224.55273438 C6.59150292 218.74231174 4.23264372 212.5993003 2 206 C1.65489946 205.28548833 1.30979893 204.57097666 0.9542408 203.83481312 C-0.29339719 200.12838961 -0.2698364 196.63178301 -0.24050903 192.76799011 C-0.24221788 191.94292396 -0.24392673 191.11785782 -0.24568737 190.26778966 C-0.24897938 187.50550491 -0.2379833 184.74346352 -0.22705078 181.98120117 C-0.22648661 180.00019334 -0.22680335 178.01918508 -0.22793579 176.03817749 C-0.22851005 170.66050931 -0.21674377 165.2829302 -0.20278788 159.90528274 C-0.19029282 154.28519246 -0.18911098 148.66510019 -0.18673706 143.04499817 C-0.1805187 132.4026468 -0.16410303 121.76033648 -0.14403808 111.11800319 C-0.1216902 99.00204127 -0.11068844 86.8860774 -0.10064721 74.7701 C-0.07973713 49.84671057 -0.0445542 24.92335758 0 0 Z " fill="#D2D3D4" transform="translate(101,65)"/>
<path d="M0 0 C0.04942899 4.92959122 0.08573318 9.85903825 0.10986328 14.78881836 C0.11992237 16.46592725 0.13357122 18.14301861 0.15087891 19.82006836 C0.17513152 22.23035002 0.1864839 24.64039986 0.1953125 27.05078125 C0.20563507 27.80087967 0.21595764 28.55097809 0.22659302 29.32380676 C0.227408 33.10300779 0.15057067 34.77414399 -2 38 C-4.06298828 38.34057617 -4.06298828 38.34057617 -6.5703125 38.29296875 C-7.37742676 38.28547607 -8.18454102 38.2779834 -9.01611328 38.27026367 C-10.0420459 38.24295166 -11.06797852 38.21563965 -12.125 38.1875 C-17.013125 38.0946875 -17.013125 38.0946875 -22 38 C-22 27.11 -22 16.22 -22 5 C-13.70696745 1.68278698 -8.58375951 -0.16830901 0 0 Z " fill="#FCFCFC" transform="translate(250,122)"/>
<path d="M0 0 C17.82 0 35.64 0 54 0 C54 13.2 54 26.4 54 40 C53.67 40 53.34 40 53 40 C53 27.13 53 14.26 53 1 C49.7 2.65 46.4 4.3 43 6 C39.83409947 6.40474644 37.27195913 6.59782488 34.1484375 6.48828125 C33.36352936 6.48120651 32.57862122 6.47413177 31.76992798 6.46684265 C29.30391179 6.43922571 26.84030993 6.37656228 24.375 6.3125 C22.6862311 6.28737433 20.99742601 6.26456873 19.30859375 6.24414062 C15.20482268 6.18950835 11.1028181 6.10347787 7 6 C7 9.3 7 12.6 7 16 C-8.41006734 24.72108207 -24.7406231 27.56473868 -42 23 C-42.99 22.67 -43.98 22.34 -45 22 C-45.33 21.01 -45.66 20.02 -46 19 C-45.01 18.67 -44.02 18.34 -43 18 C-43 17.34 -43 16.68 -43 16 C-41.28876953 16.48339844 -41.28876953 16.48339844 -39.54296875 16.9765625 C-35.0958883 18.08124505 -30.88295954 18.38395583 -26.3125 18.375 C-25.14436768 18.3747583 -25.14436768 18.3747583 -23.95263672 18.37451172 C-15.24778409 18.20473939 -7.79420684 15.89710342 0 12 C0 8.04 0 4.08 0 0 Z " fill="#3F556F" transform="translate(278,192)"/>
<path d="M0 0 C37.62 0 75.24 0 114 0 C114 1.65 114 3.3 114 5 C76.38 5 38.76 5 0 5 C0.33 4.34 0.66 3.68 1 3 C0.67 2.01 0.34 1.02 0 0 Z " fill="#F36074" transform="translate(258,160)"/>
<path d="M0 0 C5.94 0 11.88 0 18 0 C18 0.33 18 0.66 18 1 C15.36 1 12.72 1 10 1 C10.00785522 2.57467041 10.00785522 2.57467041 10.01586914 4.18115234 C10.03394239 8.06867625 10.04544054 11.95619644 10.05493164 15.84375 C10.05996653 17.52767562 10.06679481 19.21159686 10.07543945 20.89550781 C10.08754196 23.31316203 10.09323668 25.73075856 10.09765625 28.1484375 C10.10281754 28.9036972 10.10797882 29.65895691 10.11329651 30.43710327 C10.11387171 35.77225659 10.11387171 35.77225659 9 38 C7.515 38.495 7.515 38.495 6 39 C5.67 41.31 5.34 43.62 5 46 C4.34 45.67 3.68 45.34 3 45 C1.4804236 44.84876169 -0.04472502 44.75118307 -1.5703125 44.68359375 C-2.91416016 44.62075195 -2.91416016 44.62075195 -4.28515625 44.55664062 C-5.22230469 44.51732422 -6.15945312 44.47800781 -7.125 44.4375 C-8.54232422 44.37272461 -8.54232422 44.37272461 -9.98828125 44.30664062 C-12.32537092 44.20040928 -14.6625683 44.09836824 -17 44 C-17 42.35 -17 40.7 -17 39 C-10.4 39 -3.8 39 3 39 C4.22318866 35.33043403 4.23116124 31.87678997 4.31640625 28.05078125 C4.33718735 27.27816452 4.35796844 26.50554779 4.37937927 25.70951843 C4.44471038 23.2439352 4.50368315 20.77824639 4.5625 18.3125 C4.60570087 16.63996309 4.64931566 14.96743681 4.69335938 13.29492188 C4.8003749 9.1967225 4.90168857 5.09841704 5 1 C3.35 1 1.7 1 0 1 C0 0.67 0 0.34 0 0 Z " fill="#E74D6A" transform="translate(245,121)"/>
<path d="M0 0 C0.33 0 0.66 0 1 0 C1 36.63 1 73.26 1 111 C0.67 111 0.34 111 0 111 C0 95.16 0 79.32 0 63 C-13.86 63 -27.72 63 -42 63 C-42 61.35 -42 59.7 -42 58 C-28.14 58 -14.28 58 0 58 C0 38.86 0 19.72 0 0 Z " fill="#9D7C92" transform="translate(174,102)"/>
<path d="M0 0 C1.32 0 2.64 0 4 0 C4 14.52 4 29.04 4 44 C2.68 44 1.36 44 0 44 C0 29.48 0 14.96 0 0 Z " fill="#F44A6C" transform="translate(251,167)"/>
<path d="M0 0 C13.53 0 27.06 0 41 0 C41 1.32 41 2.64 41 4 C27.47 4 13.94 4 0 4 C0 2.68 0 1.36 0 0 Z " fill="#EE3047" transform="translate(132,160)"/>
<path d="M0 0 C-1.03898437 0.47308594 -2.07796875 0.94617188 -3.1484375 1.43359375 C-18.37508433 8.56885639 -30.14921628 18.21847353 -36.93359375 34.00390625 C-38.78989758 39.21923607 -39.93903208 44.57439984 -41 50 C-41.66 50 -42.32 50 -43 50 C-44.43932725 37.62178563 -36.1438651 25.77779872 -29.0078125 16.375 C-23.30161596 9.51920343 -9.69400698 -3.59037295 0 0 Z " fill="#EFF0F0" transform="translate(144,15)"/>
<path d="M0 0 C-6.06967905 3.03483952 -14.41169576 2.09279302 -21 2 C-21 5.96 -21 9.92 -21 14 C-22.98 14 -24.96 14 -27 14 C-27 9.71 -27 5.42 -27 1 C-23.25062604 0.63764038 -19.50077336 0.28479383 -15.75 -0.0625 C-14.68652344 -0.16626953 -13.62304688 -0.27003906 -12.52734375 -0.37695312 C-11.50253906 -0.47041016 -10.47773438 -0.56386719 -9.421875 -0.66015625 C-8.47924805 -0.74918213 -7.53662109 -0.83820801 -6.56542969 -0.92993164 C-4.13450182 -0.99632642 -2.30681445 -0.7238461 0 0 Z " fill="#DBB4BF" transform="translate(277,258)"/>
<path d="M0 0 C0.33 0 0.66 0 1 0 C1.21914062 1.02738281 1.43828125 2.05476563 1.6640625 3.11328125 C4.32358005 14.97418413 8.01301725 24.56081559 16.77734375 33.34375 C17.18082031 33.8903125 17.58429688 34.436875 18 35 C17.67 35.99 17.34 36.98 17 38 C16.34 38 15.68 38 15 38 C13.44839434 36.13746354 12.06005341 34.30218136 10.6875 32.3125 C10.28523193 31.73177734 9.88296387 31.15105469 9.46850586 30.55273438 C5.59150292 24.74231174 3.23264372 18.5993003 1 12 C0.63132812 11.11828125 0.26265625 10.2365625 -0.1171875 9.328125 C-1.21465965 6.43390642 -1.20927759 4.06940462 -1 1 C-0.67 0.67 -0.34 0.34 0 0 Z " fill="#E1E2E2" transform="translate(102,259)"/>
<path d="M0 0 C1.32 0 2.64 0 4 0 C4 6.93 4 13.86 4 21 C2.68 21 1.36 21 0 21 C0 14.07 0 7.14 0 0 Z " fill="#F03F68" transform="translate(251,51)"/>
<path d="M0 0 C0.33 0.66 0.66 1.32 1 2 C-1.55184491 8.49473309 -4.58719669 14.48933058 -10 19 C-10.62003906 19.56203125 -11.24007813 20.1240625 -11.87890625 20.703125 C-15.70689813 24.16066606 -19.48542806 27.48023892 -24 30 C-24.99 29.67 -25.98 29.34 -27 29 C-25.96939453 28.29423828 -25.96939453 28.29423828 -24.91796875 27.57421875 C-24.01691406 26.95160156 -23.11585938 26.32898438 -22.1875 25.6875 C-20.84751953 24.76517578 -20.84751953 24.76517578 -19.48046875 23.82421875 C-17.03391727 22.12668058 -17.03391727 22.12668058 -15.30078125 20.26953125 C-14 19 -14 19 -12 19 C-11.72929687 18.41863281 -11.45859375 17.83726562 -11.1796875 17.23828125 C-10.00254646 15.00483153 -8.68316328 13.16951599 -7.125 11.1875 C-4.38362814 7.60624706 -2.14666315 3.96307043 0 0 Z " fill="#D6D7D7" transform="translate(397,276)"/>
<path d="M0 0 C1.9375 0.6875 1.9375 0.6875 4 2 C4.875 4.4375 4.875 4.4375 5 7 C4.01 8.485 4.01 8.485 3 10 C-0.625 10.1875 -0.625 10.1875 -4 10 C-4 7.69 -4 5.38 -4 3 C-2.68 2.67 -1.36 2.34 0 2 C0 1.34 0 0.68 0 0 Z " fill="#EE0F3F" transform="translate(254,157)"/>
<path d="M0 0 C0.33 0 0.66 0 1 0 C1.81977791 7.27173366 0.73899495 11.46775631 -3.58984375 17.3828125 C-4.28787109 18.18332031 -4.28787109 18.18332031 -5 19 C-5.33 19 -5.66 19 -6 19 C-6 15.37 -6 11.74 -6 8 C-4.68 7.34 -3.36 6.68 -2 6 C-0.70768358 2.95800528 -0.70768358 2.95800528 0 0 Z " fill="#3D5268" transform="translate(284,117)"/>
<path d="M0 0 C0.66 0.33 1.32 0.66 2 1 C2.33976077 9.32413884 -0.00843697 16.73410793 -4 24 C-4.66 24.33 -5.32 24.66 -6 25 C-3.30623819 13.90170132 -3.30623819 13.90170132 -1.875 9.6875 C-0.83207085 6.48421761 -0.40063604 3.3386337 0 0 Z " fill="#E8E8E8" transform="translate(401,259)"/>
<path d="M0 0 C1.65 0 3.3 0 5 0 C5 3.96 5 7.92 5 12 C3.68 12 2.36 12 1 12 C0.67 8.04 0.34 4.08 0 0 Z " fill="#E74061" transform="translate(250,259)"/>
<path d="M0 0 C0 3.96 0 7.92 0 12 C-0.33 12 -0.66 12 -1 12 C-1.33 9.69 -1.66 7.38 -2 5 C-2.66 6.65 -3.32 8.3 -4 10 C-6.31 10.33 -8.62 10.66 -11 11 C-10.01 10.67 -9.02 10.34 -8 10 C-6.93283296 8.20067421 -6.93283296 8.20067421 -6 6 C-2.65116279 0 -2.65116279 0 0 0 Z " fill="#202D40" transform="translate(286,114)"/>
<path d="M0 0 C5.00424042 5.36168616 8.25 12.22811027 8.25 19.625 C8.1675 20.73875 8.085 21.8525 8 23 C7.34 22.67 6.68 22.34 6 22 C5.24661959 19.56034236 4.59354456 17.16601226 4 14.6875 C2.99712391 10.57022356 1.94012413 6.7849743 0 3 C0 2.01 0 1.02 0 0 Z " fill="#ECEDED" transform="translate(395,42)"/>
<path d="M0 0 C1.65 0.33 3.3 0.66 5 1 C4.67 2.65 4.34 4.3 4 6 C2.35 5.67 0.7 5.34 -1 5 C-0.67 3.35 -0.34 1.7 0 0 Z " fill="#42213A" transform="translate(251,159)"/>
<path d="M0 0 C0.33 0 0.66 0 1 0 C1.375 3.1875 1.375 3.1875 1 7 C-0.81188028 9.1403498 -2.65801167 10.38988302 -5 12 C-5.33 10.68 -5.66 9.36 -6 8 C-5.38125 7.79375 -4.7625 7.5875 -4.125 7.375 C-1.15346355 5.45224112 -0.86975341 3.33405473 0 0 Z " fill="#34475F" transform="translate(284,117)"/>
<path d="M0 0 C0.33 0.66 0.66 1.32 1 2 C-0.21484375 4.8203125 -0.21484375 4.8203125 -1.9375 8.125 C-2.50339844 9.22070312 -3.06929688 10.31640625 -3.65234375 11.4453125 C-4.09707031 12.28835938 -4.54179687 13.13140625 -5 14 C-5.66 13.01 -6.32 12.02 -7 11 C-6.20890398 9.72881136 -5.41709922 8.45806377 -4.625 7.1875 C-4.18414062 6.47980469 -3.74328125 5.77210938 -3.2890625 5.04296875 C-2.21811524 3.34567961 -1.11323761 1.66985642 0 0 Z " fill="#DEDFDF" transform="translate(397,276)"/>
<path d="M0 0 C2.475 0.99 2.475 0.99 5 2 C5 2.66 5 3.32 5 4 C1.53846154 7 1.53846154 7 -1 7 C-0.67 4.69 -0.34 2.38 0 0 Z " fill="#223146" transform="translate(230,206)"/>
<path d="M0 0 C0.66 0 1.32 0 2 0 C0.61811547 3.21043882 -0.92421903 5.04936365 -3.625 7.25 C-4.57246094 8.03117187 -4.57246094 8.03117187 -5.5390625 8.828125 C-6.02117187 9.21484375 -6.50328125 9.6015625 -7 10 C-5.15014033 6.06048404 -2.92434659 3.21678125 0 0 Z " fill="#EFF0F0" transform="translate(390,290)"/>
</svg>
