<svg width="247" height="226" viewBox="0 0 247 226" fill="none" xmlns="http://www.w3.org/2000/svg">
<path d="M133.3 52.8342C133.415 54.7681 132.918 56.6888 131.879 58.3183C130.84 59.9477 129.315 61.2013 127.523 61.8976C126.484 62.3043 125.378 62.5116 124.264 62.5086C122.809 62.5115 121.375 62.1581 120.086 61.4787C118.615 60.7077 117.381 59.5436 116.521 58.1137C115.661 56.6837 115.206 55.0427 115.207 53.3698C115.207 52.12 115.461 50.8836 115.954 49.7369C116.447 48.5903 117.167 47.5577 118.071 46.7031C118.974 45.8485 120.042 45.19 121.208 44.7683C122.374 44.3467 123.613 44.1708 124.849 44.2515C127.049 44.4053 129.119 45.3604 130.674 46.9392C132.228 48.518 133.162 50.613 133.3 52.8342Z" fill="#2D918C"/>
<path d="M102.617 84.5801C102.702 85.9908 103.001 87.38 103.502 88.6998C102.919 87.4059 102.617 86.0013 102.617 84.5801Z" fill="#03273C"/>
<path d="M117.013 75.3903C115.498 74.7699 113.884 74.4325 112.25 74.3947H112.631C114.148 74.3854 115.647 74.7259 117.013 75.3903Z" fill="#03273C"/>
<path d="M155.699 93.3783C152.42 102.057 141.784 113.489 125.563 123.644C125.194 123.872 124.77 123.993 124.338 123.995C123.861 123.994 123.397 123.843 123.011 123.562L115.669 118.351C115.599 118.302 115.541 118.237 115.502 118.161C115.462 118.085 115.441 118 115.441 117.915C115.441 117.829 115.462 117.744 115.502 117.668C115.541 117.592 115.599 117.527 115.669 117.479C118.874 115.24 133.49 104.913 137.919 99.4686C138.471 98.782 139.049 98.1503 139.641 97.5255C141.064 96.0304 142.325 94.387 143.404 92.623C144.56 90.7349 145.295 89.5333 145.683 87.8785L145.785 87.3704C146.006 86.5874 146.134 85.7807 146.166 84.9673C146.224 83.4181 145.935 81.8756 145.32 80.4549C144.705 79.0342 143.78 77.7719 142.614 76.7622C140.732 75.1038 138.309 74.2063 135.81 74.2424H135.511C133.599 74.3271 131.749 74.9555 130.176 76.055C129.767 76.3351 129.337 76.583 128.89 76.7966L127.726 77.3253C126.158 78.032 124.41 78.2311 122.725 77.8951H122.691C121.317 77.5426 120.007 76.97 118.813 76.1992C118.228 75.8944 117.626 75.6261 117.009 75.3959C115.495 74.7754 113.881 74.4381 112.246 74.4003C110.459 74.4506 108.717 74.9737 107.193 75.9172C105.669 76.8607 104.418 78.1916 103.564 79.7765C103.241 80.4121 102.996 81.0854 102.836 81.7814C102.635 82.6982 102.559 83.6384 102.611 84.5759C102.697 85.9859 102.993 87.3748 103.489 88.6956C103.741 89.3655 104.034 90.0191 104.367 90.6525C106.109 93.9482 108.64 96.832 110.94 99.6952C111.238 100.179 111.696 100.541 112.233 100.718C112.57 100.762 112.912 100.707 113.219 100.56C114.347 100.032 115.436 99.4245 116.479 98.7408C118.187 97.7383 120.561 96.0561 121.766 95.1773C122.155 94.8949 122.611 94.7193 123.088 94.6676C123.565 94.6159 124.047 94.6897 124.487 94.882C124.666 94.9602 124.835 95.0593 124.991 95.1773L130.169 98.9399L110.865 114.045C103.429 108.795 97.4318 101.73 93.4321 93.5088C91.9203 90.4802 91.1328 87.1362 91.1328 83.7451C91.1328 80.354 91.9203 77.01 93.4321 73.9814C94.6754 71.5165 96.4243 69.3468 98.5626 67.6165C99.489 66.8705 100.482 66.2131 101.529 65.6528C104.241 64.1968 107.233 63.3512 110.3 63.1741C113.859 62.9838 117.408 63.7141 120.609 65.2958C122.042 66.0171 123.65 66.3101 125.243 66.1403L125.658 66.0785C127.216 65.8382 128.019 65.3919 129.972 64.7053C129.972 64.7053 130.727 64.4512 131.809 64.1628C132.544 63.9637 133.422 63.744 134.313 63.5723C137.095 63.1045 139.945 63.2687 142.655 64.053C146.391 64.9797 149.793 66.9473 152.474 69.7313C152.962 70.2503 153.417 70.8008 153.835 71.3792C155.778 74.0478 157.026 77.1669 157.462 80.4493C158.36 86.3268 156.604 90.982 155.699 93.3783Z" fill="#2D918C"/>
<path d="M128.771 133.058C129.615 133.058 130.452 133.058 131.275 132.99C128.278 133.492 125.242 133.711 122.205 133.642C109.734 133.327 97.8595 128.188 89.0384 119.286C80.2173 110.385 75.124 98.4035 74.8119 85.8193C74.6718 79.2109 75.8584 72.6423 78.3002 66.5088C80.7421 60.3754 84.3887 54.804 89.0206 50.1301C93.6525 45.4562 99.1738 41.7765 105.252 39.3125C111.33 36.8484 117.84 35.6511 124.389 35.7925C126.699 35.8384 129.003 36.0565 131.282 36.4448C130.452 36.4036 129.615 36.3829 128.771 36.3829C116.067 36.3848 103.883 41.4781 94.9003 50.5428C85.9171 59.6074 80.8696 71.9013 80.8678 84.7207C80.8696 97.5401 85.9171 109.834 94.9003 118.899C103.883 127.963 116.067 133.057 128.771 133.058Z" fill="#66480C"/>
<path d="M134.268 79.8669C133.903 79.498 133.47 79.2053 132.993 79.0056C132.516 78.8059 132.005 78.7031 131.488 78.7031C130.972 78.7031 130.461 78.8059 129.984 79.0056C129.507 79.2053 129.074 79.498 128.709 79.8669L124.517 84.0965C125.052 84.335 125.512 84.7174 125.845 85.2018C126.179 85.6863 126.374 86.2541 126.409 86.843V89.5208C126.409 91.1549 124.932 92.432 122.578 93.0225C123.193 93.4003 123.899 93.5999 124.619 93.5993C125.137 93.6007 125.65 93.4989 126.129 93.2998C126.608 93.1007 127.043 92.8081 127.409 92.4389L130.811 89.0058L134.214 85.5384C134.593 85.1735 134.896 84.7356 135.104 84.2505C135.313 83.7654 135.423 83.243 135.428 82.7143C135.433 82.1855 135.333 81.6611 135.134 81.172C134.935 80.6829 134.64 80.2392 134.268 79.8669ZM133.649 84.8518L130.526 88.0033L126.212 83.6365L129.328 80.4918C129.902 79.9152 130.679 79.5916 131.488 79.5916C132.298 79.5916 133.075 79.9152 133.649 80.4918C134.223 81.0681 134.547 81.8504 134.551 82.6675C134.555 83.4846 134.238 84.27 133.669 84.8518H133.649Z" fill="#2D918C"/>
<path d="M119.473 89.7909C120.191 89.7937 120.908 89.734 121.616 89.6123L116.322 84.2773C114.547 84.7786 113.41 85.7124 113.41 86.8316C113.41 88.5206 116.016 89.7909 119.473 89.7909Z" fill="#2D918C"/>
<path d="M117.336 84.0196L122.63 89.3615C124.406 88.8534 125.549 87.9196 125.549 86.8072C125.549 85.1182 122.943 83.8479 119.473 83.8479C118.757 83.8432 118.042 83.9006 117.336 84.0196Z" fill="#2D918C"/>
<path d="M125.549 89.5206V88.834C124.393 89.9875 122.147 90.7222 119.473 90.7222C116.799 90.7222 114.56 89.9875 113.41 88.834V89.5206C113.41 91.2097 116.016 92.4799 119.473 92.4799C122.93 92.4799 125.549 91.1822 125.549 89.5206Z" fill="#2D918C"/>
<path d="M207.491 84.591C207.369 83.2659 205.45 83.0256 204.423 82.6823C200.063 81.1854 195.684 79.755 191.283 78.3909C187.262 77.1275 183.227 75.9122 179.171 74.7175C179.083 74.7175 178.205 74.4841 177.634 74.3124C175.91 65.0134 171.847 56.3174 165.835 49.0587L169.196 43.2293L170.925 40.1533L173.708 35.1753C173.771 35.068 173.808 34.947 173.816 34.8224C173.824 34.6978 173.802 34.5731 173.753 34.4585C173.704 34.3439 173.628 34.2427 173.533 34.1632C173.438 34.0837 173.325 34.0282 173.204 34.0012C172.884 33.9394 172.524 34.1797 172.251 34.3033L171.224 34.7702C166.699 36.7889 162.249 38.8899 157.826 41.1214C150.789 35.4115 142.459 31.5498 133.582 29.8815C133.419 29.3048 133.208 28.4259 133.18 28.3298C132.017 24.3062 130.833 20.2964 129.601 16.3071C128.24 11.8029 126.802 7.31933 125.287 2.85632C125.083 2.23837 124.879 1.62041 124.668 1.00933C124.588 0.761047 124.445 0.537823 124.254 0.361077C124.064 0.184331 123.831 0.0599952 123.579 0H123.525H123.45H123.28C122.958 0.00549212 122.646 0.113276 122.388 0.308043C122.13 0.502809 121.94 0.774631 121.844 1.08484L117.517 14.6249L116.986 16.3483L112.835 29.9502C104.159 31.6069 96.01 35.3625 89.0878 40.8948C85.7536 39.2332 82.4127 37.6059 79.0377 36.0405C77.7245 35.4294 76.3976 34.8251 75.0707 34.2347L73.6146 33.5824C73.4748 33.5173 73.3197 33.4931 73.1669 33.5126C73.0142 33.532 72.8699 33.5942 72.7504 33.6922C72.7244 33.7115 72.7015 33.7347 72.6824 33.7609L72.6279 33.8364C72.5955 33.8837 72.5681 33.9344 72.5463 33.9875C72.5395 34.0192 72.5395 34.0519 72.5463 34.0836V34.1591C72.5427 34.198 72.5427 34.237 72.5463 34.2758C72.5363 34.3464 72.5363 34.4181 72.5463 34.4887V34.5505L75.445 39.7139L77.112 42.6938L80.7864 49.0656C74.7626 56.3045 70.6834 64.9839 68.9399 74.2712C68.3752 74.4429 67.3681 74.6969 67.266 74.7175C63.2514 75.8985 59.2527 77.1115 55.2698 78.3566C50.8424 79.7298 46.4241 81.1717 42.0149 82.6823L40.0552 83.3689C39.7394 83.4706 39.469 83.681 39.2911 83.9633C39.1133 84.2457 39.0394 84.582 39.0822 84.9138C39.0957 85.0222 39.1231 85.1284 39.1638 85.2296C39.2814 85.4825 39.4548 85.7048 39.6706 85.8798C39.8864 86.0547 40.139 86.1775 40.409 86.2389L53.6436 90.5509L55.2698 91.0521L68.974 95.316C70.6985 104.483 74.7048 113.058 80.6163 120.233L77.2141 126.33L72.8253 134.515L72.7572 134.632C72.7265 134.758 72.7266 134.89 72.7577 135.016C72.7887 135.143 72.8497 135.26 72.9354 135.357C73.0211 135.454 73.1289 135.529 73.2496 135.575C73.3702 135.621 73.5002 135.636 73.6282 135.62H73.6894L75.3429 134.851L78.9288 133.135C82.1813 131.546 85.4111 129.917 88.6183 128.246C95.6292 133.973 103.938 137.856 112.801 139.548L116.972 153.211L117.483 154.873L118.585 158.306C118.639 158.471 118.694 158.636 118.741 158.8L119.783 162.028C119.851 162.24 119.912 162.46 119.987 162.673C120.062 162.886 120.116 163.092 120.191 163.305C120.266 163.518 120.313 163.682 120.368 163.875C120.422 164.067 120.443 164.108 120.483 164.225L120.667 164.808C120.728 164.994 120.79 165.179 120.844 165.358C121.055 166.003 121.239 166.587 121.395 167.074C121.436 167.212 121.484 167.342 121.518 167.466L121.579 167.644L121.722 168.084C121.735 168.122 121.747 168.161 121.756 168.2C121.779 168.263 121.8 168.327 121.817 168.393C121.817 168.447 121.817 168.489 121.858 168.516C121.969 168.792 122.156 169.03 122.397 169.202C122.639 169.374 122.924 169.472 123.219 169.484H123.416H123.464H123.518C123.718 169.439 123.907 169.351 124.071 169.227C124.235 169.102 124.371 168.944 124.471 168.763C124.723 168.029 124.968 167.294 125.212 166.552C126.709 162.103 128.143 157.64 129.513 153.163C130.747 149.144 131.944 145.114 133.106 141.072C133.106 140.983 133.344 140.104 133.507 139.527C142.814 137.777 151.509 133.612 158.738 127.443L164.236 130.457L167.134 131.995L172.721 134.954C172.84 134.956 172.958 134.93 173.066 134.88C173.175 134.829 173.27 134.754 173.346 134.661C173.422 134.568 173.476 134.46 173.504 134.343C173.533 134.226 173.535 134.104 173.51 133.986C173.231 133.409 172.959 132.833 172.68 132.249L172.571 132.016L171.142 129.07V129.029L170.938 128.617C169.455 125.596 167.917 122.602 166.359 119.629C172.018 112.558 175.856 104.185 177.532 95.2542L191.208 90.9972L192.726 90.5303L197.489 88.9923L205.035 86.5273C205.954 86.2252 207.349 86.0467 207.451 84.8451C207.471 84.7617 207.485 84.6767 207.491 84.591ZM131.282 132.984C128.285 133.486 125.249 133.705 122.212 133.636C109.741 133.321 97.8666 128.182 89.0455 119.28C80.2244 110.379 75.131 98.3974 74.819 85.8132C74.6788 79.2048 75.8654 72.6362 78.3073 66.5028C80.7492 60.3693 84.3958 54.7979 89.0277 50.124C93.6595 45.4501 99.1808 41.7704 105.259 39.3064C111.337 36.8424 117.847 35.645 124.396 35.7864C126.706 35.8324 129.01 36.0504 131.289 36.4387C142.41 38.3479 152.528 44.0958 159.914 52.6999C167.3 61.3039 171.495 72.2297 171.782 83.6092C172.028 95.3728 168.072 106.833 160.638 115.898C153.204 124.963 142.787 131.027 131.289 132.984H131.282Z" fill="url(#paint0_radial_6369_149059)"/>
<path d="M0 216.007C1.09108 215.64 1.32252 214.639 1.32252 212.237V197.36C1.32252 194.958 1.09108 193.957 0 193.59V193.123H6.14971V193.59C5.05864 193.957 4.8272 194.958 4.8272 197.36V203.798H16.3331V197.36C16.3331 194.958 16.1016 193.957 15.0106 193.59V193.123H21.1603V193.59C20.0692 193.957 19.8377 194.958 19.8377 197.36V212.244C19.8377 214.646 20.0692 215.647 21.1603 216.014V216.481H15.0106V216.014C16.1016 215.647 16.3331 214.646 16.3331 212.244V204.405H4.8272V212.244C4.8272 214.646 5.05864 215.647 6.14971 216.014V216.481H0V216.007Z" fill="#EBE7DF"/>
<path d="M23.543 208.762C23.543 203.091 27.9403 199.555 32.2385 199.555C36.702 199.555 39.0825 202.657 39.0825 205.559H26.5517C26.5186 205.926 26.4856 206.26 26.4856 206.627C26.4856 210.997 29.1306 214.099 33.3296 214.099C34.4157 214.107 35.4905 213.875 36.4785 213.42C37.4665 212.965 38.344 212.297 39.0495 211.464L39.347 211.797C37.8261 214.132 35.2142 216.801 31.3789 216.801C27.7188 216.801 23.543 214.166 23.543 208.762ZM35.7432 205.092C35.3134 202.357 33.4949 200.188 31.2136 200.155C28.4032 200.122 26.9815 202.49 26.5848 205.092H35.7432Z" fill="#EBE7DF"/>
<path d="M52.0773 215.133V209.629C51.1516 213.499 48.771 216.801 45.3325 216.801C42.8858 216.801 40.8359 215.233 40.8359 212.431C40.8359 208.995 44.3076 207.661 48.4074 206.493L52.0773 205.426C52.0112 202.123 50.2258 200.856 47.7791 200.856C45.9276 200.856 44.1092 201.656 42.423 203.691L42.0923 203.391C43.9438 201.089 46.4897 199.555 49.4984 199.555C53.499 199.555 55.3836 201.723 55.3836 205.793V212.238C55.3836 214.639 55.6151 215.64 56.7062 216.007V216.474H53.3998C52.5402 216.467 52.0773 216 52.0773 215.133ZM46.9857 214.366C50.2258 214.366 52.0443 209.762 52.0773 206.76V205.899L48.5396 206.934C46.9856 207.367 43.9108 208.501 43.9108 211.27C43.9207 213.465 45.4648 214.366 46.9857 214.366Z" fill="#EBE7DF"/>
<path d="M58.3594 216.004C59.4505 215.637 59.6819 214.637 59.6819 212.235V194.555C59.6819 192.587 59.1859 192.253 58.3594 191.886V191.419L62.7237 189.484L63.0543 189.751V212.242C63.0543 214.643 63.2857 215.644 64.3768 216.011V216.478H58.3594V216.004Z" fill="#EBE7DF"/>
<path d="M68.2756 211.77V200.328H66.1562V199.794L71.1157 195.391H71.6447V199.794H76.7694L76.6372 200.328H71.6447V211.803C71.6447 213.871 72.4052 214.772 73.8599 214.772C74.5873 214.772 75.7114 214.472 76.8025 213.104L77.1331 213.438C75.3808 215.472 73.6946 216.807 71.7108 216.807C69.4659 216.807 68.2756 215.372 68.2756 211.77Z" fill="#EBE7DF"/>
<path d="M77.9258 216.004C79.0169 215.637 79.2483 214.637 79.2483 212.235V194.555C79.2483 192.587 78.7524 192.253 77.9258 191.886V191.419L82.2901 189.484L82.6207 189.751V202.568C84.4392 201.066 86.8197 199.565 89.4019 199.565C92.4437 199.565 94.4936 201.167 94.4936 205.069V212.242C94.4936 214.643 94.725 215.644 95.8161 216.011V216.478H89.7987V216.011C90.8898 215.644 91.1212 214.643 91.1212 212.242V205.67C91.1212 202.668 89.8317 200.9 87.3851 200.9C85.8278 200.9 84.4094 201.667 82.6207 203.135V212.242C82.6207 214.643 82.8522 215.644 83.9433 216.011V216.478H77.9258V216.004Z" fill="#EBE7DF"/>
<path d="M104.871 205.19C104.871 198.452 110.161 192.881 118.262 192.881C120.712 192.881 124.117 193.348 125.836 194.515L125.969 198.919L125.572 199.019C124.902 197.389 123.769 195.996 122.314 195.016C120.86 194.037 119.151 193.514 117.402 193.515C112.112 193.515 108.376 197.051 108.376 203.689C108.376 210.127 112.145 216.102 118.596 216.102C122.299 216.102 124.844 213.83 126.035 210.361L126.464 210.427L125.935 215.198C124.183 215.998 121.67 216.799 117.637 216.799C109.731 216.799 104.871 212.662 104.871 205.19Z" fill="#EBE7DF"/>
<path d="M128.938 208.565C128.924 207.387 129.142 206.218 129.58 205.125C130.017 204.033 130.665 203.038 131.486 202.201C132.308 201.363 133.286 200.698 134.364 200.244C135.441 199.791 136.598 199.558 137.766 199.559C141.866 199.559 146.564 201.994 146.564 207.865C146.564 213.569 141.667 216.805 137.766 216.805C133.468 216.798 128.938 214.236 128.938 208.565ZM138.923 216.071C142.163 216.071 143.221 213.236 143.221 210.4C143.221 206.164 140.345 199.792 136.08 200.226C133.203 200.526 132.244 203.195 132.244 206.064C132.244 209.993 134.559 216.064 138.923 216.064V216.071Z" fill="#EBE7DF"/>
<path d="M149.031 215.999C150.122 215.632 150.354 214.631 150.354 212.229V204.557C150.354 202.589 149.858 202.255 149.031 201.888V201.421L153.396 199.486L153.726 199.753V202.555C155.545 201.054 157.925 199.553 160.504 199.553C162.819 199.553 164.339 200.454 164.968 202.589C166.786 201.088 169.2 199.553 171.812 199.553C174.857 199.553 176.576 201.154 176.576 205.057V212.236C176.576 214.638 176.807 215.639 177.898 216.005V216.472H171.881V216.005C172.972 215.639 173.204 214.638 173.204 212.236V205.664C173.204 202.662 172.245 200.894 169.795 200.894C168.241 200.894 166.819 201.661 165.067 203.062C165.205 203.72 165.271 204.391 165.265 205.064V212.236C165.265 214.638 165.497 215.639 166.588 216.005V216.472H160.57V216.005C161.661 215.639 161.893 214.638 161.893 212.236V205.664C161.893 202.662 160.934 200.894 158.487 200.894C156.933 200.894 155.512 201.661 153.726 203.129V212.236C153.726 214.638 153.958 215.639 155.049 216.005V216.472H149.031V215.999Z" fill="#EBE7DF"/>
<path d="M185.062 215.67V221.248C185.062 223.65 185.294 224.65 186.385 225.017V225.484H180.367V225.017C181.458 224.65 181.69 223.65 181.69 221.248V204.569C181.69 202.6 181.194 202.267 180.367 201.9V201.433L184.731 199.498L185.062 199.765V201.933C186.814 200.699 188.964 199.565 191.245 199.565C195.345 199.565 197.957 203.034 197.957 207.604C197.957 212.708 194.551 216.781 189.129 216.781C187.7 216.775 186.299 216.392 185.062 215.67ZM190.451 216.137C194.022 216.137 194.849 213.168 194.849 210.133C194.849 207.097 193.857 200.926 188.93 200.926C187.476 200.926 186.219 201.593 185.062 202.494V210.907C185.062 213.202 188.005 216.137 190.451 216.137Z" fill="#EBE7DF"/>
<path d="M211.667 215.133V209.629C210.741 213.499 208.361 216.801 204.922 216.801C202.476 216.801 200.426 215.233 200.426 212.431C200.426 208.995 203.897 207.661 207.997 206.493L211.667 205.426C211.601 202.123 209.816 200.856 207.369 200.856C205.517 200.856 203.699 201.656 202.013 203.691L201.682 203.391C203.534 201.089 206.08 199.555 209.088 199.555C213.089 199.555 214.973 201.723 214.973 205.793V212.238C214.973 214.639 215.205 215.64 216.296 216.007V216.474H212.99C212.117 216.467 211.667 216 211.667 215.133ZM206.575 214.366C209.816 214.366 211.634 209.762 211.667 206.76V205.899L208.129 206.934C206.575 207.367 203.501 208.501 203.501 211.27C203.487 213.465 205.055 214.366 206.562 214.366H206.575Z" fill="#EBE7DF"/>
<path d="M219.1 215.166L218.77 210.796L219.1 210.73C220.522 213.932 222.902 216.167 225.845 216.201C227.895 216.234 229.217 214.866 229.217 213.332C229.217 211.197 227.531 210.363 224.655 209.462C221.183 208.395 219.034 207.427 219.034 204.425C219.034 201.89 220.985 199.555 225.481 199.555C227.366 199.555 229.383 199.922 230.507 200.389L230.672 204.058L230.275 204.125C229.151 201.756 227.101 200.022 224.688 200.022C222.605 200.022 221.249 201.123 221.249 202.557C221.249 204.425 222.902 205.226 225.878 206.226C228.523 207.127 231.433 207.928 231.433 211.33C231.433 213.865 229.846 216.734 225.051 216.734C222.625 216.734 220.343 216 219.1 215.166Z" fill="#EBE7DF"/>
<path d="M234.225 215.166L233.895 210.796L234.225 210.73C235.647 213.932 238.027 216.167 240.97 216.201C243.02 216.234 244.342 214.866 244.342 213.332C244.342 211.197 242.656 210.363 239.78 209.462C236.308 208.395 234.159 207.427 234.159 204.425C234.159 201.89 236.11 199.555 240.606 199.555C242.491 199.555 244.508 199.922 245.632 200.389L245.797 204.058L245.4 204.125C244.276 201.756 242.226 200.022 239.813 200.022C237.73 200.022 236.374 201.123 236.374 202.557C236.374 204.425 238.027 205.226 241.003 206.226C243.648 207.127 246.558 207.928 246.558 211.33C246.558 213.865 244.971 216.734 240.176 216.734C237.763 216.734 235.482 216 234.225 215.166Z" fill="#EBE7DF"/>
<defs>
<radialGradient id="paint0_radial_6369_149059" cx="0" cy="0" r="1" gradientUnits="userSpaceOnUse" gradientTransform="translate(125.165 85.8132) scale(108.53 109.515)">
<stop stop-color="#FFFBA4"/>
<stop offset="0.78" stop-color="#AD832D"/>
</radialGradient>
</defs>
</svg>
