<?xml version="1.0" encoding="UTF-8"?>
<svg version="1.1" xmlns="http://www.w3.org/2000/svg" width="300" height="256">
<path d="M0 0 C99 0 198 0 300 0 C300 84.48 300 168.96 300 256 C201 256 102 256 0 256 C0 171.52 0 87.04 0 0 Z " fill="#B05003" transform="translate(0,0)"/>
<path d="M0 0 C99 0 198 0 300 0 C300 84.48 300 168.96 300 256 C201 256 102 256 0 256 C0 171.52 0 87.04 0 0 Z M82.75634766 6.88769531 C81.96342001 6.96461483 81.17049236 7.04153435 80.35353661 7.12078476 C65.3156113 8.79333373 51.34334768 16.86810832 41.7734375 28.578125 C29.97074292 44.69634226 27.8301965 61.69378245 27.87060547 81.24780273 C27.86885315 82.31277985 27.86710083 83.37775696 27.86529541 84.4750061 C27.86092942 87.96121905 27.86379649 91.44738038 27.8671875 94.93359375 C27.8665129 97.37777211 27.86554158 99.82195041 27.86428833 102.26612854 C27.86281842 107.37574913 27.86494296 112.48535217 27.86962891 117.5949707 C27.87532271 124.11884428 27.87204487 130.64267667 27.86605644 137.16654873 C27.86242914 142.21023362 27.86359942 147.25390888 27.86618423 152.29759407 C27.86684766 154.70196602 27.86604567 157.10633886 27.86370468 159.51070976 C27.86114274 162.88143071 27.86506838 166.25208658 27.87060547 169.62280273 C27.86858124 170.60030991 27.86655701 171.57781708 27.86447144 172.58494568 C27.88512701 179.43079291 28.34408213 186.18662926 29 193 C29.66 193 30.32 193 31 193 C30.9175 194.216875 30.835 195.43375 30.75 196.6875 C30.7395254 203.27602162 32.22018501 211.8022176 36.63671875 216.8828125 C37.08660156 217.25148437 37.53648438 217.62015625 38 218 C38 216.02 38 214.04 38 212 C38.09796875 212.77085937 38.1959375 213.54171875 38.296875 214.3359375 C38.44640625 215.33882812 38.5959375 216.34171875 38.75 217.375 C38.95882812 218.87160156 38.95882812 218.87160156 39.171875 220.3984375 C39.7263258 223.1370879 39.7263258 223.1370879 42 224.1875 C42.66 224.455625 43.32 224.72375 44 225 C45.25 227.625 45.25 227.625 46 230 C46.66 230 47.32 230 48 230 C48.495 230.99 48.495 230.99 49 232 C49.66 231.67 50.32 231.34 51 231 C51.226875 231.78375 51.45375 232.5675 51.6875 233.375 C52.78125 236.21875 52.78125 236.21875 55.625 237.3125 C56.800625 237.6528125 56.800625 237.6528125 58 238 C58 238.66 58 239.32 58 240 C60.87108918 240.86975343 63.74562533 241.72100833 66.625 242.5625 C67.43324219 242.80935547 68.24148437 243.05621094 69.07421875 243.31054688 C73.75653068 244.66194585 77.15835587 245.30834073 82 244 C82 244.66 82 245.32 82 246 C87.92450925 246.9366813 93.78507229 247.31964536 99.77148438 247.60546875 C100.48755859 247.64285156 101.20363281 247.68023437 101.94140625 247.71875 C102.57763916 247.74904297 103.21387207 247.77933594 103.86938477 247.81054688 C106 248 106 248 108.5766449 248.50375366 C112.71761824 249.10402527 116.7266953 249.1397489 120.90429688 249.12939453 C121.78001343 249.13114685 122.65572998 249.13289917 123.5579834 249.13470459 C126.44492595 249.13909463 129.33180685 249.13619307 132.21875 249.1328125 C134.23929862 249.13348684 136.25984716 249.13445795 138.28039551 249.13571167 C142.51701631 249.1371852 146.75361602 249.13504694 150.99023438 249.13037109 C156.38520765 249.12470325 161.78013084 249.12793623 167.17510223 249.13394356 C171.35160692 249.13758351 175.52810004 249.13639442 179.7046051 249.13381577 C181.69145209 249.13315444 183.67830017 249.13394675 185.66514587 249.13629532 C209.99498099 249.15872553 234.16773778 249.09917831 253.0078125 231.15625 C268.200282 214.71263596 271.19845553 193.98445955 271.11352539 172.38793945 C271.11374443 170.89323372 271.11374443 170.89323372 271.1139679 169.36833191 C271.11327836 166.11662521 271.10553145 162.86497779 271.09765625 159.61328125 C271.09578866 157.34213797 271.09436637 155.07099429 271.09336853 152.79985046 C271.08957023 146.85367703 271.07976318 140.90752844 271.06866455 134.96136475 C271.05839237 128.88114762 271.05385852 122.80092644 271.04882812 116.72070312 C271.03813825 104.81379123 271.02109447 92.90689769 271 81 C270.67 81 270.34 81 270 81 C269.8035969 77.70880065 269.61939255 74.41703066 269.4375 71.125 C269.38142578 70.18785156 269.32535156 69.25070313 269.26757812 68.28515625 C269.21923828 67.38925781 269.17089844 66.49335937 269.12109375 65.5703125 C269.0739624 64.74289551 269.02683105 63.91547852 268.97827148 63.06298828 C269 61 269 61 270 59 C268.3814698 51.31198154 266.34584937 43.61324904 262 37 C260.99034433 35.04008018 260.04012513 33.09568301 259.1875 31.0625 C257.53238677 28.18782966 255.48351578 26.180648 253 24 C252.01 24 251.02 24 250 24 C250 23.34 250 22.68 250 22 C249.34 22 248.68 22 248 22 C248 21.01 248 20.02 248 19 C243.64361178 15.09042083 240.35239973 14.60087922 234.7578125 14.859375 C234.17773438 14.90578125 233.59765625 14.9521875 233 15 C233.33 13.68 233.66 12.36 234 11 C217.59178015 5.32895627 201.10263213 5.70199387 183.9609375 5.734375 C181.42811038 5.73302463 178.89528352 5.73108101 176.36245728 5.72857666 C171.06892907 5.72563968 165.77545174 5.72967921 160.48193359 5.73925781 C154.4187639 5.75010455 148.35572919 5.74663617 142.29256284 5.735605 C136.39686612 5.72531972 130.50121935 5.72655628 124.60551834 5.73236847 C122.12681687 5.73368787 119.64811187 5.73211838 117.16941452 5.72740936 C105.6618063 5.71034871 94.21829081 5.77129092 82.75634766 6.88769531 Z " fill="#A64807" transform="translate(0,0)"/>
<path d="M0 0 C5.78882866 4.08037779 10.96766191 8.65284176 16.16796875 13.453125 C20.29338228 17.16315206 24.61933306 20.59809378 29 24 C26.99281789 25.5245563 24.98008346 27.01352404 22.89453125 28.4296875 C18.4718444 31.35953927 18.4718444 31.35953927 16 35.875 C16 36.57625 16 37.2775 16 38 C19.42083729 37.41994498 20.87386016 36.35107095 23.25 33.875 C28.69863186 28.91339669 35.22583078 26.60523596 41.95605469 23.85839844 C46.18335812 22.08305218 50.29409265 20.05189776 54.42578125 18.06640625 C57 17 57 17 60 17 C61.73435585 22.53731673 62.70983743 27.98902917 63.5078125 33.73046875 C63.70333206 35.09973259 63.70333206 35.09973259 63.90280151 36.49665833 C64.17565908 38.41500275 64.44613784 40.33368688 64.71435547 42.25268555 C65.12528094 45.18950783 65.54447288 48.12506326 65.96484375 51.06054688 C66.22965384 52.92961854 66.49399314 54.79875698 66.7578125 56.66796875 C66.88278107 57.54406296 67.00774963 58.42015717 67.13650513 59.32279968 C67.30700882 60.54976311 67.30700882 60.54976311 67.48095703 61.80151367 C67.58151398 62.51764328 67.68207092 63.23377289 67.78567505 63.97160339 C68 66 68 66 68 70 C64.55220914 68.49993609 62.17639467 66.49590738 59.4375 63.9375 C54.13024544 59.06860275 48.59215155 54.53509851 43 50 C40.59982712 48.04985954 38.28787334 46.08450682 36 44 C36 43.34 36 42.68 36 42 C36.51949219 41.75765625 37.03898437 41.5153125 37.57421875 41.265625 C45.0975222 37.9788349 45.0975222 37.9788349 49.8125 31.75 C49.9053125 30.88375 49.9053125 30.88375 50 30 C46.99045011 31.64157266 44.55418471 33.398039 42.1015625 35.7578125 C37.18249633 40.01657101 31.38233094 42.2501934 25.4375 44.75 C24.32697266 45.23082031 23.21644531 45.71164063 22.07226562 46.20703125 C17.09612181 48.34519478 12.15739084 50.33641795 7 52 C5.9967639 45.55972654 5.00059485 39.11838824 4.00927734 32.67626953 C3.67137767 30.48591506 3.33187483 28.29580727 2.99072266 26.10595703 C2.49998706 22.95408961 2.01506749 19.80137333 1.53125 16.6484375 C1.37813354 15.67321136 1.22501709 14.69798523 1.06726074 13.69320679 C0.36538818 9.083171 -0.19187102 4.68028241 0 0 Z " fill="#A24A0D" transform="translate(117,94)"/>
<path d="M0 0 C3.81316447 0.46989421 5.16027619 2.10763277 7.8828125 4.77734375 C8.85186966 5.70552911 9.8232859 6.63125689 10.796875 7.5546875 C11.28833008 8.02374512 11.77978516 8.49280273 12.28613281 8.97607422 C14.51905316 11.04526683 16.88239206 12.93746549 19.2578125 14.83984375 C24.16033028 18.7857727 28.76770349 22.96329049 33.34765625 27.2734375 C36.28444744 29.80915214 36.28444744 29.80915214 39.7578125 31.33984375 C42.46990202 30.50505578 42.46990202 30.50505578 45.2578125 28.91015625 C46.3096875 28.36230469 47.3615625 27.81445312 48.4453125 27.25 C49.5384375 26.66089844 50.6315625 26.07179688 51.7578125 25.46484375 C53.92072228 24.31452263 56.08725257 23.17097621 58.2578125 22.03515625 C59.69640625 21.26196045 59.69640625 21.26196045 61.1640625 20.47314453 C63.7578125 19.33984375 63.7578125 19.33984375 67.7578125 19.33984375 C69.31659368 26.74431194 70.56492899 34.1714848 71.6953125 41.65234375 C71.86716064 42.77721191 72.03900879 43.90208008 72.21606445 45.06103516 C73.46997316 53.31297637 74.66949109 61.5721724 75.80639648 69.84106445 C75.97377319 71.04315552 75.97377319 71.04315552 76.14453125 72.26953125 C76.23951904 72.96288574 76.33450684 73.65624023 76.43237305 74.37060547 C76.73539433 76.37465604 76.73539433 76.37465604 77.29003906 78.44677734 C77.85023602 80.71387924 77.85460221 82.75814316 77.8203125 85.08984375 C77.81128906 85.8890625 77.80226563 86.68828125 77.79296875 87.51171875 C77.78136719 88.115 77.76976562 88.71828125 77.7578125 89.33984375 C73.0626272 88.86864236 70.97800758 87.07519661 67.6328125 83.83984375 C66.66238893 82.91951506 65.68967292 82.00159841 64.71484375 81.0859375 C64.22322754 80.62300293 63.73161133 80.16006836 63.22509766 79.68310547 C60.15021252 76.86812743 56.84845487 74.32319539 53.58984375 71.7265625 C51.50170267 69.9667636 49.57538023 68.21456046 47.64453125 66.296875 C47.12109131 65.78503662 46.59765137 65.27319824 46.05834961 64.74584961 C45.04886527 63.74908118 44.05507062 62.73608489 43.08032227 61.70532227 C40.5635493 59.23768275 39.14957396 58.35582413 35.59765625 58.2109375 C29.25715814 59.66624767 23.37191695 63.13479773 17.58789062 66.00976562 C16.63978516 66.46287109 15.69167969 66.91597656 14.71484375 67.3828125 C13.85866455 67.8058667 13.00248535 68.2289209 12.12036133 68.66479492 C9.7578125 69.33984375 9.7578125 69.33984375 7.53198242 68.88208008 C4.78951114 66.49812644 4.87799834 64.17304521 4.4140625 60.62109375 C4.31945236 59.93907898 4.22484222 59.25706421 4.12736511 58.55438232 C3.82073317 56.318107 3.53931785 54.07940821 3.2578125 51.83984375 C3.05113752 50.29889728 2.84254648 48.75820664 2.63208008 47.21777344 C2.31244897 44.87427182 1.99446022 42.53064984 1.68354797 40.18597412 C0.58349869 31.89561893 -0.73450138 23.64354696 -2.07421875 15.38867188 C-3.56826788 5.92013554 -3.56826788 5.92013554 -3.2421875 1.33984375 C-2.2421875 0.33984375 -2.2421875 0.33984375 0 0 Z M4.7578125 11.33984375 C5.40336911 22.35545141 7.14528755 33.19590628 8.8203125 44.08984375 C9.10518447 45.96218382 9.38969253 47.83457929 9.67382812 49.70703125 C10.3642975 54.25195147 11.05968103 58.79609445 11.7578125 63.33984375 C18.42563468 61.19583544 24.7764228 58.44152458 31.1953125 55.65234375 C32.39736328 55.14767578 33.59941406 54.64300781 34.83789062 54.12304688 C41.04549795 51.41470855 45.99087556 48.96161966 50.41040039 43.74682617 C51.7578125 42.33984375 51.7578125 42.33984375 54.7578125 41.33984375 C53.44010035 45.52803154 52.03054602 47.27475551 48.3203125 49.58984375 C47.53785156 50.09 46.75539062 50.59015625 45.94921875 51.10546875 C43.7578125 52.33984375 43.7578125 52.33984375 40.7578125 53.33984375 C42.27179328 57.15473316 44.48778318 58.97061004 47.6953125 61.46484375 C51.78442428 64.71681454 55.72090068 68.05682194 59.5703125 71.58984375 C65.45723303 77.97751326 65.45723303 77.97751326 72.7578125 81.33984375 C71.57784901 70.61149147 70.20170096 59.91073546 68.7578125 49.21484375 C68.5918457 47.95841064 68.42587891 46.70197754 68.25488281 45.4074707 C67.4558973 39.55988567 66.62154082 33.94766913 64.7578125 28.33984375 C59.45635774 28.91319858 55.35258936 30.71250458 50.6328125 33.02734375 C49.88797607 33.38747559 49.14313965 33.74760742 48.37573242 34.11865234 C46.87280628 34.84692261 45.3713941 35.57832624 43.87158203 36.31298828 C41.98857223 37.22774218 40.09088606 38.11214373 38.19140625 38.9921875 C32.23870726 41.8009078 28.22065436 44.53370637 23.7578125 49.33984375 C22.7678125 49.33984375 21.7778125 49.33984375 20.7578125 49.33984375 C20.7578125 47.21484375 20.7578125 47.21484375 21.7578125 44.33984375 C24.24069662 42.06718094 26.97746271 40.22779926 29.7578125 38.33984375 C31.09584533 37.34614061 32.4305882 36.34793771 33.7578125 35.33984375 C32.90960938 34.6128125 32.06140625 33.88578125 31.1875 33.13671875 C30.62699951 32.6562207 30.06649902 32.17572266 29.48901367 31.68066406 C28.24205574 30.61198356 26.99481843 29.54362897 25.74731445 28.47558594 C22.40698709 25.61496192 19.07167217 22.74885697 15.74609375 19.87109375 C15.10881348 19.32098633 14.4715332 18.77087891 13.81494141 18.20410156 C12.57984482 17.13770582 11.34641176 16.06937999 10.11474609 14.99902344 C7.73799581 12.48260597 7.73799581 12.48260597 4.7578125 11.33984375 Z " fill="#F9F2EB" transform="translate(112.2421875,82.66015625)"/>
<path d="M0 0 C0.99 0 1.98 0 3 0 C3.0466408 11.68442011 3.08202876 23.36881754 3.10362434 35.0533123 C3.11399674 40.48072508 3.12803416 45.90807348 3.15087891 51.33544922 C3.17284348 56.58746078 3.18461762 61.839411 3.18975449 67.091465 C3.19340837 69.08059783 3.20054129 71.06972786 3.21146011 73.05883408 C3.33803314 97.10537955 2.66171537 121.37322466 -14.80859375 139.9375 C-34.36578425 158.34426753 -59.2344524 158.17005708 -84.3984375 158.09765625 C-86.32898929 158.0957867 -88.25954156 158.09436534 -90.19009399 158.09336853 C-95.22380935 158.08958562 -100.25749497 158.07979241 -105.29119873 158.06866455 C-110.44673256 158.05835859 -115.60227129 158.0538514 -120.7578125 158.04882812 C-130.8385546 158.03816553 -140.91927481 158.02114113 -151 158 C-150.67 157.01 -150.34 156.02 -150 155 C-149.44538086 154.97494385 -148.89076172 154.9498877 -148.31933594 154.92407227 C-145.79601157 154.80772073 -143.27302464 154.68517246 -140.75 154.5625 C-139.87730469 154.52318359 -139.00460938 154.48386719 -138.10546875 154.44335938 C-136.83896484 154.38051758 -136.83896484 154.38051758 -135.546875 154.31640625 C-134.77182617 154.27974854 -133.99677734 154.24309082 -133.19824219 154.20532227 C-131.04643961 154.07083699 -131.04643961 154.07083699 -129.21440125 153.49801636 C-126.55392809 152.89967893 -124.09904288 152.85252686 -121.37133789 152.82641602 C-120.23817642 152.81292618 -119.10501495 152.79943634 -117.93751526 152.78553772 C-116.71161179 152.77509933 -115.48570831 152.76466095 -114.22265625 152.75390625 C-112.27067277 152.72937794 -110.31868937 152.70483843 -108.36671352 152.67970943 C-103.57765001 152.61949086 -98.78848733 152.56913658 -93.99926758 152.52319336 C-74.53857381 152.35190696 -74.53857381 152.35190696 -55.12109375 151.15234375 C-53.91103416 151.05041466 -53.91103416 151.05041466 -52.67652893 150.94642639 C-47.14248074 150.37821777 -42.20776066 148.92084969 -37 147 C-31.21052632 145 -31.21052632 145 -29 145 C-29 144.34 -29 143.68 -29 143 C-27.35 142.34 -25.7 141.68 -24 141 C-24 140.34 -24 139.68 -24 139 C-20.53846154 136 -20.53846154 136 -18 136 C-17.71125 135.401875 -17.4225 134.80375 -17.125 134.1875 C-16 132 -16 132 -14 129 C-13.34 129 -12.68 129 -12 129 C-11.87367188 128.40832031 -11.74734375 127.81664062 -11.6171875 127.20703125 C-11 125 -11 125 -9.125 121.6875 C-2.11508273 107.97355276 -2.88376405 90.10013372 -2.75390625 75.1171875 C-2.72937041 73.13794273 -2.70482344 71.15869804 -2.67970943 69.17946053 C-2.62013137 64.39038786 -2.56909644 59.60123355 -2.52319336 54.81201172 C-2.34309499 36.46831246 -1.61847441 18.27899086 0 0 Z " fill="#D68C45" transform="translate(268,91)"/>
<path d="M0 0 C3.94076651 0.01157529 7.88126589 0.00469215 11.82202339 -0.00714493 C14.87769623 -0.01434601 17.93330465 -0.01208686 20.98897934 -0.00688934 C22.44427396 -0.00555729 23.89957446 -0.00718499 25.35486221 -0.01184845 C27.36873518 -0.01690402 29.38262887 -0.00783783 31.39648438 0.00195312 C32.53973175 0.00354431 33.68297913 0.0051355 34.86087036 0.0067749 C37.54833984 0.26074219 37.54833984 0.26074219 39.54833984 2.26074219 C34.59726435 3.02859686 29.68600396 3.52838675 24.68115234 3.79589844 C23.91400909 3.83763687 23.14686584 3.87937531 22.35647583 3.92237854 C10.29284538 4.52678717 -1.79495024 4.5934656 -13.87109375 4.73754883 C-46.10961932 4.41386561 -46.10961932 4.41386561 -73.58056641 19.26074219 C-75.25105583 21.04631752 -76.64514635 22.80360796 -78.01416016 24.82324219 C-79.23815999 26.62513047 -80.36863909 28.18119844 -81.94384766 29.69042969 C-87.49123451 35.46776004 -89.26864929 43.60974803 -90.45166016 51.26074219 C-90.62016479 51.9620929 -90.78866943 52.6634436 -90.96228027 53.38604736 C-91.59791655 57.11987538 -91.62064828 60.80417495 -91.64111328 64.58007812 C-91.64940659 65.40515869 -91.65769989 66.23023926 -91.66624451 67.08032227 C-91.68360165 68.86724719 -91.69878018 70.65419432 -91.71202087 72.44115448 C-91.73313503 75.27530167 -91.76015357 78.10933891 -91.78869629 80.94342041 C-91.84828732 86.96581812 -91.90044946 92.98826818 -91.95166016 99.01074219 C-92.01106033 105.97850759 -92.07355122 112.94621928 -92.14353943 119.91388702 C-92.16993445 122.69499461 -92.19086027 125.47610816 -92.21154785 128.25726318 C-92.2281689 129.97945408 -92.24504229 131.70164256 -92.26220703 133.42382812 C-92.26639145 134.18777893 -92.27057587 134.95172974 -92.27488708 135.73883057 C-92.42918568 149.21579324 -92.42918568 149.21579324 -94.45166016 153.26074219 C-95.11166016 153.26074219 -95.77166016 153.26074219 -96.45166016 153.26074219 C-96.49829065 141.95020334 -96.5336838 130.6396879 -96.5552845 119.329072 C-96.56565909 114.07538485 -96.57970069 108.82176416 -96.60253906 103.56811523 C-96.6244956 98.48468829 -96.63627614 93.40132469 -96.64141464 88.31785393 C-96.64506993 86.39208926 -96.65220576 84.4663275 -96.66312027 82.54059029 C-96.79572282 58.14263954 -95.31783473 36.29033858 -77.87353516 17.45996094 C-56.03885025 -2.36734165 -27.58296042 -0.08193552 0 0 Z " fill="#E1A166" transform="translate(124.45166015625,5.7392578125)"/>
<path d="M0 0 C11.88 0 23.76 0 36 0 C36 0.66 36 1.32 36 2 C34.60092407 2.08302368 34.60092407 2.08302368 33.17358398 2.16772461 C29.6864591 2.37603735 26.19951049 2.58694228 22.71264648 2.79956055 C21.20847661 2.8907566 19.70424517 2.98094325 18.19995117 3.07006836 C16.02765892 3.19895146 13.85561994 3.33156043 11.68359375 3.46484375 C10.37962646 3.543396 9.07565918 3.62194824 7.73217773 3.70288086 C4.07818837 3.94293741 4.07818837 3.94293741 0.80493164 4.51806641 C-4.64867676 5.20882181 -10.07026891 5.19668827 -15.5625 5.24609375 C-18.07812779 5.27908454 -20.59375271 5.31229514 -23.109375 5.34570312 C-27.02927288 5.3926349 -30.94916391 5.43698356 -34.86914062 5.47680664 C-47.91077027 5.61549437 -60.90943397 5.81019392 -73.91015625 6.921875 C-75.28874817 7.03872902 -75.28874817 7.03872902 -76.69519043 7.15794373 C-87.07096645 8.14422659 -96.57140511 10.6129981 -105 17 C-105.58007812 17.42925781 -106.16015625 17.85851562 -106.7578125 18.30078125 C-119.93811531 28.79182945 -124.96685012 41.74572414 -127 58 C-127.79941735 66.3699663 -128.15235768 74.68764746 -128.17358398 83.0925293 C-128.180271 84.22262924 -128.18695801 85.35272919 -128.19384766 86.51707458 C-128.2077782 88.94340174 -128.21970907 91.36974108 -128.22979546 93.79608727 C-128.24634684 97.63288822 -128.26958117 101.46959676 -128.29469299 105.30635071 C-128.36513875 116.20508182 -128.42596022 127.10384545 -128.47680664 138.00268555 C-128.50808281 144.68964168 -128.54973051 151.37646865 -128.59700203 158.06333351 C-128.61304846 160.60992191 -128.62535775 163.15653664 -128.63390923 165.70316124 C-128.64599424 169.24583124 -128.67010721 172.78822678 -128.69702148 176.33081055 C-128.69761063 177.38788208 -128.69819977 178.44495361 -128.69880676 179.53405762 C-128.70852509 180.49406174 -128.71824341 181.45406586 -128.72825623 182.44316101 C-128.73248816 183.27985667 -128.7367201 184.11655233 -128.74108028 184.97860241 C-129 187 -129 187 -131 189 C-131 188.34 -131 187.68 -131 187 C-131.66 187 -132.32 187 -133 187 C-134.33589978 175.69256254 -134.09861278 164.36626101 -134 153 C-133.34 153 -132.68 153 -132 153 C-130.86348555 143.7186992 -130.82327123 134.45866472 -130.77020454 125.12407684 C-130.7535963 122.30679731 -130.73035871 119.48964074 -130.70530701 116.67242432 C-130.63503453 108.6706772 -130.5743021 100.6688846 -130.52319336 92.66699219 C-130.49134286 87.75239292 -130.45007148 82.83794544 -130.40299797 77.92346954 C-130.38703826 76.05925471 -130.37468904 74.1950052 -130.36609077 72.33074188 C-130.35388764 69.72522067 -130.32972257 67.12005534 -130.30297852 64.51464844 C-130.30238937 63.75293335 -130.30180023 62.99121826 -130.30119324 62.2064209 C-130.23666564 57.44341518 -129.46278138 53.53472641 -128 49 C-127.73164283 47.41967444 -127.47975414 45.83639764 -127.25 44.25 C-125.61078761 35.79579435 -121.28989176 28.79332136 -115 23 C-114.38125 22.01 -113.7625 21.02 -113.125 20 C-110.53245671 16.33993888 -107.75886314 14.35523703 -104 12 C-103.43023437 11.62746094 -102.86046875 11.25492188 -102.2734375 10.87109375 C-87.23121006 1.56414481 -65.10950148 3.64014597 -48.125 3.4375 C-30.42660495 3.22293629 -30.42660495 3.22293629 -12.7421875 2.53515625 C-12.0221756 2.49756699 -11.3021637 2.45997772 -10.56033325 2.42124939 C-6.9615102 2.20683092 -3.51395209 1.81317055 0 1 C0 0.67 0 0.34 0 0 Z " fill="#CE711B" transform="translate(162,6)"/>
<path d="M0 0 C0.33 0 0.66 0 1 0 C1.07516846 0.64324219 1.15033691 1.28648438 1.2277832 1.94921875 C3.02765213 17.50912719 3.02765213 17.50912719 5.6875 32.9375 C6.78943426 38.44143206 7.3000634 43.39881653 7 49 C2.3048147 48.52879861 0.22019508 46.73535286 -3.125 43.5 C-4.09542357 42.57967131 -5.06813958 41.66175466 -6.04296875 40.74609375 C-6.53458496 40.28315918 -7.02620117 39.82022461 -7.53271484 39.34326172 C-10.60759998 36.52828368 -13.90935763 33.98335164 -17.16796875 31.38671875 C-19.25610983 29.62691985 -21.18243227 27.87471671 -23.11328125 25.95703125 C-23.63672119 25.44519287 -24.16016113 24.93335449 -24.69946289 24.40600586 C-25.70894723 23.40923743 -26.70274188 22.39624114 -27.67749023 21.36547852 C-29.22886688 19.76371597 -29.22886688 19.76371597 -32 18 C-35.48715998 18.11660305 -37.91215594 18.36834861 -40.9375 20.125 C-44.33310779 21.56556088 -47.41285966 20.59785672 -51 20 C-48.36557352 18.24371568 -46.03738918 17.08706387 -43.140625 15.86328125 C-41.71363281 15.24356445 -41.71363281 15.24356445 -40.2578125 14.61132812 C-38.27285273 13.75418641 -36.28330411 12.9075845 -34.2890625 12.07226562 C-28.5894738 9.57197435 -24.49072451 7.10581001 -20.42871094 2.34448242 C-19 1 -19 1 -16 1 C-16.29033493 4.36207846 -16.66183324 5.68668062 -19.1796875 8.01953125 C-20.06914062 8.61121094 -20.95859375 9.20289063 -21.875 9.8125 C-23.20144531 10.71935547 -23.20144531 10.71935547 -24.5546875 11.64453125 C-27 13 -27 13 -30 13 C-19.98388051 23.1238197 -9.11115599 32.11904019 2 41 C1.81824219 39.94872925 1.81824219 39.94872925 1.6328125 38.8762207 C1.08425258 35.68903485 0.54206536 32.50079657 0 29.3125 C-0.19078125 28.20970703 -0.3815625 27.10691406 -0.578125 25.97070312 C-0.75859375 24.90400391 -0.9390625 23.83730469 -1.125 22.73828125 C-1.37636719 21.26935425 -1.37636719 21.26935425 -1.6328125 19.77075195 C-1.98132935 17.14088643 -2.06764613 14.64876878 -2 12 C-1.505 13.98 -1.505 13.98 -1 16 C-0.34 16 0.32 16 1 16 C0.67 10.72 0.34 5.44 0 0 Z " fill="#F6EBE0" transform="translate(183,123)"/>
<path d="M0 0 C0.99 0 1.98 0 3 0 C3.05127478 7.6639516 3.08597125 15.32785796 3.10986328 22.99194336 C3.11983773 25.59189507 3.13342209 28.19183581 3.15087891 30.79174805 C3.23563129 43.75138463 3.30796727 56.50367904 1.49902344 69.3527832 C0.69158089 75.25414532 0.4141294 81.18237856 0.0625 87.125 C-1.28341664 107.67367201 -1.28341664 107.67367201 -4 116 C-4.99 116.495 -4.99 116.495 -6 117 C-5.85626953 115.85716553 -5.71253906 114.71433105 -5.56445312 113.53686523 C-5.47301025 112.80104218 -5.38156738 112.06521912 -5.28735352 111.30709839 C-5.10672319 109.85685713 -4.92393618 108.40688121 -4.73803711 106.95730591 C-2.71474707 90.81712319 -2.62601111 74.68214613 -2.5 58.4375 C-2.34714538 38.86556627 -1.73030799 19.50008405 0 0 Z " fill="#C76B18" transform="translate(268,91)"/>
<path d="M0 0 C0.99 0.495 0.99 0.495 2 1 C-3.89735959 8.64472539 -14.85694123 11.24329456 -24 13 C-27.44994427 13.34420328 -30.89472935 13.46069861 -34.359375 13.5625 C-35.83606659 13.61772827 -35.83606659 13.61772827 -37.34259033 13.67407227 C-40.47816734 13.79072071 -43.61396512 13.8964494 -46.75 14 C-50.84926938 14.13817037 -54.94819154 14.28288754 -59.046875 14.4375 C-60.05828552 14.47561798 -61.06969604 14.51373596 -62.11175537 14.55300903 C-68.56722583 14.82377932 -74.95448768 15.34092163 -81.375 16.0546875 C-90.69335679 17.0849513 -99.8837352 17.23443828 -109.25 17.125 C-110.79686899 17.11491738 -112.34374459 17.10580116 -113.890625 17.09765625 C-117.59389287 17.07613563 -121.29689981 17.04191946 -125 17 C-124.505 15.515 -124.505 15.515 -124 14 C-123.44538086 13.97494385 -122.89076172 13.9498877 -122.31933594 13.92407227 C-119.79601157 13.80772073 -117.27302464 13.68517246 -114.75 13.5625 C-113.87730469 13.52318359 -113.00460938 13.48386719 -112.10546875 13.44335938 C-111.26113281 13.40146484 -110.41679687 13.35957031 -109.546875 13.31640625 C-108.77182617 13.27974854 -107.99677734 13.24309082 -107.19824219 13.20532227 C-105.04643961 13.07083699 -105.04643961 13.07083699 -103.21440125 12.49801636 C-100.55392809 11.89967893 -98.09904288 11.85252686 -95.37133789 11.82641602 C-94.23817642 11.81292618 -93.10501495 11.79943634 -91.93751526 11.78553772 C-90.71161179 11.77509933 -89.48570831 11.76466095 -88.22265625 11.75390625 C-86.27067277 11.72937794 -84.31868937 11.70483843 -82.36671352 11.67970943 C-77.57765001 11.61949086 -72.78848733 11.56913658 -67.99926758 11.52319336 C-48.53857381 11.35190696 -48.53857381 11.35190696 -29.12109375 10.15234375 C-28.31438736 10.08439102 -27.50768097 10.01643829 -26.67652893 9.94642639 C-21.14248074 9.37821777 -16.20776066 7.92084969 -11 6 C-5.21052632 4 -5.21052632 4 -3 4 C-3 3.34 -3 2.68 -3 2 C-2.01 1.34 -1.02 0.68 0 0 Z " fill="#CB6C17" transform="translate(242,232)"/>
<path d="M0 0 C0.66 0 1.32 0 2 0 C1.91619094 15.4812171 1.82109144 30.96233415 1.71247292 46.44339561 C1.66230635 53.63118731 1.61586402 60.81896736 1.578125 68.00683594 C1.54523032 74.27025363 1.5054133 80.53358206 1.45720994 86.79690135 C1.4319196 90.11467742 1.41117829 93.4323818 1.39665604 96.75022507 C1.37987519 100.4499886 1.35086009 104.14946253 1.31884766 107.84912109 C1.31668747 108.95466843 1.31452728 110.06021576 1.31230164 111.19926453 C1.30113815 112.20329819 1.28997467 113.20733185 1.2784729 114.24179077 C1.27294214 115.11749411 1.26741138 115.99319744 1.26171303 116.89543724 C1 119 1 119 -1 121 C-1 120.34 -1 119.68 -1 119 C-1.66 119 -2.32 119 -3 119 C-4.33589978 107.69256254 -4.09861278 96.36626101 -4 85 C-3.34 85 -2.68 85 -2 85 C-0.9140562 75.58867327 -0.78426635 66.19772992 -0.68359375 56.73828125 C-0.66297716 55.09489984 -0.64197962 53.45152317 -0.62062073 51.80815125 C-0.56588516 47.519174 -0.5162656 43.23015284 -0.46777344 38.94110107 C-0.4172001 34.54988783 -0.36170265 30.15873698 -0.30664062 25.76757812 C-0.19965411 17.17843845 -0.09808149 8.58924596 0 0 Z " fill="#BF6316" transform="translate(32,74)"/>
<path d="M0 0 C0.33 0 0.66 0 1 0 C1.02324485 9.10180963 1.04097672 18.20360893 1.05181217 27.30544186 C1.05701454 31.53249605 1.06406376 35.75952982 1.07543945 39.98657227 C1.08636283 44.07144431 1.09229674 48.1562968 1.09487724 52.24118233 C1.09671454 53.79396433 1.10030211 55.34674536 1.10573006 56.89951897 C1.17533141 77.64933718 1.17533141 77.64933718 -1 82 C-1.66 82 -2.32 82 -3 82 C-3.39056211 39.98152534 -3.39056211 39.98152534 -1.24365234 21.3984375 C-0.79520186 16.98403111 -0.58908254 12.55597236 -0.375 8.125 C-0.33511963 7.30209473 -0.29523926 6.47918945 -0.25415039 5.63134766 C-0.16590709 3.75439425 -0.08237225 1.87722023 0 0 Z " fill="#D78E4C" transform="translate(31,77)"/>
<path d="M0 0 C6.7685324 -0.10152799 13.30324864 -0.03026944 20 1 C20 1.99 20 2.98 20 4 C21.65 4 23.3 4 25 4 C24.67 4.66 24.34 5.32 24 6 C19.25 6.125 19.25 6.125 17 5 C15.21268076 4.9091762 13.42194511 4.88246201 11.63232422 4.88647461 C9.95080765 4.88658791 9.95080765 4.88658791 8.23532104 4.88670349 C7.02071198 4.89186478 5.80610291 4.89702606 4.5546875 4.90234375 C2.69446457 4.90446617 2.69446457 4.90446617 0.79666138 4.90663147 C-2.50118133 4.91128904 -5.79897546 4.92027561 -9.09680176 4.93133545 C-12.46166387 4.94156269 -15.82653308 4.94613191 -19.19140625 4.95117188 C-25.79428993 4.96221731 -32.39714099 4.97896753 -39 5 C-39 4.67 -39 4.34 -39 4 C-32.27266754 2.9762872 -25.54771318 2.46827111 -18.7644043 2.01513672 C-16.67515589 1.8741671 -14.58665592 1.72433065 -12.49804688 1.57421875 C-11.18255859 1.48527344 -9.86707031 1.39632813 -8.51171875 1.3046875 C-6.70900513 1.1806958 -6.70900513 1.1806958 -4.86987305 1.05419922 C-2 1 -2 1 0 2 C0 1.34 0 0.68 0 0 Z " fill="#BE6318" transform="translate(198,6)"/>
<path d="M0 0 C-0.94875 0.391875 -1.8975 0.78375 -2.875 1.1875 C-17.75931787 7.5880586 -31.80139612 16.28164158 -38.08203125 31.94921875 C-39.96073081 38.19289685 -40.95469303 44.57789531 -42 51 C-42.38546784 53.00202362 -42.77948951 55.00244863 -43.1875 57 C-43.34605469 57.78375 -43.50460938 58.5675 -43.66796875 59.375 C-43.77753906 59.91125 -43.88710938 60.4475 -44 61 C-44.33 61 -44.66 61 -45 61 C-45.19951743 54.24966015 -45.15569226 48.46707678 -43 42 C-42.74269332 40.41783765 -42.49336664 38.83436647 -42.25 37.25 C-40.61078761 28.79579435 -36.28989176 21.79332136 -30 16 C-29.38125 15.01 -28.7625 14.02 -28.125 13 C-25.53245671 9.33993888 -22.75886314 7.35523703 -19 5 C-18.43023437 4.62746094 -17.86046875 4.25492188 -17.2734375 3.87109375 C-11.94578053 0.57475804 -6.21635822 -1.91590641 0 0 Z " fill="#E3892F" transform="translate(77,13)"/>
<path d="M0 0 C0.88494141 -0.01224609 1.76988281 -0.02449219 2.68164062 -0.03710938 C3.52791016 -0.03904297 4.37417969 -0.04097656 5.24609375 -0.04296875 C6.02525146 -0.04707764 6.80440918 -0.05118652 7.60717773 -0.05541992 C9.5625 0.1875 9.5625 0.1875 11.5625 2.1875 C6.61898175 2.95421049 1.7160263 3.45283673 -3.28125 3.71875 C-4.43010681 3.78104797 -4.43010681 3.78104797 -5.60217285 3.84460449 C-17.82705417 4.4575663 -30.07253934 4.55014831 -42.30957031 4.73974609 C-45.59186393 4.79182324 -48.87404552 4.84886573 -52.15625 4.90625 C-53.14185913 4.91982544 -54.12746826 4.93340088 -55.14294434 4.9473877 C-61.28702837 5.05640454 -67.33368798 5.47564516 -73.4375 6.1875 C-73.4375 5.5275 -73.4375 4.8675 -73.4375 4.1875 C-59.18931751 2.52376969 -45.08821567 1.82191655 -30.75 1.625 C-27.82740963 1.58094811 -24.90492283 1.53447213 -21.98246765 1.48219299 C-20.18633643 1.4503837 -18.39011066 1.42344841 -16.59382629 1.40196228 C-10.81944621 1.30413599 -6.01715745 0.00436342 0 0 Z " fill="#DC8E48" transform="translate(152.4375,5.8125)"/>
<path d="M0 0 C0.33 0 0.66 0 1 0 C1.41277905 37.0834351 1.41277905 37.0834351 -1 51 C-1.33 51 -1.66 51 -2 51 C-2 35.49 -2 19.98 -2 4 C-1.34 4 -0.68 4 0 4 C0 2.68 0 1.36 0 0 Z " fill="#CD7F3A" transform="translate(270,113)"/>
<path d="M0 0 C0.33 0 0.66 0 1 0 C1.02484561 6.24389358 1.0429287 12.48775795 1.05493164 18.73168945 C1.05993918 20.85278831 1.06674715 22.97388375 1.07543945 25.0949707 C1.08766252 28.15577033 1.09326425 31.21652404 1.09765625 34.27734375 C1.10281754 35.21521225 1.10797882 36.15308075 1.11329651 37.11936951 C1.11452577 51.77094846 1.11452577 51.77094846 -1 56 C-1.66 56 -2.32 56 -3 56 C-3.02727345 53.33326258 -3.04696948 50.66681131 -3.0625 48 C-3.07087891 47.25621094 -3.07925781 46.51242188 -3.08789062 45.74609375 C-3.10966272 40.73851156 -2.71541549 35.95720968 -2 31 C-1.34 31 -0.68 31 0 31 C0 20.77 0 10.54 0 0 Z " fill="#CC7C37" transform="translate(31,103)"/>
<path d="M0 0 C1 2 1 2 0.3984375 4.13671875 C-1.83536304 9.70416819 -4.30075917 14.27319227 -8 19 C-7.34 19.66 -6.68 20.32 -6 21 C-10.30972626 25.09949571 -12.85310727 26.63118644 -19 27 C-17.73882275 23.11137013 -16.54735833 21.10624401 -13 19 C-12.34 19 -11.68 19 -11 19 C-10.566875 18.1028125 -10.566875 18.1028125 -10.125 17.1875 C-9 15 -9 15 -7 12 C-6.34 12 -5.68 12 -5 12 C-4.87753906 11.42765625 -4.75507813 10.8553125 -4.62890625 10.265625 C-3.97237132 7.90046809 -3.06276488 5.92793203 -1.9375 3.75 C-1.57527344 3.04359375 -1.21304687 2.3371875 -0.83984375 1.609375 C-0.56269531 1.07828125 -0.28554688 0.5471875 0 0 Z " fill="#DC8A36" transform="translate(261,208)"/>
<path d="M0 0 C11.88 0 23.76 0 36 0 C36 0.66 36 1.32 36 2 C22.36768465 3.41110843 8.68590943 3.0962545 -5 3 C-5 2.67 -5 2.34 -5 2 C-3.35 1.67 -1.7 1.34 0 1 C0 0.67 0 0.34 0 0 Z " fill="#C27231" transform="translate(162,6)"/>
<path d="M0 0 C5.21919516 0.69589269 10.37524139 1.60811183 15.546875 2.59765625 C18.07909086 3.08092514 18.07909086 3.08092514 21 3 C21 3.66 21 4.32 21 5 C22.04341553 5.03758423 22.04341553 5.03758423 23.10791016 5.07592773 C26.28043455 5.19245974 29.45270355 5.31492568 32.625 5.4375 C33.71941406 5.47681641 34.81382813 5.51613281 35.94140625 5.55664062 C37.00488281 5.59853516 38.06835938 5.64042969 39.1640625 5.68359375 C40.13811035 5.72025146 41.1121582 5.75690918 42.11572266 5.79467773 C45.1254852 6.00893288 48.03295916 6.45931357 51 7 C51 7.33 51 7.66 51 8 C33.51927744 8.44505376 16.21240827 8.13890919 0 1 C0 0.67 0 0.34 0 0 Z " fill="#A34F11" transform="translate(61,241)"/>
<path d="M0 0 C0.66 0.33 1.32 0.66 2 1 C4.32416296 1.08586809 6.65083307 1.10711043 8.9765625 1.09765625 C9.66181 1.0962413 10.3470575 1.09482635 11.05307007 1.09336853 C13.24375761 1.08776675 15.4343433 1.07521406 17.625 1.0625 C19.10937352 1.05748522 20.59374865 1.05292228 22.078125 1.04882812 C25.71878315 1.03779677 29.35938164 1.02053099 33 1 C33 1.33 33 1.66 33 2 C26.73 2.33 20.46 2.66 14 3 C13.67 3.66 13.34 4.32 13 5 C4.42 4.34 -4.16 3.68 -13 3 C-13 2.34 -13 1.68 -13 1 C-11.71802734 1.01740234 -11.71802734 1.01740234 -10.41015625 1.03515625 C-8.75306641 1.04869141 -8.75306641 1.04869141 -7.0625 1.0625 C-5.40927734 1.07990234 -5.40927734 1.07990234 -3.72265625 1.09765625 C-1.08552366 1.31262571 -1.08552366 1.31262571 0 0 Z " fill="#B95E15" transform="translate(104,244)"/>
<path d="M0 0 C9.24 0 18.48 0 28 0 C27.67 0.66 27.34 1.32 27 2 C23.47461603 2.98390932 20.12462555 3.11801467 16.48046875 3.09765625 C15.45888672 3.09443359 14.43730469 3.09121094 13.38476562 3.08789062 C12.32966797 3.07951172 11.27457031 3.07113281 10.1875 3.0625 C9.11306641 3.05798828 8.03863281 3.05347656 6.93164062 3.04882812 C4.28770317 3.03707729 1.64388048 3.02064787 -1 3 C-0.67 2.01 -0.34 1.02 0 0 Z " fill="#BB641E" transform="translate(118,246)"/>
<path d="M0 0 C0.33 0 0.66 0 1 0 C1.10902914 11.71811669 1.09908609 23.3222103 0 35 C-0.33 35 -0.66 35 -1 35 C-1.22786458 32.94921875 -1.45572917 30.8984375 -1.68359375 28.84765625 C-1.81886614 26.98859771 -1.81886614 26.98859771 -3 26 C-3.07313567 23.46950598 -3.09247527 20.96695163 -3.0625 18.4375 C-3.05798828 17.72658203 -3.05347656 17.01566406 -3.04882812 16.28320312 C-3.03700864 14.52209987 -3.01907263 12.76103964 -3 11 C-2.34 11 -1.68 11 -1 11 C-0.67 7.37 -0.34 3.74 0 0 Z " fill="#C06C29" transform="translate(31,148)"/>
<path d="M0 0 C6.7685324 -0.10152799 13.30324864 -0.03026944 20 1 C20 1.99 20 2.98 20 4 C21.65 4 23.3 4 25 4 C24.67 4.66 24.34 5.32 24 6 C19.25 6.125 19.25 6.125 17 5 C15.62657169 4.9310528 14.24997898 4.91532292 12.875 4.9375 C11.59625 4.958125 10.3175 4.97875 9 5 C9.33 4.34 9.66 3.68 10 3 C6.7 2.67 3.4 2.34 0 2 C0 1.34 0 0.68 0 0 Z " fill="#B35B19" transform="translate(198,6)"/>
<path d="M0 0 C0.33 0 0.66 0 1 0 C1 3.3 1 6.6 1 10 C0.01 10 -0.98 10 -2 10 C-1.98839844 10.94359375 -1.97679687 11.8871875 -1.96484375 12.859375 C-1.90784657 20.96925884 -2.15769764 28.92292197 -3 37 C-3.33 37 -3.66 37 -4 37 C-4.08789715 32.68763079 -4.1406923 28.3754955 -4.1875 24.0625 C-4.21263672 22.85013672 -4.23777344 21.63777344 -4.26367188 20.38867188 C-4.32186014 13.23151535 -3.7863812 7.61853268 -1 1 C-0.67 0.67 -0.34 0.34 0 0 Z " fill="#B55911" transform="translate(270,81)"/>
<path d="M0 0 C0.66 0.33 1.32 0.66 2 1 C-3.87655801 8.61776039 -14.85775036 11.29551278 -24 13 C-26.69245692 13.13485536 -29.30125351 13.0963838 -32 13 C-32 12.67 -32 12.34 -32 12 C-30.35 12 -28.7 12 -27 12 C-27 11.34 -27 10.68 -27 10 C-26.19175781 9.89042969 -25.38351563 9.78085938 -24.55078125 9.66796875 C-23.48214844 9.50941406 -22.41351563 9.35085937 -21.3125 9.1875 C-20.25675781 9.03667969 -19.20101562 8.88585937 -18.11328125 8.73046875 C-14.8768156 7.97109726 -12.79409589 6.75096675 -10 5 C-6.1875 4.3125 -6.1875 4.3125 -3 4 C-3 3.34 -3 2.68 -3 2 C-2.01 1.34 -1.02 0.68 0 0 Z " fill="#D8791C" transform="translate(242,232)"/>
<path d="M0 0 C-0.27912628 3.43859819 -0.65239956 4.6928044 -3.28515625 7.01953125 C-4.65994141 7.90705078 -4.65994141 7.90705078 -6.0625 8.8125 C-6.98160156 9.41707031 -7.90070313 10.02164063 -8.84765625 10.64453125 C-9.55792969 11.09183594 -10.26820313 11.53914062 -11 12 C-11.33 11.34 -11.66 10.68 -12 10 C-12.66 9.67 -13.32 9.34 -14 9 C-12.6696875 8.1646875 -12.6696875 8.1646875 -11.3125 7.3125 C-8.94338035 5.75357457 -7.34432904 4.32908087 -5.3125 2.25 C-3 0 -3 0 0 0 Z " fill="#F2E4D7" transform="translate(167,124)"/>
<path d="M0 0 C1.66289062 0.00966797 1.66289062 0.00966797 3.359375 0.01953125 C4.50148437 0.03628906 5.64359375 0.05304688 6.8203125 0.0703125 C8.56828125 0.08384766 8.56828125 0.08384766 10.3515625 0.09765625 C13.21635827 0.12113818 16.08072785 0.15398109 18.9453125 0.1953125 C18.9453125 0.5253125 18.9453125 0.8553125 18.9453125 1.1953125 C-2.66208333 3.58308056 -2.66208333 3.58308056 -12.0546875 3.1953125 C-12.0546875 2.8653125 -12.0546875 2.5353125 -12.0546875 2.1953125 C-7.87705847 0.62121238 -4.45744269 -0.04595302 0 0 Z " fill="#C97730" transform="translate(152.0546875,245.8046875)"/>
<path d="M0 0 C0.33 0 0.66 0 1 0 C1.32780547 4.04293417 0.70634339 7.28812726 -0.4375 11.125 C-2.16566693 17.05130829 -2.68891428 22.85337533 -3 29 C-3.33 29 -3.66 29 -4 29 C-4.4610245 6.69153675 -4.4610245 6.69153675 0 0 Z " fill="#E0A66F" transform="translate(33,47)"/>
<path d="M0 0 C0.33 0 0.66 0 1 0 C1.19676277 8.29683005 1.25943749 15.95075394 -1 24 C-1.33 24 -1.66 24 -2 24 C-2 17.4 -2 10.8 -2 4 C-1.34 4 -0.68 4 0 4 C0 2.68 0 1.36 0 0 Z " fill="#C5732D" transform="translate(270,113)"/>
<path d="M0 0 C1.45831816 4.72862852 0.47779722 8.8331526 -0.3125 13.625 C-0.44333984 14.49640625 -0.57417969 15.3678125 -0.70898438 16.265625 C-0.84240234 17.09835938 -0.97582031 17.93109375 -1.11328125 18.7890625 C-1.23485596 19.54912598 -1.35643066 20.30918945 -1.48168945 21.09228516 C-2 23 -2 23 -4 25 C-4.58974578 15.90808586 -3.08745074 8.54562257 0 0 Z " fill="#DB7B20" transform="translate(36,49)"/>
<path d="M0 0 C7.92 0 15.84 0 24 0 C24 0.33 24 0.66 24 1 C20.85495307 1.34103465 17.70886583 1.67137463 14.5625 2 C13.24475586 2.14308594 13.24475586 2.14308594 11.90039062 2.2890625 C6.23241145 2.87468396 0.69811032 3.09274645 -5 3 C-5 2.67 -5 2.34 -5 2 C-3.35 1.67 -1.7 1.34 0 1 C0 0.67 0 0.34 0 0 Z " fill="#C87F42" transform="translate(162,6)"/>
<path d="M0 0 C0.66 0.33 1.32 0.66 2 1 C3.99960012 1.039992 6.00047242 1.04346799 8 1 C7.67 1.99 7.34 2.98 7 4 C0.4 3.67 -6.2 3.34 -13 3 C-13 2.34 -13 1.68 -13 1 C-11.71802734 1.01740234 -11.71802734 1.01740234 -10.41015625 1.03515625 C-8.75306641 1.04869141 -8.75306641 1.04869141 -7.0625 1.0625 C-5.40927734 1.07990234 -5.40927734 1.07990234 -3.72265625 1.09765625 C-1.08552366 1.31262571 -1.08552366 1.31262571 0 0 Z " fill="#B4570F" transform="translate(104,244)"/>
<path d="M0 0 C1 2 1 2 0.3984375 4.20703125 C-2.22729056 10.89161376 -4.92261979 14.94841319 -11 19 C-9.79618552 16.50638429 -8.54571278 14.31856917 -7 12 C-6.34 12 -5.68 12 -5 12 C-4.87753906 11.42765625 -4.75507813 10.8553125 -4.62890625 10.265625 C-3.97237132 7.90046809 -3.06276488 5.92793203 -1.9375 3.75 C-1.57527344 3.04359375 -1.21304687 2.3371875 -0.83984375 1.609375 C-0.56269531 1.07828125 -0.28554688 0.5471875 0 0 Z " fill="#DA7919" transform="translate(261,208)"/>
<path d="M0 0 C1.61648437 0.04060547 1.61648437 0.04060547 3.265625 0.08203125 C4.08546875 0.11683594 4.9053125 0.15164062 5.75 0.1875 C5.42 0.8475 5.09 1.5075 4.75 2.1875 C-0.05603519 3.73783393 -5.25819059 3.2747355 -10.25 3.1875 C-6.86416198 0.05642164 -4.53890538 -0.14800778 0 0 Z " fill="#C16D27" transform="translate(140.25,245.8125)"/>
<path d="M0 0 C5.23880078 0.55145271 9.97350697 1.42922093 15 3 C15 3.66 15 4.32 15 5 C9.33895411 4.50341703 5.12325529 3.45489316 0 1 C0 0.67 0 0.34 0 0 Z " fill="#AA4E0D" transform="translate(61,239)"/>
<path d="M0 0 C2.96175123 0.61277612 4.38058783 1.25372522 7 3 C7.6875 5.125 7.6875 5.125 8 7 C2.25 5.25 2.25 5.25 0 3 C0 2.01 0 1.02 0 0 Z " fill="#FAF4EB" transform="translate(157,143)"/>
<path d="M0 0 C1.11375 0.556875 1.11375 0.556875 2.25 1.125 C0.75 2.6875 0.75 2.6875 -1.75 4.125 C-4.52437543 4.09323234 -7.00286467 3.62864148 -9.75 3.125 C-3.42692308 -1.09038462 -3.42692308 -1.09038462 0 0 Z " fill="#F4E6DC" transform="translate(141.75,139.875)"/>
<path d="M0 0 C0.33 0 0.66 0 1 0 C1.027193 1.58323688 1.04648306 3.16661062 1.0625 4.75 C1.07410156 5.63171875 1.08570313 6.5134375 1.09765625 7.421875 C1.00826198 9.7818838 0.66912821 11.74498524 0 14 C-0.66 14 -1.32 14 -2 14 C-2 11.03 -2 8.06 -2 5 C-1.67 5 -1.34 5 -1 5 C-0.67 3.35 -0.34 1.7 0 0 Z " fill="#BD6A25" transform="translate(270,103)"/>
<path d="M0 0 C0.66 0.33 1.32 0.66 2 1 C-1.3 4.63 -4.6 8.26 -8 12 C-8 8.67852297 -7.57859297 8.02032019 -5.6875 5.4375 C-5.25824219 4.83808594 -4.82898437 4.23867188 -4.38671875 3.62109375 C-3 2 -3 2 0 0 Z " fill="#DD7B17" transform="translate(52,24)"/>
<path d="M0 0 C-1.03125 0.433125 -2.0625 0.86625 -3.125 1.3125 C-5.60540725 2.36403168 -7.92097139 3.48655092 -10.3125 4.75 C-11.199375 5.1625 -12.08625 5.575 -13 6 C-13.66 5.67 -14.32 5.34 -15 5 C-10.87384475 1.53402959 -5.43913747 -2.39322049 0 0 Z " fill="#DD7E23" transform="translate(77,13)"/>
<path d="M0 0 C0.66 0.33 1.32 0.66 2 1 C-0.64 3.64 -3.28 6.28 -6 9 C-6.33 8.01 -6.66 7.02 -7 6 C-4.69 4.02 -2.38 2.04 0 0 Z " fill="#F6EADE" transform="translate(140,121)"/>
<path d="M0 0 C0.66 0 1.32 0 2 0 C1.64950425 3.24208567 1.43778819 4.61527704 -1.0625 6.8125 C-1.701875 7.204375 -2.34125 7.59625 -3 8 C-2.25 2.25 -2.25 2.25 0 0 Z " fill="#E6AD70" transform="translate(40,32)"/>
<path d="M0 0 C0.33 0 0.66 0 1 0 C1.33 3.96 1.66 7.92 2 12 C0.68 11.34 -0.64 10.68 -2 10 C-1.34 9.67 -0.68 9.34 0 9 C0 6.03 0 3.06 0 0 Z " fill="#B77846" transform="translate(183,152)"/>
<path d="M0 0 C0.66 0 1.32 0 2 0 C2 0.66 2 1.32 2 2 C3.65 2 5.3 2 7 2 C7 2.33 7 2.66 7 3 C3.7 3.66 0.4 4.32 -3 5 C-1.625 2.5 -1.625 2.5 0 0 Z " fill="#E9A05B" transform="translate(72,9)"/>
</svg>
