<?xml version="1.0" encoding="UTF-8"?>
<svg version="1.1" xmlns="http://www.w3.org/2000/svg" width="457" height="302">
<path d="M0 0 C150.81 0 301.62 0 457 0 C457 99.66 457 199.32 457 302 C306.19 302 155.38 302 0 302 C0 202.34 0 102.68 0 0 Z " fill="#03273C" transform="translate(0,0)"/>
<path d="M0 0 C150.81 0 301.62 0 457 0 C457 99.66 457 199.32 457 302 C306.19 302 155.38 302 0 302 C0 202.34 0 102.68 0 0 Z M87 21 C86.44699219 21.51820312 85.89398438 22.03640625 85.32421875 22.5703125 C81.57055929 26.43526644 79.20010714 31.06369683 76.75 35.8125 C76.23735596 36.79005249 76.23735596 36.79005249 75.71435547 37.78735352 C70.18143423 48.97863094 70.70183086 60.72526216 70.70947266 72.90527344 C70.70348071 74.81504578 70.69667364 76.72481572 70.68911743 78.63458252 C70.67151816 83.80006796 70.66676462 88.96548704 70.66548586 94.13099957 C70.66406027 97.36444213 70.65978295 100.59786804 70.65449142 103.83130646 C70.63601129 115.12941043 70.62781829 126.42746735 70.62939453 137.72558594 C70.6305954 148.22861034 70.60949844 158.73142908 70.5779072 169.23440146 C70.55168853 178.2759458 70.54102958 187.31742319 70.54230535 196.35900521 C70.54281333 201.74842082 70.53722093 207.13765348 70.51594925 212.52703094 C70.49647241 217.59971594 70.4965066 222.67204522 70.51098251 227.74474335 C70.51306003 229.59654261 70.50843351 231.4483647 70.4962616 233.30012512 C70.37891433 252.40401712 74.08218463 269.56773178 87.79296875 283.82421875 C88.52128906 284.54222656 89.24960938 285.26023437 90 286 C90.55300781 286.56332031 91.10601562 287.12664062 91.67578125 287.70703125 C101.36441043 296.81867011 113.55022927 301.32045778 126.65715027 301.26742554 C127.49194155 301.27195665 128.32673282 301.27648776 129.18682081 301.28115618 C131.96469249 301.29374606 134.74236674 301.29218332 137.52026367 301.29052734 C139.52003225 301.29651604 141.51979852 301.30332237 143.51956177 301.31088257 C148.93922197 301.32851664 154.35881897 301.33323691 159.77850509 301.33451414 C163.16905288 301.33593796 166.55958473 301.34021196 169.95012856 301.34550858 C181.79171388 301.36400145 193.63325423 301.37218026 205.47485352 301.37060547 C216.49135777 301.36940482 227.50766587 301.39049422 238.52412051 301.4220928 C247.99957514 301.44829717 257.47496588 301.45897099 266.95045644 301.45769465 C272.60199689 301.45718617 278.253363 301.46280604 283.90486717 301.48405075 C289.22457086 301.50350282 294.54393518 301.50351002 299.86365128 301.48901749 C301.80778439 301.48693681 303.75193914 301.49158569 305.69603539 301.5037384 C324.48441346 301.61350853 339.65999841 298.21200355 353.8125 284.8125 C362.40749089 275.7345053 366.89692887 266.01188823 370 254 C370.17708874 253.44357787 370.35417747 252.88715574 370.53663254 252.31387234 C371.21186352 248.94203808 371.14444014 245.58987965 371.14044189 242.1655426 C371.14341302 241.370921 371.14638414 240.57629939 371.1494453 239.75759834 C371.15812495 237.09172484 371.15963996 234.42589628 371.16113281 231.76000977 C371.1657617 229.84950159 371.17078646 227.93899434 371.17617798 226.02848816 C371.18930177 220.83380329 371.19574752 215.63913135 371.20018864 210.4444325 C371.20312089 207.19595939 371.20722611 203.94748981 371.21169281 200.69901848 C371.22537098 190.52699124 371.23503468 180.35497205 371.2388947 170.18293625 C371.24336894 158.45752042 371.26088603 146.73222153 371.2898953 135.00684124 C371.31155687 125.93486786 371.32160146 116.86292726 371.32293582 107.7909283 C371.32398113 102.37744999 371.32982991 96.96408156 371.34775543 91.55063057 C371.36431236 86.45099875 371.3663548 81.35155848 371.35761642 76.25190926 C371.35684997 74.38840723 371.36113656 72.52489459 371.37107468 70.66141891 C371.47034575 50.87343168 368.45305617 34.95456658 354.16015625 20.13671875 C353.44730469 19.43160156 352.73445313 18.72648437 352 18 C351.48308594 17.44957031 350.96617187 16.89914063 350.43359375 16.33203125 C346.57176709 12.57103557 341.93840719 10.2011927 337.1875 7.75 C336.53579834 7.4082373 335.88409668 7.06647461 335.21264648 6.71435547 C323.96341122 1.15278011 312.13784131 1.70187835 299.89526367 1.70947266 C297.96416465 1.70348091 296.03306802 1.69667388 294.10197449 1.68911743 C288.87870695 1.67151736 283.65550502 1.66676462 278.43221068 1.66548586 C275.16326393 1.66406045 271.89433365 1.6597835 268.62539101 1.65449142 C257.20524671 1.63601188 245.78514898 1.62781832 234.36499023 1.62939453 C223.74493126 1.63059577 213.12507556 1.60949136 202.505068 1.5779072 C193.36502641 1.55169986 184.22505105 1.54102909 175.0849722 1.54230535 C169.63578557 1.54281361 164.18677981 1.53720538 158.73763084 1.51594925 C153.60995814 1.49649131 148.48263746 1.49649388 143.35495186 1.51098251 C141.48176938 1.51306226 139.60856441 1.50841992 137.73542023 1.4962616 C117.36428289 1.3726824 101.72690737 6.35128859 87 21 Z " fill="#FEFEFE" transform="translate(0,0)"/>
<path d="M0 0 C1.96484375 0.20239258 1.96484375 0.20239258 4 1 C4.94140625 2.63549805 4.94140625 2.63549805 5.5625 4.76171875 C5.80000977 5.54458252 6.03751953 6.32744629 6.28222656 7.1340332 C6.5190918 7.97667725 6.75595703 8.81932129 7 9.6875 C7.38236816 10.9717688 7.38236816 10.9717688 7.77246094 12.28198242 C8.53251991 14.84993702 9.26909623 17.42361481 10 20 C10.40054036 21.38816558 10.80153648 22.77619979 11.203125 24.1640625 C11.85807776 26.44662174 12.50520389 28.73145787 13.140625 31.01953125 C13.73408151 33.07774633 14.39513752 35.11723744 15.109375 37.13671875 C16 40 16 40 16 44 C16.81339844 44.11214844 17.62679687 44.22429687 18.46484375 44.33984375 C29.43335867 46.22756342 40.5753851 50.56555872 49.1796875 57.84375 C50.9664807 59.22137832 50.9664807 59.22137832 53.3125 58.90625 C56.71905031 57.75752955 59.83554546 56.1836521 63 54.5 C66.93259108 52.40765987 70.53042779 50.60948712 75 50 C74.37510156 52.99126934 73.39976111 55.29875452 71.86328125 57.93359375 C71.45142578 58.66513672 71.03957031 59.39667969 70.61523438 60.15039062 C69.74553338 61.67725699 68.86525365 63.19814526 67.97460938 64.71289062 C65.44820336 68.9993204 65.44820336 68.9993204 65.55859375 73.78515625 C66.03425781 74.51605469 66.50992188 75.24695313 67 76 C67.42796875 76.66 67.8559375 77.32 68.296875 78 C68.77640625 78.66 69.2559375 79.32 69.75 80 C74.77519677 87.39649989 78.7043826 95.08220561 79.75 104 C80.23074848 106.77036785 80.23074848 106.77036785 82 109 C86.89535627 111.53169773 92.48980903 112.40241727 97.84326172 113.50585938 C100.56831974 114.13021046 103.06139134 115.08021363 105.625 116.1875 C108.46866321 117.40690961 111.17229018 118.36448179 114.1875 119.0625 C118.09230511 120.02269798 121.35808548 121.33078918 125 123 C124.34570312 124.87280273 124.34570312 124.87280273 123 127 C120.54492187 128.14086914 120.54492187 128.14086914 117.46875 129.03515625 C116.34726562 129.36966797 115.22578125 129.70417969 114.0703125 130.04882812 C112.89210938 130.38333984 111.71390625 130.71785156 110.5 131.0625 C109.35273438 131.40087891 108.20546875 131.73925781 107.0234375 132.08789062 C103.68565052 133.07059898 100.34355044 134.0371101 97 135 C95.07179532 135.55733294 93.14458309 136.11812032 91.21875 136.68359375 C90.42404297 136.9148999 89.62933594 137.14620605 88.81054688 137.38452148 C87.00220628 137.85049454 87.00220628 137.85049454 86 139 C84.33382885 139.04063832 82.66611905 139.042721 81 139 C80.62875 140.8871875 80.62875 140.8871875 80.25 142.8125 C77.96599694 152.94776357 74.17391245 164.06215416 67.25390625 172.00390625 C65.79088622 173.92380767 65.79088622 173.92380767 66.05859375 176.2421875 C67.36528488 180.07008764 69.17859567 183.55241458 71.0625 187.125 C71.80895457 188.5413497 72.55008457 189.96052191 73.28515625 191.3828125 C73.77834351 192.31697998 73.77834351 192.31697998 74.28149414 193.27001953 C75 195 75 195 75 198 C70.04545486 196.93060044 65.92763315 194.29797482 61.57617188 191.79492188 C56.59974552 188.99716967 56.59974552 188.99716967 51 189 C48.70211543 190.30124878 48.70211543 190.30124878 46.5 192.125 C39.01275565 197.62083761 31.1291916 201.55506258 21.9375 203.0625 C19.35214337 203.61175532 19.35214337 203.61175532 17 205 C15.68884874 207.56292353 15.68884874 207.56292353 14.984375 210.703125 C14.66331787 211.87367432 14.34226074 213.04422363 14.01147461 214.25024414 C13.67768799 215.48766357 13.34390137 216.72508301 13 218 C12.23885718 220.44567936 11.46401535 222.88713588 10.67578125 225.32421875 C10.28712891 226.53658203 9.89847656 227.74894531 9.49804688 228.99804688 C8.91120117 230.82432617 8.91120117 230.82432617 8.3125 232.6875 C7.9055688 233.96027682 7.49866764 235.23306324 7.09179688 236.50585938 C6.70701172 237.70404297 6.32222656 238.90222656 5.92578125 240.13671875 C5.57942627 241.21655029 5.23307129 242.29638184 4.8762207 243.40893555 C4 246 4 246 3 248 C1.13867187 247.84448242 1.13867187 247.84448242 -1 247 C-2.21679688 244.63012695 -2.21679688 244.63012695 -3.21875 241.48828125 C-3.77767944 239.77125 -3.77767944 239.77125 -4.34790039 238.01953125 C-4.72809326 236.79621094 -5.10828613 235.57289063 -5.5 234.3125 C-6.10026001 232.46785156 -6.10026001 232.46785156 -6.71264648 230.5859375 C-8.75032103 224.26341766 -10.54065558 217.96272048 -12.0625 211.5 C-13.06528385 207.57579752 -13.06528385 207.57579752 -15.625 204.6484375 C-17.75041938 203.7999838 -19.74809072 203.40118048 -22 203 C-31.12563731 200.16838904 -39.9052616 196.1295079 -47.37109375 190.078125 C-50.15246793 188.60298216 -50.15246793 188.60298216 -53.69921875 190.23828125 C-55.03975813 190.90788796 -56.36912524 191.60024516 -57.6875 192.3125 C-64.86410019 196 -64.86410019 196 -67 196 C-67 196.66 -67 197.32 -67 198 C-68.98 198.33 -70.96 198.66 -73 199 C-71.41567818 193.50097822 -68.73131728 188.97400445 -65.65820312 184.2109375 C-63.8477026 181.22739035 -62.99018618 179.33366975 -63.09375 175.8125 C-63.98803191 173.03714236 -64.92345011 171.29650589 -66.6875 169 C-72.24299243 161.11521676 -78 149.72699449 -78 140 C-78.64324219 139.82984375 -79.28648437 139.6596875 -79.94921875 139.484375 C-90.64495381 136.61590397 -101.17978485 133.30045592 -111.6875 129.8125 C-112.47842041 129.55041748 -113.26934082 129.28833496 -114.08422852 129.01831055 C-119.75381248 127.12309376 -119.75381248 127.12309376 -122 126 C-121.84008789 124.13867188 -121.84008789 124.13867188 -121 122 C-118.66186523 120.78320312 -118.66186523 120.78320312 -115.55859375 119.78125 C-114.42397705 119.40798584 -113.28936035 119.03472168 -112.12036133 118.65014648 C-110.29734497 118.08082397 -110.29734497 118.08082397 -108.4375 117.5 C-107.21506592 117.10562744 -105.99263184 116.71125488 -104.7331543 116.30493164 C-95.90463799 113.49434655 -87.05159811 110.98220296 -78 109 C-77.87625 107.98035156 -77.7525 106.96070313 -77.625 105.91015625 C-75.85438174 94.83272574 -71.13253738 85.95852516 -64.890625 76.86328125 C-62.8904266 74.10269657 -62.8904266 74.10269657 -62 71 C-63.10262558 68.63111603 -63.10262558 68.63111603 -64.75 66.1875 C-67.05446868 62.5334235 -69.06745329 58.86509341 -71 55 C-71.66 54.34 -72.32 53.68 -73 53 C-73 51.68 -73 50.36 -73 49 C-66.54677023 50.8914639 -60.787639 53.49590324 -54.96240234 56.83813477 C-52.09455413 58.38388794 -50.54949144 59.12896228 -47.3203125 58.37109375 C-45.15333557 57.09060738 -43.14070524 55.75570753 -41.125 54.25 C-37.06140668 51.47502939 -32.91802568 49.51815449 -28.375 47.6875 C-27.75383301 47.43323242 -27.13266602 47.17896484 -26.49267578 46.91699219 C-22.2952626 45.28336831 -18.44073818 44.48517062 -14 44 C-13.88825439 43.45617676 -13.77650879 42.91235352 -13.66137695 42.35205078 C-12.46831336 36.74603149 -10.95184256 31.32573111 -9.1875 25.875 C-8.92686768 25.06111816 -8.66623535 24.24723633 -8.39770508 23.40869141 C-7.60375212 20.93738323 -6.80292737 18.46840542 -6 16 C-5.62875 14.85337891 -5.62875 14.85337891 -5.25 13.68359375 C-1.19835183 1.19835183 -1.19835183 1.19835183 0 0 Z " fill="#04283C" transform="translate(220,27)"/>
<path d="M0 0 C1.96484375 0.20239258 1.96484375 0.20239258 4 1 C4.94140625 2.63549805 4.94140625 2.63549805 5.5625 4.76171875 C5.80000977 5.54458252 6.03751953 6.32744629 6.28222656 7.1340332 C6.5190918 7.97667725 6.75595703 8.81932129 7 9.6875 C7.38236816 10.9717688 7.38236816 10.9717688 7.77246094 12.28198242 C8.53251991 14.84993702 9.26909623 17.42361481 10 20 C10.40054036 21.38816558 10.80153648 22.77619979 11.203125 24.1640625 C11.85807776 26.44662174 12.50520389 28.73145787 13.140625 31.01953125 C13.73408151 33.07774633 14.39513752 35.11723744 15.109375 37.13671875 C16 40 16 40 16 44 C16.81339844 44.11214844 17.62679687 44.22429687 18.46484375 44.33984375 C29.43335867 46.22756342 40.5753851 50.56555872 49.1796875 57.84375 C50.9664807 59.22137832 50.9664807 59.22137832 53.3125 58.90625 C56.71905031 57.75752955 59.83554546 56.1836521 63 54.5 C66.93259108 52.40765987 70.53042779 50.60948712 75 50 C74.37510156 52.99126934 73.39976111 55.29875452 71.86328125 57.93359375 C71.45142578 58.66513672 71.03957031 59.39667969 70.61523438 60.15039062 C69.74553338 61.67725699 68.86525365 63.19814526 67.97460938 64.71289062 C65.44820336 68.9993204 65.44820336 68.9993204 65.55859375 73.78515625 C66.03425781 74.51605469 66.50992188 75.24695313 67 76 C67.42796875 76.66 67.8559375 77.32 68.296875 78 C68.77640625 78.66 69.2559375 79.32 69.75 80 C74.77519677 87.39649989 78.7043826 95.08220561 79.75 104 C80.23074848 106.77036785 80.23074848 106.77036785 82 109 C86.89535627 111.53169773 92.48980903 112.40241727 97.84326172 113.50585938 C100.56831974 114.13021046 103.06139134 115.08021363 105.625 116.1875 C108.46866321 117.40690961 111.17229018 118.36448179 114.1875 119.0625 C118.09230511 120.02269798 121.35808548 121.33078918 125 123 C124.34570312 124.87280273 124.34570312 124.87280273 123 127 C120.54492187 128.14086914 120.54492187 128.14086914 117.46875 129.03515625 C116.34726562 129.36966797 115.22578125 129.70417969 114.0703125 130.04882812 C112.89210938 130.38333984 111.71390625 130.71785156 110.5 131.0625 C109.35273438 131.40087891 108.20546875 131.73925781 107.0234375 132.08789062 C103.68565052 133.07059898 100.34355044 134.0371101 97 135 C95.07179532 135.55733294 93.14458309 136.11812032 91.21875 136.68359375 C90.42404297 136.9148999 89.62933594 137.14620605 88.81054688 137.38452148 C87.00220628 137.85049454 87.00220628 137.85049454 86 139 C84.33382885 139.04063832 82.66611905 139.042721 81 139 C80.62875 140.8871875 80.62875 140.8871875 80.25 142.8125 C77.96599694 152.94776357 74.17391245 164.06215416 67.25390625 172.00390625 C65.79088622 173.92380767 65.79088622 173.92380767 66.05859375 176.2421875 C67.36528488 180.07008764 69.17859567 183.55241458 71.0625 187.125 C71.80895457 188.5413497 72.55008457 189.96052191 73.28515625 191.3828125 C73.77834351 192.31697998 73.77834351 192.31697998 74.28149414 193.27001953 C75 195 75 195 75 198 C70.04545486 196.93060044 65.92763315 194.29797482 61.57617188 191.79492188 C56.59974552 188.99716967 56.59974552 188.99716967 51 189 C48.70211543 190.30124878 48.70211543 190.30124878 46.5 192.125 C39.01275565 197.62083761 31.1291916 201.55506258 21.9375 203.0625 C19.35214337 203.61175532 19.35214337 203.61175532 17 205 C15.68884874 207.56292353 15.68884874 207.56292353 14.984375 210.703125 C14.66331787 211.87367432 14.34226074 213.04422363 14.01147461 214.25024414 C13.67768799 215.48766357 13.34390137 216.72508301 13 218 C12.23885718 220.44567936 11.46401535 222.88713588 10.67578125 225.32421875 C10.28712891 226.53658203 9.89847656 227.74894531 9.49804688 228.99804688 C8.91120117 230.82432617 8.91120117 230.82432617 8.3125 232.6875 C7.9055688 233.96027682 7.49866764 235.23306324 7.09179688 236.50585938 C6.70701172 237.70404297 6.32222656 238.90222656 5.92578125 240.13671875 C5.57942627 241.21655029 5.23307129 242.29638184 4.8762207 243.40893555 C4 246 4 246 3 248 C1.13867187 247.84448242 1.13867187 247.84448242 -1 247 C-2.21679688 244.63012695 -2.21679688 244.63012695 -3.21875 241.48828125 C-3.77767944 239.77125 -3.77767944 239.77125 -4.34790039 238.01953125 C-4.72809326 236.79621094 -5.10828613 235.57289063 -5.5 234.3125 C-6.10026001 232.46785156 -6.10026001 232.46785156 -6.71264648 230.5859375 C-8.75032103 224.26341766 -10.54065558 217.96272048 -12.0625 211.5 C-13.06528385 207.57579752 -13.06528385 207.57579752 -15.625 204.6484375 C-17.75041938 203.7999838 -19.74809072 203.40118048 -22 203 C-31.12563731 200.16838904 -39.9052616 196.1295079 -47.37109375 190.078125 C-50.15246793 188.60298216 -50.15246793 188.60298216 -53.69921875 190.23828125 C-55.03975813 190.90788796 -56.36912524 191.60024516 -57.6875 192.3125 C-64.86410019 196 -64.86410019 196 -67 196 C-67 196.66 -67 197.32 -67 198 C-68.98 198.33 -70.96 198.66 -73 199 C-71.41567818 193.50097822 -68.73131728 188.97400445 -65.65820312 184.2109375 C-63.8477026 181.22739035 -62.99018618 179.33366975 -63.09375 175.8125 C-63.98803191 173.03714236 -64.92345011 171.29650589 -66.6875 169 C-72.24299243 161.11521676 -78 149.72699449 -78 140 C-78.64324219 139.82984375 -79.28648437 139.6596875 -79.94921875 139.484375 C-90.64495381 136.61590397 -101.17978485 133.30045592 -111.6875 129.8125 C-112.47842041 129.55041748 -113.26934082 129.28833496 -114.08422852 129.01831055 C-119.75381248 127.12309376 -119.75381248 127.12309376 -122 126 C-121.84008789 124.13867188 -121.84008789 124.13867188 -121 122 C-118.66186523 120.78320312 -118.66186523 120.78320312 -115.55859375 119.78125 C-114.42397705 119.40798584 -113.28936035 119.03472168 -112.12036133 118.65014648 C-110.29734497 118.08082397 -110.29734497 118.08082397 -108.4375 117.5 C-107.21506592 117.10562744 -105.99263184 116.71125488 -104.7331543 116.30493164 C-95.90463799 113.49434655 -87.05159811 110.98220296 -78 109 C-77.87625 107.98035156 -77.7525 106.96070313 -77.625 105.91015625 C-75.85438174 94.83272574 -71.13253738 85.95852516 -64.890625 76.86328125 C-62.8904266 74.10269657 -62.8904266 74.10269657 -62 71 C-63.10262558 68.63111603 -63.10262558 68.63111603 -64.75 66.1875 C-67.05446868 62.5334235 -69.06745329 58.86509341 -71 55 C-71.66 54.34 -72.32 53.68 -73 53 C-73 51.68 -73 50.36 -73 49 C-66.54677023 50.8914639 -60.787639 53.49590324 -54.96240234 56.83813477 C-52.09455413 58.38388794 -50.54949144 59.12896228 -47.3203125 58.37109375 C-45.15333557 57.09060738 -43.14070524 55.75570753 -41.125 54.25 C-37.06140668 51.47502939 -32.91802568 49.51815449 -28.375 47.6875 C-27.75383301 47.43323242 -27.13266602 47.17896484 -26.49267578 46.91699219 C-22.2952626 45.28336831 -18.44073818 44.48517062 -14 44 C-13.88825439 43.45617676 -13.77650879 42.91235352 -13.66137695 42.35205078 C-12.46831336 36.74603149 -10.95184256 31.32573111 -9.1875 25.875 C-8.92686768 25.06111816 -8.66623535 24.24723633 -8.39770508 23.40869141 C-7.60375212 20.93738323 -6.80292737 18.46840542 -6 16 C-5.62875 14.85337891 -5.62875 14.85337891 -5.25 13.68359375 C-1.19835183 1.19835183 -1.19835183 1.19835183 0 0 Z M-51 75 C-62.68710183 88.28968101 -69.63934749 104.59971628 -69.375 122.3125 C-69.36339844 123.31869385 -69.35179687 124.3248877 -69.33984375 125.36157227 C-68.87444637 146.64494723 -60.6977039 163.87814935 -45.375 178.625 C-30.86209196 191.25660515 -13.38939151 197.24053129 5.79980469 196.19091797 C26.17816888 194.42262227 43.48692425 185.3431836 56.8359375 169.80078125 C70.56135904 152.03701366 74.20112978 131.5826149 71.59375 109.5703125 C69.10184179 97.47144237 62.25299272 85.09289906 54 76 C53.39671875 75.31679687 52.7934375 74.63359375 52.171875 73.9296875 C40.17949803 61.10856903 23.10867621 53.39780726 5.6171875 52.796875 C-16.55891682 52.42459752 -35.37272157 58.87005715 -51 75 Z " fill="#C1A551" transform="translate(220,27)"/>
<path d="M0 0 C4.72794063 0.45028006 7.84075358 0.16836351 12.25 -1.5 C20.44182686 -4.44680174 28.79283249 -3.92919706 36.6796875 -0.328125 C45.07985019 4.48004893 49.82564809 10.9304231 53 20 C54.62505089 31.21910131 51.31146189 41.17351867 45.359375 50.59765625 C43.66795279 52.83839549 41.88183711 54.91722751 40 57 C39.32066406 57.80824219 38.64132812 58.61648437 37.94140625 59.44921875 C29.89151092 68.81923951 20.2863728 76.22433464 10 83 C9.18273437 83.60070312 8.36546875 84.20140625 7.5234375 84.8203125 C5 86 5 86 2.48828125 85.3828125 C-0.03451535 83.98081879 -2.43299326 82.50869119 -4.8125 80.875 C-5.60269531 80.33617187 -6.39289063 79.79734375 -7.20703125 79.2421875 C-7.79871094 78.83226562 -8.39039063 78.42234375 -9 78 C-7.66973318 74.00919953 -5.09451675 72.7481281 -1.75 70.5 C12.32466039 60.74594992 26.69469672 49.61060656 34.5 34 C35.25258703 29.48447781 35.36454351 25.40797562 34 21 C31.22550807 17.47334402 28.23652545 15.41217515 24 14 C18.24216053 13.52018004 15.85959359 13.94628979 10.90234375 17.09375 C7.06988246 18.91948105 3.11523566 18.64685591 -1 18 C-2.70915069 17.36824338 -4.39812462 16.6792325 -6.0625 15.9375 C-10.98367264 13.76320832 -14.82983861 13.39581949 -20 15 C-23.43615111 17.12017834 -25.80717883 19.09622164 -27 23 C-27.94388014 32.28148804 -24.4405091 38.4090054 -18.75 45.5625 C-17.50954868 47.04968343 -16.2628474 48.53178664 -15 50 C-9.48731507 49.37337826 -6.57830835 47.55932451 -2.24609375 44.27734375 C0.46110534 42.7377714 1.92954406 42.57598466 5 43 C7.01953125 44.09375 7.01953125 44.09375 8.8125 45.5 C9.41707031 45.9640625 10.02164063 46.428125 10.64453125 46.90625 C11.09183594 47.2671875 11.53914063 47.628125 12 48 C10.65684247 52.0294726 7.95408994 53.64860307 4.6875 56.125 C4.06536621 56.60493408 3.44323242 57.08486816 2.80224609 57.5793457 C0.87475913 59.06178332 -1.06091017 60.53277994 -3 62 C-3.60602051 62.45906738 -4.21204102 62.91813477 -4.83642578 63.39111328 C-8.21242339 65.94346856 -11.60078616 68.47860512 -15 71 C-28.75585724 64.70030432 -38.71227926 49.69519672 -44 36 C-46.66015909 26.9111231 -44.56618137 18.17242496 -40.25 9.984375 C-31.17198289 -4.42697717 -14.93000063 -6.28631606 0 0 Z " fill="#2C8E8A" transform="translate(219,123)"/>
<path d="M0 0 C1.31871094 0.00676758 1.31871094 0.00676758 2.6640625 0.01367188 C4.81773803 0.02537663 6.97137817 0.04330931 9.125 0.0625 C9.125 0.3925 9.125 0.7225 9.125 1.0625 C7.97644531 1.14886719 6.82789063 1.23523438 5.64453125 1.32421875 C-14.51206305 3.05385626 -32.09955803 10.71734587 -45.49365234 26.29541016 C-59.24534654 43.88727346 -61.51549219 63.55312965 -59.68896484 85.27490234 C-57.53576186 101.71554995 -46.86895815 116.62225674 -34.5234375 127.1484375 C-21.6745659 136.43449515 -8.42216955 140.32138088 7.125 142.0625 C7.125 142.3925 7.125 142.7225 7.125 143.0625 C-12.66560374 143.74843877 -30.27980576 139.47922857 -45.578125 126.234375 C-60.27125487 112.34087125 -69.39507753 96.39406265 -70.11328125 75.83984375 C-70.52315889 54.40726888 -65.53840225 38.19322806 -51.4296875 21.66796875 C-37.36165497 7.32029643 -20.1137768 -0.19689691 0 0 Z " fill="#66490F" transform="translate(220.875,79.9375)"/>
<path d="M0 0 C0.66 0 1.32 0 2 0 C1.731875 0.78375 1.46375 1.5675 1.1875 2.375 C-1.75293614 11.35106821 -4.14954559 19.4360374 -4.14717102 28.94798279 C-4.15084771 29.74275325 -4.1545244 30.53752372 -4.1583125 31.35637814 C-4.16931621 34.01680752 -4.1731876 36.67719779 -4.17700195 39.33764648 C-4.18326928 41.24667992 -4.18991632 43.15571214 -4.19691467 45.06474304 C-4.21793166 51.33351801 -4.2283173 57.60229315 -4.23828125 63.87109375 C-4.24233019 66.03303604 -4.24644715 68.19497821 -4.25063133 70.35692024 C-4.26968062 80.51879912 -4.28391021 90.68067075 -4.2922433 100.84256405 C-4.30200433 112.55101431 -4.32829539 124.25927496 -4.36874419 135.96765846 C-4.39897197 145.03032506 -4.41371863 154.09293753 -4.41702431 163.15565354 C-4.41936787 168.56192289 -4.42823726 173.96798962 -4.45348549 179.37420464 C-4.47688687 184.46732668 -4.48095119 189.56011443 -4.47072411 194.65327644 C-4.4702315 196.51314027 -4.47646979 198.37302124 -4.49028015 200.23283386 C-4.62352984 219.25612122 -0.99272343 236.51574512 12.6484375 250.75 C23.56991571 261.19978646 35.40153868 267.32915165 50.65715027 267.26742554 C51.49194155 267.27195665 52.32673282 267.27648776 53.18682081 267.28115618 C55.96469249 267.29374606 58.74236674 267.29218332 61.52026367 267.29052734 C63.52003225 267.29651604 65.51979852 267.30332237 67.51956177 267.31088257 C72.93922197 267.32851664 78.35881897 267.33323691 83.77850509 267.33451414 C87.16905288 267.33593796 90.55958473 267.34021196 93.95012856 267.34550858 C105.79171388 267.36400145 117.63325423 267.37218026 129.47485352 267.37060547 C140.49135777 267.36940482 151.50766587 267.39049422 162.52412051 267.4220928 C171.99957514 267.44829717 181.47496588 267.45897099 190.95045644 267.45769465 C196.60199689 267.45718617 202.253363 267.46280604 207.90486717 267.48405075 C213.22457086 267.50350282 218.54393518 267.50351002 223.86365128 267.48901749 C225.80778439 267.48693681 227.75193914 267.49158569 229.69603539 267.5037384 C243.1255075 267.5821994 254.91462293 266.69801817 266.625 259.375 C267.58664062 258.78460938 268.54828125 258.19421875 269.5390625 257.5859375 C271.36956097 256.40628293 273.18805701 255.20796199 275 254 C273.67379101 258.12755954 272.16431382 260.06559755 268.6875 262.625 C267.92824219 263.19476563 267.16898437 263.76453125 266.38671875 264.3515625 C265.59910156 264.89554687 264.81148438 265.43953125 264 266 C263.31665053 266.52114191 262.63330107 267.04228382 261.92924404 267.57921791 C257.82340169 269.57068984 254.25239004 269.41552533 249.74537659 269.38095093 C248.34261826 269.38797089 248.34261826 269.38797089 246.91152138 269.39513266 C243.77623806 269.40710372 240.64139012 269.397617 237.50610352 269.38818359 C235.25896957 269.39224838 233.01183762 269.39758973 230.76470947 269.40411377 C224.65937577 269.41780498 218.55419395 269.41248098 212.44885755 269.40297651 C206.06281957 269.39538838 199.67679471 269.40242326 193.29075623 269.40713501 C181.8774944 269.41294532 170.46431678 269.40361336 159.05106919 269.388357 C148.70645651 269.37495705 138.36194484 269.37727922 128.01733398 269.39111328 C116.00144412 269.40717488 103.98563054 269.41313989 91.96972603 269.40427649 C85.61026613 269.39959771 79.2508758 269.39898075 72.89142036 269.40888596 C66.91191301 269.41754849 60.93259647 269.41154653 54.95310974 269.39420319 C52.75771336 269.39023438 50.56230094 269.39137909 48.36691093 269.39799118 C45.3715924 269.40618109 42.37688649 269.39591553 39.38160706 269.38095093 C38.51146754 269.38764309 37.64132803 269.39433526 36.74482065 269.40123022 C31.73647759 269.35265173 28.3899003 268.68486757 24 266 C24 265.34 24 264.68 24 264 C22.9790625 263.6596875 22.9790625 263.6596875 21.9375 263.3125 C14.00947147 259.77018938 9.20629244 254.54319921 5 247 C5 246.01 5 245.02 5 244 C4.01 243.67 3.02 243.34 2 243 C0.46484375 240.59375 0.46484375 240.59375 -1.0625 237.5 C-1.82240234 235.99953125 -1.82240234 235.99953125 -2.59765625 234.46875 C-5.40405969 227.52700555 -6.29811189 220.7663359 -6.25396729 213.32302856 C-6.25864726 212.0858193 -6.25864726 212.0858193 -6.26342177 210.82361591 C-6.27133938 208.08562363 -6.26510262 205.34785684 -6.25878906 202.60986328 C-6.26150174 200.63625968 -6.26506422 198.66265708 -6.26940918 196.6890564 C-6.27850369 191.34602057 -6.27500072 186.00306225 -6.26865101 180.66002512 C-6.26357438 175.05711063 -6.26828721 169.45420261 -6.27142334 163.85128784 C-6.27505874 154.44137384 -6.27027569 145.03149126 -6.26074219 135.62158203 C-6.2498648 124.76014755 -6.25337975 113.8987882 -6.264395 103.03735554 C-6.27348756 93.6960963 -6.27474333 84.35485961 -6.26951766 75.01359737 C-6.26640797 69.44155896 -6.2659609 63.86955579 -6.27259064 58.29751968 C-6.27839191 53.05585613 -6.27431647 47.81428887 -6.26280212 42.57263565 C-6.2601701 40.65508178 -6.26089554 38.73751973 -6.26532745 36.81996918 C-6.31561311 12.84174665 -6.31561311 12.84174665 -1.875 3.8125 C-1.34519531 2.70841797 -1.34519531 2.70841797 -0.8046875 1.58203125 C-0.40636719 0.79892578 -0.40636719 0.79892578 0 0 Z " fill="#D8DADB" transform="translate(76,33)"/>
<path d="M0 0 C3.97851375 2.09040553 6.47198589 4.0837429 8.09375 8.28125 C8.8142856 14.66313672 7.93780165 18.12212804 4.09375 23.28125 C-0.22358382 26.2554133 -3.71701076 26.9299049 -8.90625 26.28125 C-13.24458918 24.02865081 -16.10912362 21.8739063 -17.90625 17.28125 C-18.64112974 12.91650971 -18.91585443 9.04329548 -16.6640625 5.11328125 C-12.23199481 -0.23386509 -7.0067555 -2.64189142 0 0 Z " fill="#2B8E89" transform="translate(227.90625,92.71875)"/>
<path d="M0 0 C0.76672266 0.00669217 1.53344531 0.01338433 2.32340199 0.02027929 C3.54807921 0.01325933 3.54807921 0.01325933 4.79749739 0.00609756 C7.54291383 -0.00590202 10.28783566 0.00362408 13.03325611 0.01304662 C14.99762982 0.00898309 16.96200123 0.00364245 18.9263683 -0.00288355 C24.26932076 -0.01658983 29.61209994 -0.0112446 34.95505553 -0.0017463 C40.53992953 0.00583423 46.12478841 -0.00119093 51.70966297 -0.00590479 C61.09066651 -0.01136749 70.47159926 -0.00415772 79.85259205 0.01011693 C90.70498411 0.02643965 101.55720706 0.02115971 112.40959501 0.00463772 C121.71836059 -0.00896817 131.02707519 -0.01090105 140.3358475 -0.00304627 C145.89938403 0.00163578 151.46284104 0.00224055 157.02637249 -0.00765574 C162.25730973 -0.01630989 167.48802862 -0.01033183 172.71894222 0.00702703 C174.64104178 0.01100037 176.56315965 0.0098434 178.48525196 0.00323904 C181.10481014 -0.00493321 183.72366431 0.00529264 186.34317738 0.02027929 C187.10766931 0.01358712 187.87216125 0.00689496 188.6598196 0 C193.33846133 0.05208096 194.44350182 0.43627045 198.3967815 3.40123022 C130.0867815 3.40123022 61.7767815 3.40123022 -8.6032185 3.40123022 C-5.31876506 0.11677678 -4.42257385 0.04941386 0 0 Z " fill="#F2F2F2" transform="translate(126.6032184958458,-0.40123021602630615)"/>
<path d="M0 0 C3.1875 0.5625 3.1875 0.5625 5.1875 2.5625 C5.75 5.1875 5.75 5.1875 5.1875 8.5625 C3.14676163 11.52503403 0.87434434 14.16743966 -1.8125 16.5625 C-2.4725 16.5625 -3.1325 16.5625 -3.8125 16.5625 C-3.8125 17.2225 -3.8125 17.8825 -3.8125 18.5625 C-4.4725 18.5625 -5.1325 18.5625 -5.8125 18.5625 C-5.8125 19.2225 -5.8125 19.8825 -5.8125 20.5625 C-8.78943988 22.05096994 -11.3262461 21.51975155 -14.625 21.3125 C-16.45998047 21.21195313 -16.45998047 21.21195313 -18.33203125 21.109375 C-21.93654965 20.54300847 -24.00975547 19.8901126 -26.8125 17.5625 C-26.8125 11.87019231 -26.8125 11.87019231 -25.8125 9.5625 C-22.46085936 7.4001512 -19.75720873 7.60174839 -15.9375 7.875 C-12.77932014 7.97325448 -11.36039819 7.99666284 -8.85546875 6.01171875 C-7.71640496 4.72866495 -6.58965845 3.43455198 -5.4765625 2.12890625 C-3.8125 0.5625 -3.8125 0.5625 0 0 Z " fill="#0E4251" transform="translate(233.8125,142.4375)"/>
<path d="M0 0 C0 3 0 3 -2 5.3125 C-9.00288703 11.91407545 -13.97521818 15.15023436 -23.64830017 15.14044189 C-25.00751134 15.14489858 -25.00751134 15.14489858 -26.39418131 15.1494453 C-29.44891328 15.15815894 -32.50360618 15.15964278 -35.55834961 15.16113281 C-37.74094222 15.16575904 -39.92353403 15.17078343 -42.10612488 15.17617798 C-48.04816683 15.1893213 -53.99019747 15.19575049 -59.93225169 15.20018864 C-63.6406175 15.20311574 -67.34898019 15.20721981 -71.05734444 15.21169281 C-83.31526271 15.22615849 -95.57317245 15.2354861 -107.83109849 15.23955932 C-108.82288955 15.23989347 -108.82288955 15.23989347 -109.8347168 15.24023438 C-110.82771461 15.24056652 -110.82771461 15.24056652 -111.84077299 15.24090537 C-122.57308441 15.24485535 -133.305328 15.26231536 -144.03761321 15.2855939 C-155.04966525 15.30928701 -166.06168151 15.32151061 -177.07375914 15.32293582 C-183.259361 15.32398649 -189.44486721 15.32994996 -195.63044548 15.34775543 C-201.44572921 15.36416907 -207.2608447 15.3664244 -213.07614326 15.35761642 C-215.21475295 15.35684249 -217.35337143 15.36123534 -219.49195862 15.37107468 C-222.40308143 15.3836867 -225.31359861 15.37797628 -228.22471619 15.36749268 C-229.07840394 15.37554908 -229.9320917 15.38360548 -230.81164879 15.39190602 C-236.60854296 15.34280834 -236.60854296 15.34280834 -238.73941332 13.47675395 C-239.15540693 12.98942515 -239.57140053 12.50209634 -240 12 C-238.85855372 12.1619646 -237.71710745 12.3239292 -236.54107189 12.49080181 C-232.1267175 13.03955297 -227.78681391 13.14824134 -223.34284973 13.14717102 C-222.50805845 13.15084771 -221.67326718 13.1545244 -220.81317919 13.1583125 C-218.03535849 13.16926427 -215.2575753 13.17317857 -212.47973633 13.17700195 C-210.47996911 13.18327294 -208.48020305 13.18992029 -206.48043823 13.19691467 C-199.93097737 13.21787847 -193.38151648 13.22830852 -186.83203125 13.23828125 C-184.57131119 13.2423314 -182.31059126 13.2464484 -180.04987144 13.25063133 C-169.42828593 13.26966457 -158.80670728 13.28390062 -148.18510801 13.2922433 C-135.94861695 13.30201492 -123.71230682 13.32834051 -111.47587949 13.36874419 C-102.00043266 13.39895181 -92.52503759 13.4137165 -83.04954356 13.41702431 C-77.39799145 13.41936903 -71.74663304 13.42825475 -66.09513283 13.45348549 C-60.77544414 13.47685323 -55.45607554 13.4809645 -50.13634872 13.47072411 C-48.19220982 13.47023079 -46.24805468 13.47649054 -44.30396461 13.49028015 C-30.83776192 13.58039677 -19.07862186 12.66261163 -7.3125 5.375 C-5.85263672 4.48941406 -5.85263672 4.48941406 -4.36328125 3.5859375 C-1.94398218 2.0727349 -1.94398218 2.0727349 0 0 Z " fill="#778389" transform="translate(350,287)"/>
<path d="M0 0 C3 1 3 1 4.53515625 3.546875 C5.03917969 4.60390625 5.54320312 5.6609375 6.0625 6.75 C6.56910156 7.79671875 7.07570313 8.8434375 7.59765625 9.921875 C8.06042969 10.93765625 8.52320313 11.9534375 9 13 C9.35368526 13.71603519 9.70737053 14.43207039 10.07177353 15.16980362 C11.29898856 18.91162704 11.27621349 22.46778574 11.25396729 26.36126709 C11.25864726 27.61996782 11.25864726 27.61996782 11.26342177 28.90409684 C11.27139563 31.71445644 11.2650804 34.52459975 11.25878906 37.33496094 C11.26149928 39.35062791 11.26506038 41.3662939 11.26940918 43.38195801 C11.27853414 48.85732287 11.27498783 54.33261243 11.26865101 59.80797863 C11.26358882 65.53997692 11.26828333 71.27196874 11.27142334 77.00396729 C11.27506351 86.63449256 11.27026376 96.26498719 11.26074219 105.89550781 C11.2498699 117.0204673 11.25337411 128.14535342 11.264395 139.27031112 C11.27348115 148.82546927 11.27474628 158.38060538 11.26951766 167.93576646 C11.26640368 173.64082176 11.26597267 179.34584262 11.27259064 185.05089569 C11.27838231 190.41889871 11.27433382 195.78680754 11.26280212 201.15480042 C11.26016475 203.12156773 11.26090481 205.08834301 11.26532745 207.05510712 C11.27082117 209.74711005 11.26390246 212.43881426 11.25396729 215.13079834 C11.26065945 216.28866211 11.26065945 216.28866211 11.26748681 217.46991706 C11.22911592 222.85836728 10.34811241 227.78793051 9 233 C8.34 233 7.68 233 7 233 C7.89326929 225.34340609 7.89326929 225.34340609 8.51099777 223.35586452 C9.21394115 219.96929638 9.14446212 216.60870131 9.14044189 213.1655426 C9.14341302 212.370921 9.14638414 211.57629939 9.1494453 210.75759834 C9.15812495 208.09172484 9.15963996 205.42589628 9.16113281 202.76000977 C9.1657617 200.84950159 9.17078646 198.93899434 9.17617798 197.02848816 C9.18930177 191.83380329 9.19574752 186.63913135 9.20018864 181.4444325 C9.20312089 178.19595939 9.20722611 174.94748981 9.21169281 171.69901848 C9.22537098 161.52699124 9.23503468 151.35497205 9.2388947 141.18293625 C9.24336894 129.45752042 9.26088603 117.73222153 9.2898953 106.00684124 C9.31155687 96.93486786 9.32160146 87.86292726 9.32293582 78.7909283 C9.32398113 73.37744999 9.32982991 67.96408156 9.34775543 62.55063057 C9.36431236 57.45099875 9.3663548 52.35155848 9.35761642 47.25190926 C9.35684997 45.38840723 9.36113656 43.52489459 9.37107468 41.66141891 C9.43520356 28.87842634 9.05913221 16.70906608 2.8125 5.1875 C2.28269531 4.19105469 1.75289063 3.19460937 1.20703125 2.16796875 C0.80871094 1.45253906 0.41039062 0.73710937 0 0 Z " fill="#D4D7D8" transform="translate(361,29)"/>
<path d="M0 0 C2 2 2 2 2.5625 4.625 C1.73271503 9.60370984 -1.28424212 12.68776334 -5 16 C-5.66 16 -6.32 16 -7 16 C-7 16.66 -7 17.32 -7 18 C-7.66 18 -8.32 18 -9 18 C-9 18.66 -9 19.32 -9 20 C-11.31 20.33 -13.62 20.66 -16 21 C-14.68 20.34 -13.36 19.68 -12 19 C-12 18.32453125 -12 17.6490625 -12 16.953125 C-12 5 -12 5 -9.9375 2.25 C-6.31702008 -0.52313356 -4.45987305 -0.58903984 0 0 Z " fill="#288683" transform="translate(237,143)"/>
<path d="M0 0 C2.34259302 2.34259302 3.19766781 4.48259321 4.5625 7.5 C11.24155974 21.03644389 22.47269088 29.87176184 36 36 C36 36.66 36 37.32 36 38 C36.99 38.33 37.98 38.66 39 39 C39 39.33 39 39.66 39 40 C33.73946963 40.31563182 30.55426184 39.66590937 26 37 C26 36.34 26 35.68 26 35 C25.319375 34.773125 24.63875 34.54625 23.9375 34.3125 C16.00947147 30.77018938 11.20629244 25.54319921 7 18 C7 17.01 7 16.02 7 15 C6.01 14.67 5.02 14.34 4 14 C1.3655219 9.73549365 -0.65499928 5.0762444 0 0 Z " fill="#B0B8BC" transform="translate(74,262)"/>
<path d="M0 0 C1.76685554 5.31292225 0.03542429 9.96853864 -2 15 C-6.28044937 22.06109935 -12.48848145 27.53514328 -18.60693359 32.97827148 C-21.12250556 35.21704791 -23.12001436 37.18002155 -25 40 C-28.625 40.1875 -28.625 40.1875 -32 40 C-27.47692308 36.325 -27.47692308 36.325 -25.0625 34.6796875 C-20.60477035 31.58967036 -17.92108436 28.76468857 -15.26953125 24.046875 C-13.91923924 21.8697888 -12.40036932 20.21729011 -10.625 18.375 C-5.75322279 13.04281308 -3.00125531 6.49511787 0 0 Z " fill="#D3D7DA" transform="translate(367,262)"/>
<path d="M0 0 C3 1 3 1 4.53515625 3.546875 C5.03917969 4.60390625 5.54320312 5.6609375 6.0625 6.75 C6.56910156 7.79671875 7.07570313 8.8434375 7.59765625 9.921875 C8.06042969 10.93765625 8.52320313 11.9534375 9 13 C9.35424042 13.75750046 9.70848083 14.51500092 10.07345581 15.29545593 C11.15896949 18.46402534 11.24046806 21.00321797 11.22705078 24.35083008 C11.22682419 26.24222466 11.22682419 26.24222466 11.22659302 28.17182922 C11.21638136 29.53773152 11.2059494 30.90363219 11.1953125 32.26953125 C11.19157941 33.67485859 11.18873383 35.08018853 11.18673706 36.48551941 C11.17912389 40.17299668 11.15949553 43.86031482 11.1373291 47.54772949 C11.11682059 51.31500089 11.10772467 55.08229816 11.09765625 58.84960938 C11.07624725 66.23314523 11.04213954 73.61655026 11 81 C10.67 81 10.34 81 10 81 C9.99413376 80.32729568 9.98826752 79.65459137 9.98222351 78.96150208 C9.91784731 71.90351301 9.83331816 64.84596143 9.73754883 57.78833008 C9.70447667 55.16111044 9.6763908 52.53382277 9.65356445 49.90649414 C9.61969138 46.11054735 9.56735974 42.31521418 9.51171875 38.51953125 C9.50532883 37.36169632 9.4989389 36.20386139 9.49235535 35.01094055 C9.30852454 24.60768831 7.81882695 14.42139194 2.8125 5.1875 C2.28269531 4.19105469 1.75289063 3.19460937 1.20703125 2.16796875 C0.80871094 1.45253906 0.41039062 0.73710937 0 0 Z " fill="#DADCDE" transform="translate(361,29)"/>
<path d="M0 0 C0 3 0 3 -2 5.3125 C-8.14081156 11.10140259 -13.05388129 15.14653058 -21.625 15.0625 C-22.81351562 15.05347656 -24.00203125 15.04445313 -25.2265625 15.03515625 C-26.14179688 15.02355469 -27.05703125 15.01195312 -28 15 C-27.67 14.34 -27.34 13.68 -27 13 C-25.08249244 12.37272233 -23.13905332 11.82411718 -21.1875 11.3125 C-13.54328263 9.07660861 -5.71435077 5.71435077 0 0 Z " fill="#A0AAB0" transform="translate(350,287)"/>
<path d="M0 0 C1.3921875 0.3403125 1.3921875 0.3403125 2.8125 0.6875 C3.625 2.875 3.625 2.875 3.8125 5.6875 C1.625 8.5625 1.625 8.5625 -1.1875 10.6875 C-3.96608383 10.6875 -4.88076262 9.96137266 -6.9375 8.125 C-7.35 7.650625 -7.7625 7.17625 -8.1875 6.6875 C-4.97117876 -0.48737047 -4.97117876 -0.48737047 0 0 Z " fill="#052C40" transform="translate(234.1875,144.3125)"/>
<path d="M0 0 C2.3532124 2.3532124 3.24157926 4.53675016 4.625 7.5625 C7.57969856 13.62548294 11.26358091 18.23953817 16 23 C14.68 23.33 13.36 23.66 12 24 C7 18.375 7 18.375 7 15 C6.01 14.67 5.02 14.34 4 14 C1.3655219 9.73549365 -0.65499928 5.0762444 0 0 Z " fill="#C2C7CA" transform="translate(74,262)"/>
<path d="M0 0 C1.18771723 3.42943519 0.80226223 5.37784675 -0.4375 8.75 C-0.72496094 9.54921875 -1.01242187 10.3484375 -1.30859375 11.171875 C-1.53675781 11.77515625 -1.76492188 12.3784375 -2 13 C-2.66 13 -3.32 13 -4 13 C-4 13.66 -4 14.32 -4 15 C-5.30973998 16.3565164 -6.64802142 17.68557638 -8 19 C-8.99 20.3303125 -8.99 20.3303125 -10 21.6875 C-12.15672922 24.18121816 -12.90677085 24.41357531 -16 25 C-15.154375 24.071875 -14.30875 23.14375 -13.4375 22.1875 C-7.76571689 15.56145954 -3.08498034 8.16612442 0 0 Z " fill="#B5BBBF" transform="translate(367,262)"/>
<path d="M0 0 C4.22818271 0.30201305 6.32196752 2.95001856 9 6 C9 6.66 9 7.32 9 8 C7.54077307 7.88590407 6.08259402 7.75834456 4.625 7.625 C3.40683594 7.52058594 3.40683594 7.52058594 2.1640625 7.4140625 C0 7 0 7 -2 5 C-1.46428571 1.46428571 -1.46428571 1.46428571 0 0 Z " fill="#298684" transform="translate(209,151)"/>
<path d="M0 0 C7.42857143 -0.28571429 7.42857143 -0.28571429 11 2 C11 3.65 11 5.3 11 7 C9.234375 7.7109375 9.234375 7.7109375 7 8 C5.078125 6.6015625 5.078125 6.6015625 3.25 4.625 C2.63640625 3.97789062 2.0228125 3.33078125 1.390625 2.6640625 C0 1 0 1 0 0 Z " fill="#2A8A86" transform="translate(213,150)"/>
<path d="M0 0 C0.85271484 0.24363281 0.85271484 0.24363281 1.72265625 0.4921875 C7.02361555 1.67421959 12.76032866 1.35217325 18 0 C17 3 17 3 14.875 4.1875 C10.18688613 5.51240175 6.5210288 5.71197093 2.0625 3.625 C1.381875 3.08875 0.70125 2.5525 0 2 C0 1.34 0 0.68 0 0 Z " fill="#267F7E" transform="translate(207,158)"/>
<path d="M0 0 C0.66 0 1.32 0 2 0 C0.49087042 4.98012761 -2.55661849 8.24259942 -6 12 C-6.33 11.01 -6.66 10.02 -7 9 C-6.07421875 7.17578125 -6.07421875 7.17578125 -4.6875 5.3125 C-4.23761719 4.68988281 -3.78773438 4.06726563 -3.32421875 3.42578125 C-2.88722656 2.95527344 -2.45023437 2.48476563 -2 2 C-1.34 2 -0.68 2 0 2 C0 1.34 0 0.68 0 0 Z M-10 13 C-9.01 13.495 -9.01 13.495 -8 14 C-8.99 14.495 -8.99 14.495 -10 15 C-10 14.34 -10 13.68 -10 13 Z " fill="#E7E9EA" transform="translate(363,275)"/>
<path d="M0 0 C0 3 0 3 -2.0625 5.625 C-5.47997699 8.3880665 -7.67403972 8.74553175 -12 9 C-8.11327187 5.81994972 -4.10047867 2.89445553 0 0 Z " fill="#A9B1B5" transform="translate(350,287)"/>
<path d="M0 0 C0.99 0.66 1.98 1.32 3 2 C3.55735507 5.06545291 3.61002886 7.06377515 1.875 9.7265625 C0.64330132 11.20320126 -0.6738622 12.60755531 -2 14 C-2.99 13.34 -3.98 12.68 -5 12 C-4.01 11.278125 -3.02 10.55625 -2 9.8125 C0.69218509 7.62716848 0.69218509 7.62716848 1.375 4.1875 C1.25125 3.465625 1.1275 2.74375 1 2 C0.34 1.67 -0.32 1.34 -1 1 C-0.67 0.67 -0.34 0.34 0 0 Z " fill="#1E6C70" transform="translate(236,143)"/>
<path d="M0 0 C1.18771723 3.42943519 0.80226223 5.37784675 -0.4375 8.75 C-0.86869141 9.94882812 -0.86869141 9.94882812 -1.30859375 11.171875 C-1.53675781 11.77515625 -1.76492188 12.3784375 -2 13 C-2.66 13 -3.32 13 -4 13 C-3.40895235 8.15340923 -2.02055843 4.39251833 0 0 Z " fill="#C9CDD0" transform="translate(367,262)"/>
<path d="M0 0 C0.33 0.99 0.66 1.98 1 3 C1.66 3 2.32 3 3 3 C4.3271261 6.9813783 4.06915913 10.85045227 4 15 C1.73625389 12.73625389 1.51648574 11.68987631 0.875 8.625 C0.70742187 7.85414063 0.53984375 7.08328125 0.3671875 6.2890625 C0 4 0 4 0 0 Z " fill="#CCD1D3" transform="translate(70,251)"/>
<path d="M0 0 C1.670625 0.2165625 1.670625 0.2165625 3.375 0.4375 C8.24126788 1.04796371 13.11846586 1.52985225 18 2 C18 2.33 18 2.66 18 3 C15.56183415 3.0809723 13.12635616 3.14046972 10.6875 3.1875 C9.65206055 3.22520508 9.65206055 3.22520508 8.59570312 3.26367188 C3.44325817 3.33834499 3.44325817 3.33834499 1.01953125 1.48828125 C0.51486328 0.75158203 0.51486328 0.75158203 0 0 Z " fill="#8A969C" transform="translate(110,299)"/>
<path d="M0 0 C1.32 0 2.64 0 4 0 C4.0825 0.61875 4.165 1.2375 4.25 1.875 C4.81258459 4.18437567 4.81258459 4.18437567 7.0625 5.25 C7.701875 5.4975 8.34125 5.745 9 6 C9 6.66 9 7.32 9 8 C5.18284914 6.44486447 2.77292558 4.00400272 0 1 C0 0.67 0 0.34 0 0 Z " fill="#D4D7D9" transform="translate(86,286)"/>
<path d="M0 0 C1 2 1 2 0.22265625 4.3828125 C-0.16019531 5.28773438 -0.54304688 6.19265625 -0.9375 7.125 C-1.31777344 8.03507812 -1.69804687 8.94515625 -2.08984375 9.8828125 C-2.39019531 10.58148438 -2.69054687 11.28015625 -3 12 C-4.0516399 8.84508031 -3.98032423 7.96644412 -3.1875 4.875 C-3.01605469 4.17117188 -2.84460938 3.46734375 -2.66796875 2.7421875 C-2 1 -2 1 0 0 Z " fill="#ECEDEE" transform="translate(370,261)"/>
</svg>
